<?xml version="1.0" encoding="UTF-8"?>
<svg xmlns="http://www.w3.org/2000/svg" xmlns:xlink="http://www.w3.org/1999/xlink" width="466.1pt" height="446.4pt" viewBox="0 0 466.1 446.4" version="1.1">
<defs>
<clipPath id="clip1">
  <path d="M 44 21 L 422 21 L 422 446.398438 L 44 446.398438 Z M 44 21 "/>
</clipPath>
</defs>
<g id="surface1">
<g clip-path="url(#clip1)" clip-rule="nonzero">
<path style=" stroke:none;fill-rule:evenodd;fill:rgb(0%,25.097656%,38.818359%);fill-opacity:1;" d="M 233.058594 446.375 C 63.867188 375.199219 0 199.765625 77.824219 51.007813 C 171.472656 11.496094 302.34375 12.710938 389.050781 51.007813 C 466.117188 199.765625 402.246094 375.199219 233.058594 446.375 Z M 233.058594 446.375 "/>
<path style=" stroke:none;fill-rule:evenodd;fill:rgb(0%,25.097656%,38.818359%);fill-opacity:1;" d="M 233.058594 446.375 C 63.867188 375.199219 0 199.765625 77.824219 51.007813 C 171.472656 11.496094 302.34375 12.710938 389.050781 51.007813 C 466.117188 199.765625 402.246094 375.199219 233.058594 446.375 Z M 233.058594 446.375 "/>
</g>
<path style=" stroke:none;fill-rule:evenodd;fill:rgb(20.776367%,34.910583%,44.700623%);fill-opacity:1;" d="M 80.585938 55.925781 L 76.460938 53.691406 C 13.019531 177.929688 47.835938 320.128906 159.851563 404.539063 L 154.066406 389.929688 Z M 80.585938 55.925781 "/>
<path style=" stroke:none;fill-rule:evenodd;fill:rgb(0%,25.097656%,38.818359%);fill-opacity:1;" d="M 385.851563 55.925781 L 389.976563 53.691406 C 453.417969 177.929688 418.601563 320.128906 306.585938 404.539063 L 312.371094 389.929688 Z M 385.851563 55.925781 "/>
<path style=" stroke:none;fill-rule:evenodd;fill:rgb(20.776367%,34.910583%,44.700623%);fill-opacity:1;" d="M 233.394531 28.023438 C 280.152344 27.695313 333.824219 35.398438 389.300781 59.449219 C 441.261719 206.867188 388.992188 370.671875 233.394531 439.828125 Z M 233.394531 28.023438 "/>
<path style=" stroke:none;fill-rule:evenodd;fill:rgb(0%,25.097656%,38.818359%);fill-opacity:1;" d="M 233.003906 28.023438 C 186.246094 27.695313 132.574219 35.398438 77.097656 59.449219 C 25.136719 206.867188 77.40625 370.671875 233.003906 439.828125 Z M 233.003906 28.023438 "/>
<path style=" stroke:none;fill-rule:evenodd;fill:rgb(87.5%,87.5%,87.5%);fill-opacity:1;" d="M 233.273438 439.882813 C 233.273438 439.882813 108.574219 397.042969 74.75 249.558594 C 74.75 249.558594 49.714844 148.078125 84.21875 60.121094 C 84.21875 60.121094 220.207031 -0.0859375 381.902344 59.449219 C 431.414063 206.90625 381.585938 370.757813 233.273438 439.882813 Z M 233.273438 439.882813 "/>
<path style=" stroke:none;fill-rule:evenodd;fill:rgb(75.389099%,1.567078%,8.227539%);fill-opacity:1;" d="M 221.191406 429.234375 C 131.578125 380.960938 83.574219 293.746094 77.171875 167.601563 C 87.039063 289.21875 135.847656 376.960938 221.191406 429.234375 Z M 221.191406 429.234375 "/>
<path style=" stroke:none;fill-rule:evenodd;fill:rgb(75.389099%,1.567078%,8.227539%);fill-opacity:1;" d="M 244.394531 429.234375 C 334.003906 380.960938 382.011719 293.746094 388.410156 167.601563 C 378.542969 289.21875 329.738281 376.960938 244.394531 429.234375 Z M 244.394531 429.234375 "/>
<path style=" stroke:none;fill-rule:evenodd;fill:rgb(100%,100%,100%);fill-opacity:1;" d="M 247.242188 323.222656 L 247.269531 323.175781 L 247.277344 323.160156 L 247.296875 323.128906 L 247.324219 323.078125 L 247.347656 323.035156 L 247.375 322.992188 L 247.398438 322.945313 L 247.425781 322.902344 L 247.542969 322.6875 L 247.609375 322.566406 L 247.628906 322.527344 L 247.652344 322.488281 L 247.710938 322.371094 L 247.769531 322.265625 L 247.78125 322.242188 L 247.789063 322.230469 L 247.804688 322.195313 L 247.824219 322.164063 L 247.839844 322.132813 L 247.871094 322.066406 L 247.886719 322.039063 L 247.902344 322.007813 L 247.917969 321.980469 L 247.929688 321.960938 L 247.933594 321.949219 L 247.949219 321.921875 L 247.960938 321.894531 L 247.988281 321.84375 L 247.988281 321.839844 L 248 321.820313 L 248.035156 321.746094 L 248.042969 321.738281 L 248.046875 321.730469 L 248.054688 321.710938 L 248.066406 321.691406 L 248.074219 321.671875 L 248.085938 321.652344 L 248.117188 321.589844 L 248.121094 321.585938 L 248.121094 321.578125 L 248.128906 321.566406 L 248.136719 321.539063 L 248.144531 321.535156 L 248.148438 321.523438 L 248.152344 321.515625 L 248.152344 321.511719 L 248.15625 321.503906 L 248.15625 321.496094 L 248.160156 321.496094 L 248.160156 321.492188 L 248.164063 321.492188 L 248.164063 321.488281 L 242.753906 321.851563 C 237.347656 319.328125 242.753906 312.65625 242.753906 312.65625 C 243.835938 312.65625 248.703125 318.066406 248.703125 318.066406 C 248.832031 318.003906 248.953125 317.9375 249.066406 317.867188 L 249.078125 317.859375 C 249.132813 317.828125 249.1875 317.789063 249.242188 317.753906 L 249.242188 317.746094 C 249.296875 317.710938 249.351563 317.675781 249.402344 317.632813 L 249.40625 317.628906 C 249.457031 317.589844 249.503906 317.554688 249.550781 317.511719 L 249.558594 317.503906 C 249.601563 317.46875 249.640625 317.429688 249.683594 317.390625 L 249.695313 317.371094 L 249.707031 317.367188 C 249.746094 317.328125 249.785156 317.285156 249.824219 317.242188 L 249.832031 317.238281 L 249.847656 317.21875 C 249.878906 317.183594 249.914063 317.144531 249.945313 317.109375 L 249.972656 317.074219 L 250.0625 316.953125 L 250.070313 316.945313 L 250.074219 316.945313 L 250.085938 316.925781 L 250.175781 316.800781 L 250.195313 316.769531 C 250.222656 316.726563 250.246094 316.6875 250.273438 316.644531 L 250.292969 316.605469 L 250.355469 316.496094 L 250.410156 316.398438 L 250.464844 316.289063 L 250.535156 316.128906 L 250.558594 316.078125 L 250.601563 315.972656 L 250.625 315.910156 L 250.644531 315.855469 L 250.664063 315.796875 L 250.667969 315.789063 L 250.683594 315.742188 L 250.703125 315.6875 L 250.722656 315.628906 L 250.753906 315.523438 L 250.757813 315.511719 L 250.773438 315.453125 L 250.804688 315.339844 L 250.820313 315.261719 L 250.84375 315.160156 L 250.855469 315.101563 L 250.871094 315.039063 L 247.246094 323.21875 Z M 247.242188 323.222656 "/>
<path style=" stroke:none;fill-rule:evenodd;fill:rgb(100%,100%,100%);fill-opacity:1;" d="M 237.507813 335.746094 L 231.8125 330.621094 L 224.519531 330.738281 L 215.066406 331.308594 L 210.625 331.761719 L 206.75 330.164063 L 204.8125 324.242188 L 205.382813 319.914063 L 208.914063 319.6875 L 214.039063 319.6875 L 222.242188 320.597656 L 232.039063 320.597656 L 237.734375 323.558594 L 242.746094 325.496094 L 243.316406 328.34375 C 243.316406 328.34375 237.964844 333.242188 237.507813 335.746094 Z M 237.507813 335.746094 "/>
<path style=" stroke:none;fill-rule:evenodd;fill:rgb(10.594177%,9.812927%,9.423828%);fill-opacity:1;" d="M 123.78125 357.726563 L 120.71875 359.707031 C 120.71875 359.707031 112.96875 353.21875 121.441406 343.484375 C 121.441406 343.484375 121.980469 336.636719 129.191406 333.929688 C 129.191406 333.929688 134.597656 329.785156 138.566406 324.195313 C 138.566406 324.195313 144.332031 310.859375 150.820313 305.628906 C 150.820313 305.628906 155.507813 282.558594 157.3125 281.65625 C 157.3125 281.65625 146.496094 262.367188 155.148438 233.703125 C 155.148438 233.703125 123.421875 212.796875 120.898438 200.359375 C 120.898438 200.359375 121.800781 196.574219 161.097656 215.679688 C 161.097656 215.679688 168.847656 200.179688 174.4375 197.476563 C 174.4375 197.476563 177.679688 192.425781 198.769531 177.464844 C 198.769531 177.464844 234.460938 127.355469 254.652344 160.339844 C 254.652344 160.339844 257.894531 171.699219 270.152344 179.269531 C 270.152344 179.269531 291.425781 190.621094 307.46875 199.097656 C 307.46875 199.097656 323.511719 209.550781 330.902344 218.746094 C 330.902344 218.746094 339.914063 227.039063 347.664063 220.546875 C 347.664063 220.546875 358.121094 215.859375 350.007813 206.847656 C 350.007813 206.847656 347.125 202.523438 336.308594 201.621094 C 336.308594 201.621094 300.4375 202.523438 315.21875 178.546875 C 315.21875 178.546875 323.332031 169.894531 334.507813 167.011719 C 334.507813 167.011719 340.273438 158.359375 356.859375 165.386719 C 356.859375 165.386719 361.90625 167.910156 364.609375 166.46875 C 364.609375 166.46875 365.691406 168.632813 357.578125 172.777344 C 357.578125 172.777344 362.265625 176.382813 371.097656 170.796875 C 371.097656 170.796875 356.554688 192.214844 334.144531 170.976563 C 334.144531 170.976563 306.566406 177.285156 319.363281 193.6875 C 319.363281 193.6875 324.59375 197.289063 340.816406 196.753906 C 340.816406 196.753906 368.214844 200.179688 361.546875 220.007813 C 361.546875 220.007813 357.578125 230.640625 341.898438 233.164063 L 343.699219 237.851563 C 343.699219 237.851563 363.347656 233.703125 345.140625 245.605469 C 345.140625 245.605469 346.71875 254.007813 343.472656 268.902344 C 343.429688 269.128906 343.382813 269.351563 343.339844 269.578125 C 343.339844 269.578125 343.699219 275.886719 348.386719 277.328125 C 348.386719 277.328125 352.710938 278.410156 351.8125 287.605469 C 351.8125 287.605469 351.992188 297.878906 358.121094 299.679688 C 358.121094 299.679688 366.414063 309.054688 359.5625 314.28125 L 356.316406 311.398438 L 356.496094 315.363281 C 356.496094 315.363281 349.105469 318.609375 348.386719 312.121094 C 348.386719 312.121094 347.304688 295.894531 342.078125 292.109375 C 342.078125 292.109375 336.128906 284.179688 331.261719 283.636719 C 331.261719 283.636719 324.050781 277.507813 321.167969 272.824219 C 321.167969 272.824219 312.875 259.304688 305.125 266.515625 C 305.125 266.515625 318.28125 265.253906 315.757813 276.066406 C 315.757813 276.066406 313.957031 281.296875 307.46875 277.328125 C 307.46875 277.328125 303.863281 282.371094 300.257813 277.507813 C 300.257813 277.507813 299.535156 282.558594 306.925781 285.441406 C 306.925781 285.441406 316.480469 289.949219 311.792969 293.011719 C 311.792969 293.011719 304.222656 298.238281 306.207031 304.730469 C 306.207031 304.730469 304.761719 308.335938 303.683594 308.871094 C 303.683594 308.871094 308.910156 314.28125 299.898438 319.148438 C 299.898438 319.148438 295.390625 322.394531 294.488281 316.621094 C 294.488281 316.621094 293.046875 318.066406 293.226563 320.953125 C 293.226563 320.953125 288.359375 318.609375 291.425781 313.199219 C 291.425781 313.199219 287.097656 306.171875 293.585938 300.578125 C 293.585938 300.578125 301.339844 293.734375 292.324219 289.949219 C 292.324219 289.949219 286.378906 287.605469 279.527344 287.605469 C 279.527344 287.605469 275.019531 285.441406 275.019531 279.671875 L 270.515625 281.835938 C 270.515625 281.835938 277.003906 295.175781 275.742188 301.304688 C 275.742188 301.304688 282.953125 302.746094 289.800781 320.773438 C 289.800781 320.773438 306.746094 333.746094 308.367188 340.601563 C 308.367188 340.601563 320.988281 348.53125 313.054688 356.824219 L 306.925781 356.28125 L 303.320313 361.511719 C 303.320313 361.511719 282.589844 361.871094 287.820313 348.351563 C 287.820313 348.351563 281.691406 347.089844 280.066406 334.652344 C 280.066406 334.652344 275.019531 321.855469 270.515625 324.558594 C 270.515625 324.558594 260.058594 315.90625 262.582031 313.921875 L 251.765625 307.972656 L 250.144531 308.695313 C 250.144531 308.695313 252.847656 316.085938 248.703125 318.066406 C 248.703125 318.066406 243.835938 312.660156 242.753906 312.660156 C 242.753906 312.660156 237.347656 319.328125 242.753906 321.855469 L 248.160156 321.492188 C 248.160156 321.492188 241.3125 335.914063 237.167969 326.359375 C 237.167969 326.359375 223.828125 318.789063 217.699219 324.015625 C 217.699219 324.015625 211.390625 328.882813 208.867188 320.773438 C 208.867188 320.773438 202.375 323.296875 211.570313 330.507813 C 211.570313 330.507813 221.125 322.394531 224.367188 327.984375 C 224.367188 327.984375 226.710938 329.605469 233.019531 330.324219 C 233.019531 330.324219 239.148438 331.40625 237.347656 335.914063 C 237.347656 335.914063 234.640625 335.554688 233.378906 339.519531 C 233.378906 339.519531 230.675781 344.027344 225.089844 342.402344 C 225.089844 342.402344 214.632813 342.761719 209.765625 336.09375 C 209.765625 336.09375 202.554688 337.535156 202.738281 317.886719 L 185.070313 303.285156 C 185.070313 303.285156 165.421875 314.464844 164.523438 318.066406 C 163.621094 321.671875 165.242188 318.609375 165.242188 318.609375 C 165.242188 318.609375 160.738281 329.0625 153.527344 329.785156 C 153.527344 329.785156 149.019531 335.371094 150.640625 339.699219 C 152.265625 344.027344 150.640625 340.601563 150.640625 340.601563 C 150.640625 340.601563 148.660156 348.167969 145.414063 347.269531 L 147.21875 355.019531 C 147.21875 355.019531 142.890625 359.886719 132.796875 361.511719 C 132.796875 361.511719 122.703125 364.214844 123.78125 357.726563 Z M 123.78125 357.726563 "/>
<path style=" stroke:none;fill-rule:evenodd;fill:rgb(100%,100%,100%);fill-opacity:1;" d="M 303.863281 240.015625 C 303.863281 240.015625 308.730469 227.578125 312.695313 226.496094 C 312.695313 226.496094 308.367188 236.410156 308.367188 240.554688 Z M 239.871094 228.480469 C 239.871094 228.480469 233.378906 194.230469 242.035156 186.839844 C 242.035156 186.839844 243.113281 212.796875 249.421875 228.660156 Z M 355.234375 306.890625 C 355.234375 306.890625 357.398438 305.808594 358.300781 302.746094 C 358.300781 302.746094 362.785156 310.273438 359.597656 311.757813 C 359.585938 311.757813 359.574219 311.757813 359.5625 311.757813 C 359.5625 311.757813 356.859375 307.433594 355.234375 306.890625 Z M 288.902344 327.800781 C 288.902344 327.800781 299.898438 342.039063 299.535156 343.664063 C 299.535156 343.664063 303.5 343.664063 304.761719 340.421875 C 304.761719 340.421875 293.226563 326.539063 288.902344 327.800781 Z M 210.488281 318.066406 C 210.488281 318.066406 205.621094 313.5625 210.667969 310.496094 C 210.667969 310.496094 211.210938 314.101563 218.058594 309.414063 C 218.058594 309.414063 221.664063 318.246094 210.488281 318.066406 Z M 296.109375 307.789063 C 296.109375 307.789063 299.355469 302.386719 301.339844 298.960938 C 301.339844 298.960938 303.320313 296.4375 307.105469 293.371094 C 307.105469 293.371094 303.5 300.039063 303.5 301.84375 C 303.5 301.84375 302.058594 309.597656 296.109375 307.789063 Z M 276.644531 230.101563 C 276.644531 230.101563 275.5625 213.519531 268.171875 206.121094 C 268.171875 206.121094 252.308594 185.757813 258.796875 176.023438 C 258.796875 176.023438 276.28125 190.621094 285.476563 192.789063 C 285.476563 192.789063 319.726563 206.847656 326.933594 223.433594 C 326.933594 223.433594 335.585938 227.9375 338.113281 238.210938 L 331.800781 238.933594 C 331.800781 238.933594 323.511719 226.316406 320.085938 227.398438 C 320.085938 227.398438 305.304688 200.179688 273.578125 201.621094 C 273.578125 201.621094 283.671875 219.464844 276.644531 230.101563 Z M 273.757813 260.925781 C 273.757813 260.925781 272.316406 253.894531 273.9375 252.996094 C 273.9375 252.996094 275.5625 243.441406 275.019531 240.554688 C 275.019531 240.554688 295.390625 246.503906 323.148438 241.277344 L 325.132813 242.898438 C 325.132813 242.898438 336.667969 241.277344 336.847656 242.179688 C 336.847656 242.179688 333.785156 246.867188 324.59375 247.046875 L 325.132813 250.109375 C 325.132813 250.109375 293.046875 262.367188 273.757813 260.925781 Z M 198.589844 237.492188 C 198.589844 237.492188 200.394531 228.296875 198.589844 228.296875 C 198.589844 228.296875 204.359375 215.140625 235.90625 232.804688 C 235.90625 232.804688 274.121094 225.773438 271.597656 243.261719 C 271.597656 243.261719 269.433594 255.699219 269.792969 257.496094 C 269.792969 257.496094 272.675781 269.398438 261.863281 268.316406 C 261.863281 268.316406 252.488281 271.019531 244.015625 280.933594 C 244.015625 280.933594 236.804688 280.03125 237.707031 272.824219 C 237.707031 272.824219 236.265625 263.628906 236.445313 262.726563 C 236.445313 262.726563 233.378906 282.371094 223.464844 276.789063 C 223.464844 276.789063 202.375 255.519531 200.214844 255.519531 C 200.214844 255.519531 204.179688 250.289063 212.109375 255.699219 C 212.109375 255.699219 203.097656 238.210938 215.355469 236.769531 L 230.496094 240.738281 C 230.496094 240.738281 205.621094 220.1875 198.589844 237.492188 Z M 199.671875 304.367188 C 199.671875 304.367188 183.449219 285.078125 192.824219 260.203125 C 192.824219 260.203125 203.820313 284.179688 216.976563 280.214844 C 216.976563 280.214844 224.367188 297.699219 224.367188 299.320313 C 224.367188 299.320313 226.171875 295.894531 224.1875 288.144531 C 224.1875 288.144531 223.105469 280.933594 229.414063 280.933594 C 229.414063 280.933594 242.933594 280.753906 242.035156 288.867188 L 240.230469 298.601563 C 240.230469 298.601563 246.898438 288.144531 249.785156 287.964844 C 249.785156 287.964844 245.277344 304.007813 245.457031 307.433594 C 245.457031 307.433594 236.625 307.613281 233.199219 311.578125 C 233.199219 311.578125 223.285156 309.953125 223.285156 305.992188 C 223.285156 305.992188 218.417969 301.84375 212.289063 304.367188 C 212.289063 304.367188 211.210938 294.996094 207.605469 290.664063 C 207.605469 290.664063 194.625 276.789063 196.609375 275.164063 C 196.609375 275.164063 192.640625 287.0625 199.671875 304.367188 Z M 251.585938 305.808594 L 258.4375 289.949219 C 258.4375 289.949219 252.308594 289.765625 252.667969 287.425781 C 252.667969 287.425781 263.484375 282.738281 265.105469 277.871094 C 265.105469 277.871094 264.925781 293.191406 251.585938 305.808594 Z M 166.503906 257.863281 C 166.503906 257.863281 174.253906 249.929688 186.695313 251.011719 C 186.695313 251.011719 193.003906 258.039063 189.21875 260.203125 C 189.21875 260.203125 172.453125 263.449219 166.503906 257.863281 Z M 203.277344 269.9375 C 203.277344 269.9375 201.835938 262.367188 202.917969 262.1875 C 202.917969 262.1875 207.421875 264.53125 209.40625 267.414063 C 209.40625 267.414063 205.441406 264.710938 203.277344 269.9375 Z M 256.996094 274.984375 L 263.664063 272.101563 L 260.238281 278.953125 C 260.238281 278.953125 259.878906 274.621094 256.996094 274.984375 Z M 268.171875 272.460938 C 268.171875 272.460938 273.578125 267.414063 274.121094 265.253906 C 274.121094 265.253906 284.574219 268.675781 287.097656 277.691406 C 287.097656 277.691406 273.398438 278.589844 268.171875 272.460938 Z M 287.097656 268.675781 C 287.097656 268.675781 291.964844 264.351563 294.128906 261.464844 C 294.128906 261.464844 297.191406 262.1875 300.4375 261.285156 C 300.4375 261.285156 289.441406 271.199219 287.097656 268.675781 Z M 134.960938 342.945313 C 134.960938 342.945313 142.890625 336.453125 147.578125 330.867188 C 147.578125 330.867188 147.9375 343.484375 141.269531 344.925781 C 141.269531 344.925781 134.777344 345.105469 134.960938 342.945313 Z M 125.40625 353.039063 L 121.800781 356.28125 C 121.800781 356.28125 116.390625 353.398438 123.601563 343.484375 C 123.601563 343.484375 132.074219 350.515625 142.710938 348.167969 C 142.710938 348.167969 145.59375 354.121094 139.105469 356.28125 C 139.105469 356.28125 129.550781 359.347656 125.765625 358.085938 Z M 338.113281 262.546875 C 338.113281 262.546875 336.847656 250.472656 335.40625 249.929688 C 335.40625 249.929688 337.570313 249.390625 339.914063 247.226563 C 339.914063 247.226563 340.453125 261.464844 338.113281 262.546875 Z M 161.277344 279.3125 C 161.277344 279.3125 152.804688 256.238281 159.113281 250.652344 C 159.113281 250.652344 162.539063 271.382813 170.109375 279.492188 C 170.109375 279.492188 163.078125 281.296875 161.277344 279.3125 Z M 235.542969 153.671875 C 235.542969 153.671875 246.179688 152.769531 249.421875 160.523438 C 249.421875 160.523438 254.472656 171.878906 256.453125 173.496094 C 256.453125 173.496094 248.34375 171.515625 245.636719 165.929688 C 245.636719 165.929688 242.753906 156.371094 235.542969 153.671875 Z M 302.78125 357.726563 L 298.273438 347.269531 C 298.273438 347.269531 303.140625 348.351563 306.925781 343.121094 L 313.597656 351.234375 L 311.433594 354.296875 L 305.484375 352.859375 Z M 190.117188 246.867188 C 190.117188 246.867188 199.671875 239.476563 194.445313 226.136719 C 194.445313 226.136719 165.964844 222.164063 148.839844 212.4375 L 146.675781 214.058594 L 135.859375 208.652344 C 135.859375 208.652344 134.417969 212.976563 144.875 217.84375 L 144.152344 219.464844 C 144.152344 219.464844 167.765625 241.097656 190.117188 246.867188 Z M 190.117188 246.867188 "/>
<path style=" stroke:none;fill-rule:evenodd;fill:rgb(10.594177%,9.812927%,9.423828%);fill-opacity:1;" d="M 237.527344 256.058594 C 237.527344 256.058594 240.050781 241.996094 238.609375 239.65625 C 238.609375 239.65625 269.792969 236.050781 262.941406 244.882813 C 262.941406 244.882813 239.328125 250.472656 237.527344 256.058594 Z M 237.527344 256.058594 "/>
<path style=" stroke:none;fill-rule:evenodd;fill:rgb(0%,25.097656%,38.818359%);fill-opacity:1;" d="M 117.292969 98.164063 C 117.601563 98.304688 117.085938 89.726563 117.085938 89.726563 C 117.085938 89.726563 89.9375 84.089844 82.703125 111.394531 C 81.261719 116.835938 74.511719 148.253906 93.351563 156.308594 C 93.351563 156.308594 105.636719 160.816406 117.378906 148.9375 L 116.832031 140.746094 C 116.832031 140.746094 107.960938 153.035156 97.992188 146.617188 C 88.027344 140.199219 88.4375 113.304688 96.492188 103.746094 C 98.617188 101.226563 105.960938 93.253906 117.292969 98.164063 Z M 117.292969 98.164063 "/>
<path style=" stroke:none;fill-rule:evenodd;fill:rgb(0%,25.097656%,38.818359%);fill-opacity:1;" d="M 132.785156 81.039063 L 122.535156 83.605469 L 122.390625 148.9375 L 131.929688 146.660156 L 133.066406 117.054688 L 149.722656 113.496094 L 150.007813 142.105469 C 151.003906 141.964844 159.542969 140.398438 159.542969 140.398438 L 159.972656 75.0625 L 149.152344 77.054688 L 150.148438 105.664063 L 131.074219 109.078125 Z M 132.785156 81.039063 "/>
<path style=" stroke:none;fill-rule:evenodd;fill:rgb(0%,25.097656%,38.818359%);fill-opacity:1;" d="M 193.421875 136.980469 C 193.421875 136.980469 203.792969 136.273438 204.085938 136.054688 C 204.378906 135.828125 187.832031 71.550781 187.832031 71.550781 L 179.09375 73.191406 L 162.703125 140.015625 L 171.445313 139.828125 C 171.445313 139.828125 171.445313 119.804688 189.472656 117.980469 Z M 193.421875 136.980469 "/>
<path style=" stroke:none;fill-rule:evenodd;fill:rgb(87.5%,87.5%,87.5%);fill-opacity:1;" d="M 182.542969 92.550781 L 177.226563 115.675781 C 177.226563 115.675781 186.171875 110.277344 188.621094 110.445313 C 188.480469 110.09375 184.882813 102.597656 183.375 95.964844 C 183.066406 94.597656 182.601563 93.828125 182.542969 92.550781 Z M 182.542969 92.550781 "/>
<path style=" stroke:none;fill-rule:evenodd;fill:rgb(0%,25.097656%,38.818359%);fill-opacity:1;" d="M 217.074219 135.691406 L 206.761719 135.386719 L 207.066406 70.46875 C 207.066406 70.46875 233.394531 65.816406 238.007813 82.90625 C 238.007813 82.90625 242.910156 96.40625 228.800781 103.050781 L 246.917969 135.1875 L 235.992188 136.097656 L 220.699219 105.964844 L 219.148438 105.871094 L 219.058594 104.871094 C 233.445313 99.136719 234.898438 78.015625 216.144531 76.011719 Z M 217.074219 135.691406 "/>
<path style=" stroke:none;fill-rule:evenodd;fill:rgb(0%,25.097656%,38.818359%);fill-opacity:1;" d="M 261.558594 98.09375 L 261.386719 105.617188 L 269.339844 106.046875 L 269.339844 131.527344 C 247.488281 117.488281 247.710938 93.9375 256.25 83.246094 C 261.480469 76.699219 271.15625 74.253906 277.652344 82.726563 L 277.652344 72.898438 C 277.652344 72.898438 260.828125 64.769531 248.984375 79.3125 C 235.511719 95.855469 242.164063 127.714844 260.585938 135.285156 C 260.585938 135.285156 274.921875 140.472656 278.742188 132.414063 L 279.289063 99.789063 Z M 261.558594 98.09375 "/>
<path style=" stroke:none;fill-rule:evenodd;fill:rgb(0%,25.097656%,38.818359%);fill-opacity:1;" d="M 311.789063 82.945313 L 311.300781 74.402344 L 283.957031 71.105469 L 283.789063 137.648438 L 312.375 142.382813 L 313.105469 134.003906 L 295.261719 131.453125 L 295.078125 109.96875 L 309.097656 112.335938 L 309.28125 103.78125 L 294.53125 101.59375 L 294.53125 80.472656 Z M 311.789063 82.945313 "/>
<path style=" stroke:none;fill-rule:evenodd;fill:rgb(0%,25.097656%,38.818359%);fill-opacity:1;" d="M 327.835938 145.164063 L 316.035156 143.558594 L 317.011719 75.328125 C 317.011719 75.328125 345.191406 77.347656 348.46875 94.640625 C 350.730469 106.570313 343.738281 112.839844 336.640625 115.753906 C 336.640625 115.753906 341.554688 116.660156 346.832031 132.863281 L 352.835938 151.0625 L 342.28125 149.789063 L 328.632813 115.390625 C 328.632813 115.390625 341.734375 109.382813 339.003906 98.460938 C 336.277344 87.539063 326.8125 84.992188 326.8125 84.992188 Z M 327.835938 145.164063 "/>
<path style=" stroke:none;fill-rule:evenodd;fill:rgb(0%,25.097656%,38.818359%);fill-opacity:1;" d="M 355.96875 143.496094 L 355.96875 152.796875 C 360.398438 157.988281 368.105469 159.6875 374.167969 156.71875 C 382.554688 152.609375 387.957031 140.5625 378.652344 125.449219 C 378.652344 125.449219 374.054688 118.800781 368.273438 115.433594 C 362.574219 112.113281 359.90625 102.929688 365.253906 99.304688 C 371.851563 94.828125 380.347656 103.246094 380.347656 103.246094 L 380.347656 94.980469 C 380.347656 94.980469 377.4375 92.148438 373.445313 90.972656 C 366.808594 89.015625 357.1875 89.703125 352.980469 101.414063 C 350.019531 109.648438 353.890625 117.4375 363.539063 125.628906 C 373.191406 133.824219 376.832031 145.289063 370.824219 149.480469 C 364.816406 153.671875 355.96875 143.496094 355.96875 143.496094 Z M 355.96875 143.496094 "/>
<path style=" stroke:none;fill-rule:evenodd;fill:rgb(89.0625%,0%,8.616638%);fill-opacity:1;" d="M 255.488281 40.902344 C 256.671875 40.902344 257.855469 40.902344 259.035156 40.902344 C 259.035156 42.632813 260.070313 45.425781 260.515625 47.109375 C 261.644531 51.539063 262.773438 55.96875 263.902344 60.394531 C 264.085938 61.191406 264.265625 61.992188 264.449219 62.789063 C 264.449219 62.804688 264.449219 62.820313 264.449219 62.835938 C 262.949219 62.835938 261.335938 62.929688 259.921875 62.929688 C 259.53125 61.046875 259.144531 59.164063 258.753906 57.28125 C 258.738281 57.28125 258.722656 57.28125 258.707031 57.28125 C 258.707031 57.265625 258.707031 57.246094 258.707031 57.234375 C 257.816406 57.4375 253.941406 58.382813 253.503906 58.964844 C 253.234375 59.757813 252.96875 60.550781 252.699219 61.347656 C 252.570313 61.703125 252.441406 62.058594 252.3125 62.414063 C 251.15625 62.503906 250.007813 62.230469 248.859375 62.230469 C 248.859375 62.199219 248.859375 62.164063 248.859375 62.136719 C 251.070313 55.058594 253.28125 47.980469 255.488281 40.902344 Z M 255.488281 40.902344 "/>
<path style=" stroke:none;fill-rule:evenodd;fill:rgb(89.0625%,0%,8.616638%);fill-opacity:1;" d="M 223.984375 40.949219 C 225.863281 41.128906 227.363281 41.59375 228.535156 43.0625 C 228.699219 43.351563 228.863281 43.644531 229.023438 43.933594 C 229.007813 43.933594 228.992188 43.933594 228.976563 43.933594 C 228.976563 43.949219 228.976563 43.964844 228.976563 43.980469 C 227.214844 43.59375 225.269531 42.96875 223.398438 43.6875 C 218.125 45.714844 219.128906 59.007813 225.289063 59.007813 C 225.414063 58.992188 225.539063 58.980469 225.664063 58.960938 C 226.234375 58.734375 229.070313 57.402344 229.070313 56.578125 C 229.101563 56.578125 229.132813 56.578125 229.164063 56.578125 C 229.808594 58.835938 229.246094 60.71875 227.007813 61.449219 C 213.65625 65.796875 213.722656 41.085938 222.816406 41.085938 C 223.003906 41.070313 223.191406 41.058594 223.378906 41.039063 C 223.578125 41.011719 223.78125 40.980469 223.984375 40.949219 Z M 223.984375 40.949219 "/>
<path style=" stroke:none;fill-rule:evenodd;fill:rgb(89.0625%,0%,8.616638%);fill-opacity:1;" d="M 240.832031 40.949219 C 242.613281 41.121094 246.574219 41.996094 246.574219 44.261719 C 244.761719 43.863281 242.964844 42.953125 240.894531 43.589844 C 235.558594 45.230469 235.527344 58.960938 241.90625 58.960938 C 242.046875 58.945313 242.1875 58.933594 242.328125 58.914063 C 242.832031 58.710938 245.640625 57.515625 245.640625 56.863281 C 245.65625 56.863281 245.671875 56.863281 245.6875 56.863281 C 245.6875 56.878906 245.6875 56.894531 245.6875 56.910156 C 246.226563 58.535156 245.761719 60.410156 244.296875 61.160156 C 243.085938 61.78125 241.363281 61.824219 239.902344 61.65625 C 237.9375 61.429688 236.441406 60.710938 235.253906 59.132813 C 232.226563 55.09375 232.96875 46.085938 236.457031 42.597656 C 237.269531 41.78125 238.308594 41.085938 239.527344 41.085938 C 239.742188 41.070313 239.960938 41.058594 240.179688 41.039063 C 240.398438 41.011719 240.617188 40.980469 240.832031 40.949219 Z M 240.832031 40.949219 "/>
<path style=" stroke:none;fill-rule:evenodd;fill:rgb(89.0625%,0%,8.616638%);fill-opacity:1;" d="M 210.308594 41.414063 C 211.054688 41.414063 211.800781 41.414063 212.550781 41.414063 C 212.519531 42.503906 212.488281 43.59375 212.457031 44.679688 C 212.457031 44.695313 212.457031 44.714844 212.457031 44.726563 C 210.292969 44.820313 208.132813 44.914063 205.96875 45.007813 C 205.8125 45.578125 205.972656 50.121094 206.253906 50.351563 C 206.582031 50.617188 207.371094 50.515625 207.835938 50.515625 C 208.863281 50.496094 209.890625 50.484375 210.914063 50.46875 C 211.398438 50.453125 211.882813 50.4375 212.363281 50.421875 C 212.363281 50.484375 212.363281 50.546875 212.363281 50.609375 C 212.015625 51.226563 212.222656 52.578125 212.222656 53.363281 C 210.199219 53.410156 208.179688 53.453125 206.15625 53.503906 C 206.140625 53.566406 206.125 53.628906 206.109375 53.6875 C 206.019531 54.296875 206.347656 58.328125 206.628906 58.566406 C 207.015625 58.890625 212.425781 58.730469 213.390625 58.730469 C 213.191406 59.746094 213.4375 60.898438 213.4375 61.949219 C 209.550781 61.949219 205.535156 62.414063 201.722656 62.414063 C 201.660156 57.097656 201.597656 51.773438 201.535156 46.453125 C 201.535156 45.320313 201.1875 42.726563 201.578125 41.824219 C 201.710938 41.519531 202.464844 41.601563 202.792969 41.601563 C 203.632813 41.585938 204.476563 41.570313 205.316406 41.554688 C 206.140625 41.539063 206.964844 41.523438 207.789063 41.507813 C 208.628906 41.476563 209.46875 41.445313 210.308594 41.414063 Z M 210.308594 41.414063 "/>
<path style=" stroke:none;fill-rule:evenodd;fill:rgb(89.0625%,0%,8.616638%);fill-opacity:1;" d="M 186.644531 42.8125 C 189.3125 42.8125 191.945313 42.890625 193.71875 44.605469 C 194.996094 45.84375 195.253906 47.828125 195.433594 49.621094 C 195.929688 54.703125 195.585938 59.925781 191.476563 62.847656 C 188.734375 64.796875 185.324219 64.796875 181.699219 64.796875 C 181.699219 58.449219 181.699219 52.101563 181.699219 45.753906 C 181.710938 44.996094 181.722656 44.238281 181.734375 43.476563 C 181.753906 43.453125 181.773438 43.441406 181.792969 43.421875 C 181.902344 43.40625 182.011719 43.390625 182.117188 43.371094 C 182.242188 43.359375 182.367188 43.34375 182.492188 43.328125 C 182.601563 43.3125 182.710938 43.296875 182.820313 43.28125 C 182.929688 43.265625 183.039063 43.246094 183.144531 43.234375 C 183.253906 43.21875 183.363281 43.203125 183.472656 43.1875 C 183.582031 43.171875 183.691406 43.15625 183.800781 43.140625 C 183.921875 43.121094 184.046875 43.109375 184.171875 43.09375 C 184.28125 43.078125 184.390625 43.0625 184.5 43.046875 C 184.609375 43.03125 184.71875 43.015625 184.824219 42.996094 C 184.980469 42.984375 185.136719 42.96875 185.292969 42.953125 C 185.496094 42.9375 185.699219 42.921875 185.898438 42.90625 C 186.148438 42.878906 186.398438 42.847656 186.644531 42.8125 Z M 186.644531 42.8125 "/>
<path style=" stroke:none;fill-rule:evenodd;fill:rgb(89.0625%,0%,8.616638%);fill-opacity:1;" d="M 268.976563 42.90625 C 270.433594 42.921875 271.890625 42.9375 273.34375 42.949219 C 273.351563 42.96875 273.359375 42.984375 273.363281 42.996094 C 275.121094 46.921875 276.878906 50.84375 278.636719 54.761719 C 278.652344 54.761719 278.667969 54.761719 278.683594 54.761719 C 278.804688 53.476563 278.957031 43.972656 279.273438 43.695313 C 279.574219 43.425781 281.636719 43.5625 282.183594 43.5625 C 282.183594 43.621094 282.183594 43.6875 282.183594 43.746094 C 281.753906 44.558594 282.054688 46.308594 282.039063 47.289063 C 281.992188 52.894531 281.949219 58.496094 281.90625 64.097656 C 280.960938 63.976563 277.59375 63.703125 276.980469 63.289063 C 276.394531 62.902344 276.097656 61.507813 275.816406 60.890625 C 274.578125 58.039063 273.34375 55.1875 272.105469 52.335938 C 271.964844 52.039063 271.824219 51.746094 271.683594 51.449219 C 271.683594 51.433594 271.683594 51.414063 271.683594 51.402344 C 271.667969 51.414063 271.652344 51.433594 271.636719 51.449219 C 271.355469 52.050781 271.511719 53.054688 271.488281 53.78125 C 271.429688 56.394531 271.371094 59.007813 271.3125 61.621094 C 271.304688 62.175781 271.488281 63.289063 271.148438 63.664063 C 271 63.828125 268.941406 63.910156 268.601563 63.910156 C 268.726563 56.910156 268.851563 49.910156 268.976563 42.90625 Z M 268.976563 42.90625 "/>
<path style=" stroke:none;fill-rule:evenodd;fill:rgb(87.5%,87.5%,87.5%);fill-opacity:1;" d="M 187.066406 46.269531 C 186.535156 46.363281 186.007813 46.453125 185.480469 46.546875 C 185.234375 47.460938 185.242188 59.890625 185.5 60.339844 C 185.648438 60.425781 185.796875 60.511719 185.945313 60.597656 C 186.179688 60.578125 186.414063 60.566406 186.644531 60.550781 C 186.753906 60.535156 186.863281 60.519531 186.972656 60.503906 C 187.066406 60.488281 187.160156 60.472656 187.253906 60.453125 C 188.25 60.027344 189.246094 59.949219 189.953125 59.007813 C 191.320313 57.1875 192.066406 48.894531 190.339844 47.054688 C 189.59375 46.257813 188.238281 46.269531 187.066406 46.269531 Z M 187.066406 46.269531 "/>
<path style=" stroke:none;fill-rule:evenodd;fill:rgb(87.5%,87.5%,87.5%);fill-opacity:1;" d="M 256.46875 48.554688 C 256.109375 49.234375 254.53125 53.746094 254.601563 54.382813 C 254.648438 54.449219 254.699219 54.515625 254.746094 54.578125 C 255.605469 54.867188 257.453125 53.734375 258.382813 53.734375 C 258.382813 53.71875 258.382813 53.703125 258.382813 53.6875 C 257.746094 51.976563 257.105469 50.265625 256.46875 48.554688 Z M 256.46875 48.554688 "/>
</g>
</svg>
