<?xml version="1.0" encoding="utf-8"?>
<!-- Generator: Adobe Illustrator 23.0.1, SVG Export Plug-In . SVG Version: 6.00 Build 0)  -->
<svg version="1.1" id="Layer_1" xmlns="http://www.w3.org/2000/svg" xmlns:xlink="http://www.w3.org/1999/xlink" x="0px" y="0px"
	 viewBox="0 0 300 300" style="enable-background:new 0 0 300 300;" xml:space="preserve">
<style type="text/css">
	.st0{fill:#FAAD1B;}
	.st1{fill:url(#SVGID_1_);}
	.st2{fill:#FFFFFF;}
	.st3{fill:#D71921;}
</style>
<g>
	<path class="st0" d="M235.19,215.89c-6.99,11.56-15.17,22.39-24.37,32.24c-9.23,9.82-19.3,18.85-30.24,26.71
		c-5.46,3.93-28.14,16.82-33.93,19.66c-5.8-2.84-55.09-36.42-64.35-46.22c-9.24-9.83-17.43-20.66-24.4-32.25
		c-7.07-11.53-12.81-23.89-17.16-36.76c0.91,3.27,1.93,6.52,3.03,9.74c1.15,3.2,2.35,6.39,3.68,9.52
		c2.62,6.29,5.64,12.41,8.96,18.37c6.73,11.88,14.77,23.02,23.89,33.21c9.1,10.21,19.39,19.37,30.4,27.49
		c5.52,4.04,11.26,7.79,17.12,11.32c5.89,3.48,11.93,6.7,18.08,9.71l0.76,0.37l0.76-0.37c6.14-3.01,12.17-6.24,18.05-9.73
		c5.85-3.54,11.57-7.31,17.07-11.37c5.51-4.05,10.79-8.42,15.85-13.01c5.07-4.59,9.88-9.46,14.42-14.56
		c9.08-10.21,17.11-21.34,23.86-33.19c3.34-5.94,6.38-12.05,9.03-18.32c1.36-3.12,2.57-6.3,3.75-9.49c1.12-3.21,2.16-6.44,3.1-9.7
		C248.09,192.08,242.28,204.39,235.19,215.89z"/>
	<linearGradient id="SVGID_1_" gradientUnits="userSpaceOnUse" x1="145.9999" y1="16.4698" x2="145.9999" y2="279.081">
		<stop  offset="0.1263" style="stop-color:#2561AE"/>
		<stop  offset="0.2144" style="stop-color:#255CA7"/>
		<stop  offset="0.3427" style="stop-color:#264C93"/>
		<stop  offset="0.495" style="stop-color:#283374"/>
		<stop  offset="0.5437" style="stop-color:#282968"/>
	</linearGradient>
	<path class="st1" d="M261.06,142.5l5.19,0.59l0.01-13.11l14.77-14.77H258.3V85.17c-19.11-10.53-43.86-22.27-71.81-28.58
		c0.03,0.19,0.08,0.38,0.12,0.57l2.08,2.33l6.65,4.35l1.65,10.35l0.27,0.45c24.96,5.16,40.92,17.09,51.12,28.08v0.51
		c-10.33-11.08-30.21-19.86-53.95-24.53l-1.78-2.9l-1.47-9.26l-5.47-3.58l-3.37-3.79c-2.15-16.13-13.73-26.4-28.64-29.55l-0.16-2.02
		l-1.57-1.38v-2.59c2.81-0.68,4.66-1.81,4.66-3.09c0-1.29-1.85-2.42-4.66-3.09v-2.76l-4.01-2.24l-0.21-1.46h1.42l0.6-2.07h-1.59
		L145.92,1l-2.25,7.92h-1.59l0.61,2.07h1.42l-0.21,1.46l-4.01,2.24v2.76c-2.81,0.68-4.65,1.81-4.65,3.09c0,1.28,1.85,2.42,4.65,3.09
		v2.59l-1.56,1.38l-0.16,2.36c-14.23,3.64-25.17,13.59-27.25,29.2l-3.37,3.79l-5.47,3.58l-1.47,9.26l-2.12,3.25
		C77.16,83.53,58.09,91.56,44.86,103v-0.28C57.48,91.8,73.08,79.99,95.7,75l0.57-0.87l1.64-10.29l6.65-4.35l2.07-2.33
		c0.04-0.23,0.1-0.46,0.14-0.69c-27.96,6.16-52.72,17.64-71.83,28.05v30.69H10.97l16.25,14.91v42.45l13.46,6.35
		c9.76,33.38,35.94,82.1,105.94,115.75c70.17-33.74,96.31-82.63,106.01-116.01l13.92-6.09v-23.15l-1.18-1.49
		C263.64,145.72,262.34,144.08,261.06,142.5z"/>
	<path class="st2" d="M227.68,213.83c-6.4,10.58-13.88,20.49-22.31,29.51c-8.45,8.98-17.66,17.25-27.68,24.44
		c-5,3.6-10.14,7-15.43,10.16c-5.09,2.99-10.3,5.76-15.61,8.36c-5.31-2.6-10.54-5.36-15.64-8.35c-5.3-3.15-10.46-6.54-15.48-10.12
		c-10.04-7.17-19.31-15.39-27.79-24.36c-8.46-9-15.96-18.91-22.33-29.52c-6.47-10.56-11.73-21.87-15.71-33.65
		c0.84,2.99,1.77,5.96,2.77,8.91c1.05,2.93,2.15,5.85,3.37,8.71c2.4,5.75,5.16,11.36,8.2,16.81c6.16,10.87,13.52,21.07,21.87,30.39
		c8.33,9.35,17.74,17.72,27.82,25.16c5.06,3.7,10.3,7.13,15.67,10.36c5.39,3.19,10.92,6.13,16.54,8.89l0.7,0.34l0.7-0.34
		c5.62-2.75,11.14-5.71,16.52-8.9c5.36-3.24,10.59-6.69,15.62-10.41c5.04-3.71,9.87-7.7,14.51-11.91c4.64-4.2,9.05-8.65,13.2-13.33
		c8.31-9.34,15.66-19.53,21.84-30.37c3.05-5.44,5.83-11.03,8.27-16.76c1.24-2.86,2.35-5.77,3.43-8.68c1.03-2.94,1.98-5.9,2.84-8.88
		C239.49,192.03,234.17,203.3,227.68,213.83z"/>
	<g>
		<g>
			<path class="st2" d="M105.04,74.09l0.7-5.51l5.26-2.98l3.56-3.89c0,0,1.29-22.23,25.65-28.53c0,0-14.81,3.79-19.6,21.06
				c-1.33,4.81,0.59,10.21,0.59,10.21l-0.54,10.53c0,0-11.38,1.06-17.63,3.58L105.04,74.09z"/>
		</g>
		<g>
			<path class="st2" d="M154.01,33.54c0,0,15.11,1.1,20.17,13.51C174.18,47.05,166.17,37.7,154.01,33.54z"/>
		</g>
		<g>
			<path class="st2" d="M142.59,33.17c0,0-9.93,7.15-8.63,40.83l3.98-0.23C137.94,73.78,134.42,43.44,142.59,33.17z"/>
		</g>
	</g>
	<g>
		<g>
			<g>
				<g>
					<path class="st2" d="M97.04,90.64c6.1-1.37,9.18-1.95,15.35-2.9c2.45,1.51,3.68,2.21,6.15,3.59c0.04,7.94,0.06,9.54,0.1,17.49
						c-2.32,1.66-3.47,2.53-5.79,4.39c-6.32,0-9.48,0-15.8,0C97.04,101.52,97.04,102.33,97.04,90.64z M109.54,93.54
						c-1.47,0.2-2.21,0.3-3.68,0.52c0.02,6.22,0.03,7.72,0.06,13.93c1.48-0.05,2.21-0.07,3.69-0.12
						C109.59,101.49,109.57,99.92,109.54,93.54z"/>
					<path class="st2" d="M122.38,86.44c6.64-0.72,9.97-0.95,16.64-1.17c0,2.6,0.01,3.75,0.01,5.89c-3.04,0.08-4.55,0.14-7.58,0.31
						c0.01,2.12,0.01,3.07,0.02,4.94c2.51-0.11,3.76-0.15,6.27-0.21c0,1.9,0.01,2.79,0.01,4.65c-2.51,0.04-3.76,0.07-6.26,0.15
						c0.01,2.42,0.01,3.61,0.02,6.4c3.11-0.04,4.66-0.05,7.77-0.07c0,2.15,0.01,3.29,0.01,5.89c-6.71,0-10.07,0-16.78,0
						C122.45,99.84,122.43,99.81,122.38,86.44z"/>
					<path class="st2" d="M141.92,85.19c3.63-0.08,5.45-0.08,9.08-0.01c-0.01,11.26-0.01,12.84-0.03,22.13
						c3.22,0.01,4.83,0.02,8.05,0.06c-0.01,2.13-0.01,3.26-0.02,5.85c-6.82,0-10.23,0-17.05,0
						C141.93,99.34,141.93,99.06,141.92,85.19z"/>
					<path class="st2" d="M173.85,97.82c0.02-3.81,0.03-5.66,0.05-11.03c3.57,0.43,5.34,0.68,8.89,1.26
						c-0.05,12.73-0.07,12.44-0.12,25.17c-3.56,0-5.34,0-8.91,0c0.02-5.37,0.03-7.22,0.05-11.03c-1.48-0.07-2.22-0.11-3.7-0.17
						c-0.02,3.88-0.03,5.76-0.05,11.2c-3.61,0-5.41,0-9.01,0c0.04-13.7,0.06-13.91,0.09-27.61c3.62,0.23,5.44,0.39,9.05,0.76
						c-0.02,5.44-0.03,7.32-0.05,11.2C171.63,97.66,172.37,97.71,173.85,97.82z"/>
					<path class="st2" d="M187.28,88.82c3.58,0.65,5.37,1.02,8.92,1.82c0,11.69,0,10.89,0,22.58c-3.61,0-5.41,0-9.01,0
						C187.22,100.8,187.24,101.24,187.28,88.82z"/>
				</g>
			</g>
			<g>
				<path class="st2" d="M187.29,88.82c0,0,4.47,0.76,10.65,2.16c3.15,0.71,5.97,1.48,5.97,1.48l-10.18,4.28L187.29,88.82z"/>
			</g>
			<g>
				<path class="st2" d="M106.23,88.82c0,0-4.47,0.76-10.65,2.16c-3.15,0.71-5.97,1.48-5.97,1.48l10.18,4.28L106.23,88.82z"/>
			</g>
		</g>
		<g>
			<g>
				<g>
					<g>
						<g>
							<path class="st2" d="M70.54,120.06c-3.33,14.86-5.16,30.03-8.04,44.99c4.68-1.76,7.04-2.61,11.77-4.18
								c0.45-2.64,0.68-4.12,1.13-7.18c2.8-0.8,4.2-1.18,7-1.89c0.35,2.7,0.52,3.98,0.87,6.3c4.78-1.35,7.17-1.95,11.93-2.87
								c-2.7-11.67-4.91-23.44-7.39-35.16H70.54z M76.38,145.64c0.66-5.88,1.34-11.75,2.04-17.62c0.46-0.02,0.69-0.03,1.16-0.06
								c0.69,5.53,1.35,11.07,2.04,16.6C79.52,144.98,78.47,145.19,76.38,145.64z"/>
						</g>
					</g>
					<g>
						<g>
							<path class="st2" d="M170.92,120.06c-8.42,0-16.84,0-25.26,0c0,2.43,0,3.65,0,6.08c2.71,0,4.06,0,6.77,0
								c0,8.75,0.01,17.5,0.01,26.25c4.74,0.03,7.1,0.06,11.84,0.16c-0.01-8.8-0.03-17.59-0.04-26.39c2.68,0.01,4.02,0.02,6.7,0.03
								C170.93,123.75,170.92,122.52,170.92,120.06z"/>
						</g>
					</g>
					<g>
						<g>
							<path class="st2" d="M219.33,120.06h-11.95c-0.14,12.26-0.26,24.52-0.4,36.77c7.42,2.03,14.64,4.38,21.87,6.98
								c0.08-2.63,0.13-4.16,0.21-7.4c-4.2-1.33-6.28-1.97-10.42-3.14C218.87,142.2,219.06,131.13,219.33,120.06z"/>
						</g>
					</g>
					<g>
						<g>
							<path class="st2" d="M98.58,120.06c-0.07,11.56-0.13,23.12-0.21,34.69c4.79-0.83,7.17-1.12,11.9-1.37
								c0.01-4.53,0.02-6.79,0.04-11.32c3.08-0.11,4.63-0.15,7.71-0.24c3.23-1.97,4.85-2.94,8.08-4.86
								c0.01-4.85,0.01-7.27,0.02-12.12c-3.22-1.9-4.83-2.85-8.05-4.78H98.58z M114.66,135.69c-1.73,0.04-2.59,0.06-4.32,0.1
								c0.01-3.78,0.02-5.68,0.03-9.46c1.73-0.02,2.59-0.02,4.32-0.04C114.68,130.05,114.67,131.93,114.66,135.69z"/>
						</g>
					</g>
					<g>
						<g>
							<path class="st2" d="M129.98,152.62c4.79-0.12,7.19-0.16,11.98-0.2c0.01-10.79,0.01-21.57,0.02-32.36h-11.95
								C130.02,130.91,130,141.76,129.98,152.62z"/>
						</g>
					</g>
				</g>
			</g>
			<g>
				<g>
					<path class="st2" d="M190.7,148.48c-2.72-0.2-4.08-0.3-6.8-0.47c-0.38,2.43-0.57,3.6-0.95,5.71c-4.6-0.34-6.9-0.49-11.5-0.72
						c2.59-10.92,4.66-21.98,7.05-32.95c6.78,0,10.17,0,16.95,0c2.89,11.81,5,23.79,7.77,35.62c-4.61-0.55-6.92-0.79-11.54-1.23
						C191.28,152.23,191.09,151.01,190.7,148.48z M186.38,126.94c-0.67,5.58-1,8.76-1.67,14.6c2.04,0.1,3.06,0.15,5.1,0.27
						c-0.92-5.99-1.38-9.22-2.29-14.85C187.06,126.95,186.84,126.95,186.38,126.94z"/>
				</g>
			</g>
			<path class="st2" d="M243.88,138.78c0.09-4.43,0.13-6.62,0.22-10.56c2,0.11,3,0.17,5,0.29c-0.05,2.69-0.07,4.14-0.12,7.1
				c4.68,0.54,7.03,0.81,11.8,1.35c0-4.26,0-6.33,0.01-10.01l8.75-6.89h-16.81l0,0h-12.45c-3.24,2.16-4.86,3.36-8.09,5.72
				c-0.14,5.07-0.21,8.06-0.35,13.94c3.23,3.33,4.84,5.15,8.11,8.95c3.48,1.12,5.23,1.71,8.78,2.91c-0.08,4.74-0.11,7.09-0.19,11.29
				c-2.06-0.69-3.09-1.04-5.12-1.72c0.06-2.56,0.09-3.92,0.14-6.72c-4.87-1.37-7.26-2.05-12-3.33c-0.08,3.34-0.12,4.97-0.2,7.94
				c3.01,3.48,4.52,5.26,7.6,8.62c5.33,2.07,8.04,3.15,13.66,5.31c3.36-1.02,5.05-1.74,8.45-3.62v-18.03
				c-3.48-4.41-5.16-6.54-8.49-10.45C249.07,140.01,247.33,139.59,243.88,138.78z"/>
			<path class="st2" d="M40.47,120.06L40.47,120.06l-16.09,0l8.33,6.9c-0.01,0.01-0.01,0.01-0.02,0.02c0,14.18,0,28.35,0,42.53
				c3.2,1.95,4.8,2.69,8.02,3.72c4.72-1.85,7.12-2.82,11.96-4.72c3.17-3.4,4.78-5.22,7.99-8.79c0.08-4.88,0.12-7.73,0.2-13.38
				c-4.64,1.03-6.95,1.57-11.54,2.64c-0.06,5.32-0.09,7.99-0.15,12.69c-2.04,0.69-3.06,1.04-5.09,1.73
				c0.11-11.59,0.21-23.17,0.32-34.76c2.06-0.11,3.09-0.17,5.16-0.28c-0.05,3.85-0.07,5.98-0.12,10.29c4.6-0.64,6.92-0.97,11.56-1.6
				c0.07-4.71,0.1-7.04,0.17-11.15c-3.13-2.4-4.69-3.62-7.81-5.82H40.47z"/>
		</g>
	</g>
	<g>
		<g>
			<path class="st2" d="M165.71,170.22c0,0,2.22,1.01,4.32,2.89c0,0,4.7-2.02,2.79-9.04C172.93,167.43,170.42,169.86,165.71,170.22z
				"/>
			<path class="st2" d="M120.55,163.78c0,0,3.86,3.49,5.05,3.78l-2.44,0.35c0,0,4.05,3.04,6.68,2.84l-3.32,2.14
				C126.51,172.89,121.57,168.98,120.55,163.78z"/>
			<path class="st2" d="M123.71,192.45c0,0-0.46,13.28,5.08,18.83c0,0-5.33-4.68-7.43-12.56L123.71,192.45z"/>
			<path class="st2" d="M169.86,194.79c0,0-1.51,12.07-7.25,17.42c0,0,6.31-3.86,8.68-11.67L169.86,194.79z"/>
			<path class="st3" d="M173.18,161.17c-2.56-0.59-4.69,1.9-5.35,2.78c-0.66,0.88-1.17,2.2-4.47,3.44c3.37,0.22,8.94-1.9,9.45-2.71
				c0.15,1.54,0.16,4.12-2.78,8.42l2.49,1.98C172.52,175.08,177.28,169.22,173.18,161.17z"/>
			<path class="st2" d="M148.79,209.89c0.58,3.19,7.33,2.98,9.73,1.86c2.4-1.12,3.23-4.43,3.23-4.43s-0.29,0.29-1.7,1.12
				c-1.41,0.83-3.64,0.91-3.64,0.91s3.15-1.37,4.6-3.65c1.45-2.28,0.87-4.06,0.87-4.06s-1.28,2.53-3.11,3.98
				c-1.82,1.45-5.43,2.07-5.43,2.07s4.47-2.4,5.76-4.18c1.28-1.78,1.62-3.93,1.62-3.93s-6.83,4.51-5.92,3.85
				c0.91-0.66,4.47-4.72,4.47-4.72l-3.06-0.58l-2.11,1.45l0.14,0.4c0.21,0.6,0.18,1.25-0.07,1.83l-1.98,4.56
				c-0.13,0.31-0.33,0.59-0.57,0.82L148.79,209.89z"/>
			<path class="st2" d="M151.37,237.33c-0.65,0.37-2.27,0.97-4.45,0.96c-2.98-0.02-5.81-0.15-7.29-1.47
				c-2.34-2.08-3.38-4.74-3.38-4.74c0.04,1.37-0.15,2.81-0.91,3.73c0,0,4.22,2.38,4.87,6.2c0.5,2.91,11.56,3.4,12.37-0.64
				c0.74-3.68,2.41-5.46,3.97-5.56c-0.61-1.37-0.7-3.73-0.7-3.73S153.21,236.28,151.37,237.33z"/>
			<path class="st3" d="M168.98,191.33c0,0,0.07-6.48-4.76-8.01c0.07,1.9-1.03,3.91-1.46,4.57c1.46-0.66-0.85,2.17-0.95,3.2
				c-0.2,2.05-1.88,3.64-5.31,3.78c-0.62-0.07-1.03-0.24-1.23-0.31l3.99,3.55c4.01-0.74,5.15-5.52,5.19-5.83
				c0.03-0.25,0.39,0.51,0.7,1.94c0.07,0.22,0.73,5.2,0.05,8.75c2.65-5.03,1.82-12.04,1.82-12.04c-0.16-0.76-0.33-1.26-0.38-1.43
				C166.41,188.84,168.98,191.33,168.98,191.33z"/>
			<path class="st2" d="M134.22,198.67l-0.17,0.03c0,0,0.63,0.71,1.42,1.59c1.1,1.22,2.53,2.75,3.06,3.13
				c0.62,0.45-2.3-1.46-4.26-2.75c-0.94-0.62-1.67-1.1-1.67-1.1s0.09,0.56,0.34,1.35c0.24,0.75,0.64,1.71,1.27,2.59
				c1.28,1.78,5.76,4.18,5.76,4.18s-3.6-0.62-5.43-2.07c-1.82-1.45-3.11-3.98-3.11-3.98s-0.58,1.78,0.87,4.06
				c1.45,2.28,4.6,3.65,4.6,3.65s-2.24-0.08-3.65-0.91c-1.41-0.83-1.7-1.12-1.7-1.12s0.83,3.31,3.23,4.43
				c2.4,1.12,9.15,1.33,9.73-1.86l-2.82-2.71c-0.24-0.23-0.43-0.51-0.57-0.82l-1.98-4.56c-0.25-0.58-0.28-1.23-0.07-1.83l0.14-0.4
				l-1.22-0.84l-0.89-0.61l-2.69,0.51L134.22,198.67z"/>
			<path class="st2" d="M118.33,183.09c-1.63,3.29-0.93,6.23-6.53,11.23c0.3,0.2,1.12-0.2,1.52-0.2c-2.74,3.15-2.44,7.82-2.24,9.04
				c0.51,0.1,2.03-0.81,2.54-1.02c0.51-0.2-1.02,6.1,2.44,11.48c0.41-0.81,0.91-0.81,1.12-1.83c0.22,0.1,0.47,0.23,0.73,0.39
				c3.28,1.93,9.21,8.07,11.56,12.11c0.71-0.3,1.52-0.81,1.52-0.81s0.31,1.69,1.5,3.92c0.8,1.5,3.55,4.06,3.55,4.06
				c-0.31-2.55-1.71-7.3-1.39-9.81c-6.1-2.44-11.69-8.84-12.8-10.47c0.81,0.41,2.13,0.2,2.44,0.51c-0.13-0.13-1.89-1.87-3.74-4.15
				c-1.83-2.26-3.75-5.05-4.29-7.33c0,0,4.47-5.79,4.57-10.87c0.05-2.29,0.73-5.1,1.93-7.58c0.78-1.62,1.79-3.11,2.98-4.2
				C120.31,178.95,118.35,183.04,118.33,183.09z"/>
			<g>
				<path class="st3" d="M157.09,192.08c0.18,0.26,0.48,0.43,0.82,0.43c0.53,0,0.95-0.41,0.99-0.93c0.72-0.3,1.35-0.93,1.78-1.46
					c0.06,0.4,0.11,1.71-1.56,2.77c-1.99,1.26-3.48-0.41-3.48-0.41C156.28,192.49,156.72,192.33,157.09,192.08z"/>
				<path class="st2" d="M158.89,191.59c0-0.02,0.01-0.04,0.01-0.07c0-0.34-0.17-0.64-0.43-0.82c0.86-0.83,2.18-0.69,2.18-0.69
					s0.01,0.05,0.02,0.12C160.24,190.65,159.61,191.28,158.89,191.59z"/>
			</g>
			<g>
				<path class="st3" d="M136.29,192.08c-0.18,0.26-0.48,0.43-0.82,0.43c-0.53,0-0.95-0.41-0.99-0.93c-0.72-0.3-1.35-0.93-1.78-1.46
					c-0.06,0.4-0.11,1.71,1.56,2.77c1.99,1.26,3.48-0.41,3.48-0.41C137.09,192.49,136.65,192.33,136.29,192.08z"/>
				<path class="st2" d="M134.48,191.59c0-0.02-0.01-0.04-0.01-0.07c0-0.34,0.17-0.64,0.43-0.82c-0.86-0.83-2.18-0.69-2.18-0.69
					s-0.01,0.05-0.02,0.12C133.13,190.65,133.76,191.28,134.48,191.59z"/>
			</g>
			<path class="st2" d="M136.08,213.67c0.04,1.14,0.51,4.03,3.35,6.08c-0.91-2.96,0.32-6.08,0.32-6.08S137.15,214.03,136.08,213.67z
				"/>
			<path class="st2" d="M155.86,213.67c-1.07,0.36-3.67,0-3.67,0s1.22,3.12,0.32,6.08C155.35,217.7,155.82,214.82,155.86,213.67z"/>
			<path class="st2" d="M141.02,213.9c0,0,4.32-0.83,5.67-0.83c1.52,0,4.79,0.87,4.79,0.87s0.72,1.68,0.28,2.69
				c0,0-0.37-1.34-0.83-1.34c-0.16,0-2.69-0.02-4.24,0c-1.75,0.02-5.31,0-5.43,0c-0.41-0.01-0.8,1.36-0.8,1.33
				C140.38,215.88,140.39,214.03,141.02,213.9z"/>
			<g>
				<path class="st2" d="M138.64,234.3l2.41,1.14c-0.32-0.43-1.89-3.75-1.54-6.08C137.65,233.12,138.64,234.3,138.64,234.3z"/>
				<path class="st2" d="M152.89,234.3c0,0,0.99-1.18-0.87-4.93c0.36,2.33-1.22,5.64-1.54,6.08L152.89,234.3z"/>
				<path class="st3" d="M143.38,220.19l3.25,5.89l-0.41-5.97c0,0,3.48,1.28,4.57,5.36c1.08,4.04,0.81,4.93-3.29,5.36
					c-7.28,0-7.2-1.79-7.2-1.79C140.03,225.29,143.38,220.19,143.38,220.19z"/>
				<g>
					<path class="st2" d="M149.52,235.27c0,0-2.04,0.34-3.83,0.33c-2.19-0.02-3.34-0.35-3.74-0.49c-0.12-0.04-0.21-0.13-0.25-0.24
						c-0.16-0.39-0.47-1.31-0.12-2.22c0,0,0.21,1.11,0.6,1.11c0.14,0,7.1-0.05,7.2-0.05c0.34,0.01,0.67-1.08,0.68-1.06
						C150.24,233.35,150.05,235.17,149.52,235.27z"/>
				</g>
			</g>
			<path class="st2" d="M164.22,183.31c-1.39,2.15-2.26,4.66-2.26,4.66c0.15,2.74-0.83,4.31-1.56,5.09
				c-0.15,0.16-0.32,0.31-0.51,0.42c-2.18,1.37-4.44,1.04-4.63,1.07c0,0,2.71,1.52,5.42,0.01c1.32-0.74,1.36-3.23,1.36-3.23
				C165.04,189.1,164.22,183.31,164.22,183.31z"/>
			<path class="st3" d="M154.89,169.8c1.17,1.32,1.62,1.79,2,3.05c-4.77-3.93-13.91-5.31-19.7,0.94c2.73-6.63,14.27-8.1,17.99-8.24
				c0,0-8.89-3.86-19.78,1.15c-0.9,0.41-1.81,0.89-2.73,1.43c-0.72,0.42-4.68-1.15-6.22-2.95c-0.01-0.01-0.02-0.02-0.03-0.03
				c-2.32-2.25-3.95-4-6.4-3.96c-1.2,1.36-1.87,4.25-1.66,6.96c0.21,2.72,0.95,5.48,2.38,6.76c0.75-0.7,2.44-1.93,2.44-1.93
				s-2.09-1.86-2.63-5.22c-0.11-0.66-0.16-1.36-0.12-2.13c0.02-0.35,0.15-1.03,0.21-1.41c0.17,0.32,0.84,0.96,1.18,1.27
				c1.05,0.92,2.61,1.69,3.2,1.88c0.02,0.01,0.05,0.02,0.06,0.02c0.71,0.2-2.11,0.41-2.11,0.41s1.73,2.34,5.49,3.25
				c0.13,0.03-3.01,1.9-9.51,11.05c0.88-0.97,1.67-1.8,2.73-2.53c1.19-0.81,4.03-1.98,4.03-1.98c0.79-0.7,1.66-1.22,2.6-1.52
				c-1.42,1.52-2.3,3.19-2.84,4.85c-1.61,5.03,0.01,9.99-0.14,10.45c-0.2,0.61,2.24-2.03,2.24-2.03s-0.42,1.27-0.64,3.19
				c-0.35,1.99-0.54,5.28,0.81,9.04c0.28,0.79,0.63,1.59,1.06,2.41c-0.18-0.92-0.28-1.82-0.33-2.68c-0.15-2.45,0.37-6.87,0.36-6.89
				c1.12,1.8,3.1,2.91,5.63,3.6l3.67-3.43c-0.59,0.22-3.06,0.67-4.38-0.58c-0.07,0.39-0.21,0.47-0.16,1.05c0,0-2.41-0.66-2.19-3.74
				c-2.08-2.93-1.17-3.81,0.07-3.37c-0.59-1.38-2.59-3.99-2.19-8.5c0.04-0.5,0.11-1.03,0.22-1.58c0,0,0.13-0.43,0.48-1.11
				c-0.17,0.37-0.38,2.08-0.31,2.52c0.95,5.89,6.09,9.98,6.02,9.36c-0.07-0.66,0.56-1.36-0.25-2.17c0.95,0.07,1.9,1.06,3.07,3.63
				c0.32,0.67,3.24,2.82,3.24,2.82l0.02,0.06l2.17,1.52l-3.58-0.68c-0.23-0.04-0.46-0.02-0.67,0.08l-1.55,0.69l1.85,0.39
				c0.28,0.06,0.53,0.19,0.73,0.39l2.31,2.27l-2.84-1.31l-0.84-0.26c-0.36-0.11-0.74-0.05-1.05,0.16l-1.35,0.92l1.55-0.03
				c0.38-0.01,0.75,0.14,1.01,0.42l1.16,1.2l-0.26,1.34c-0.09,0.44-0.06,0.88,0.08,1.31l0.55,1.74c0.1,0.32,0.32,0.59,0.62,0.74
				l4.32,2.29c0.47,0.25,1.04,0.25,1.51,0l4.28-2.28c0.29-0.16,0.52-0.42,0.62-0.74l0.55-1.74c0.13-0.42,0.16-0.87,0.08-1.31
				l-0.26-1.34l1.57-1.29c0.19-0.16,0.43-0.24,0.68-0.24l1.39,0.01l-1.41-0.96c-0.25-0.17-0.57-0.21-0.85-0.09l-3.73,1.48l2.34-2.3
				c0.18-0.18,0.41-0.3,0.65-0.35l1.89-0.4l-1.67-0.74c-0.13-0.06-0.28-0.08-0.42-0.05l-3.71,0.7l2.11-1.52l2.27-0.33l0.15-0.08
				c0.01-0.01,0.05-0.06,0.05-0.07c0.19-0.34-0.05-1.97,0.2-2.17c0,0.02,0,0.04,0,0.06c0.29,0.07,1.65-2.88,3.85-4.23
				c-0.66,0.88-0.62,1.78-0.23,2.23c3.71-1.44,5.28-7.78,5.43-9.68C163.29,178.69,161.78,172.51,154.89,169.8z M144.56,173.71
				c0.44-1.17,2.12-2.05,2.12-2.05s1.61,0.73,2.05,2.05c5.46,0.5,7.81,3.44,8.74,5.43c-0.5-0.72-5.78-3.6-10.82-1.57
				c-5.5-2.69-10.33,1.8-10.33,1.8C138.04,173.61,144.81,173.83,144.56,173.71z M146.68,185.37c-2.54-3.62-8.44-2.54-10.51-0.64
				c3.16-4.87,9.18-4.26,9.18-4.26l1.33-1.25c0,0,0.56,0.65,1.16,1.32c0.54-0.44,6.71-0.46,9.83,3.8
				C157.19,183.63,150.53,181.15,146.68,185.37z"/>
			<path class="st2" d="M139.12,192.47l2.63,0.48c-0.21-1.55-3.76-5.9-7.06-7.33c0,0,1.04,2.18,0.41,2.39
				c-0.63,0.2-3.26-3.27-3.77-4.13c0,0-0.11,1.82,1.49,3.69C134.28,189.28,136.71,188.11,139.12,192.47z"/>
			<path class="st2" d="M154.04,192.65l-2.48,0.31c0.45-1.45,4.29-6.02,6.91-7.16c0,0-1.04,2.18-0.41,2.39
				c0.63,0.2,3.12-3.13,3.63-4c0,0,0.25,1.69-1.35,3.56C158.88,189.46,156.45,188.29,154.04,192.65z"/>
			<path class="st2" d="M133.71,193.7c-0.04-0.03-0.09-0.07-0.14-0.11c-0.03-0.02-0.05-0.04-0.08-0.07
				c-0.77-0.66-2.22-2.34-2.05-5.55c0,0-0.58-2.82-1.98-4.97c0,0-1.1,6.09,1.9,8.34c0,0-0.46,3.08,2.18,3.74
				c0,0,1.86,0.69,4.58-0.52C137.57,194.77,135.11,194.71,133.71,193.7z"/>
			<path class="st2" d="M173.67,183.09c1.63,3.29,0.93,6.23,6.53,11.23c-0.3,0.2-1.12-0.2-1.52-0.2c2.74,3.15,2.44,7.82,2.24,9.04
				c-0.51,0.1-2.03-0.81-2.54-1.02c-0.51-0.2,1.02,6.1-2.44,11.48c-0.41-0.81-0.91-0.81-1.12-1.83c-0.22,0.1-0.47,0.23-0.73,0.39
				c-3.28,1.93-9.21,8.07-11.56,12.11c-0.71-0.3-1.52-0.81-1.52-0.81s-0.31,1.69-1.5,3.92c-0.8,1.5-3.55,4.06-3.55,4.06
				c0.31-2.55,1.71-7.3,1.39-9.81c6.1-2.44,11.69-8.84,12.8-10.47c-0.81,0.41-2.13,0.2-2.44,0.51c0.13-0.13,1.89-1.87,3.74-4.15
				c1.83-2.26,3.75-5.05,4.29-7.33c0,0-4.47-5.79-4.57-10.87c-0.05-2.29-0.73-5.1-1.93-7.58c-0.78-1.62-1.79-3.11-2.98-4.2
				C171.68,178.95,173.64,183.04,173.67,183.09z"/>
		</g>
		<g>
			<g>
				<path class="st2" d="M99.75,176.08c0,0,1.1,3.22,0.87,5.85c-0.22,2.56-2.37,5.24-2.37,5.24s3.65-2.22,3.76-2.24
					c0.12-0.02,0.52-4.57,0.6-4.69c0.07-0.12-2.51-4.33-2.51-4.33L99.75,176.08z"/>
				<path class="st3" d="M86.77,197.11l-1.44,0.46l-1.15,1.05c0,0,2.02,0.73,3.26-0.77c0.23-0.28,0.39-0.53,0.5-0.76"/>
				<path class="st2" d="M86.77,197.11l-0.65-0.34l1.79-1.12c0,0,0.5,0.46,0.02,1.44C87.93,197.09,87.44,197.33,86.77,197.11z"/>
				<path class="st2" d="M76.54,209.67c0.8-0.4,4.94-4,4.63-3.81c-0.32,0.19-5.1,1.79-4.81,1.67c0.29-0.12,3.83-3.41,3.83-3.41
					l-2.82-0.34l-5.66,1.74c-0.19,0.88,0.63,2.71-1.39,5.17c0.74,1.33,3.44,2.17,3.44,2.17s2.45,0.15,6.32-2.09
					c0.34-0.79,0.86-1.58,1.64-2.3C80.99,208.89,75.74,210.07,76.54,209.67z"/>
				<path class="st3" d="M98.7,173.93c-2.22,0.68-2.75,3.53-2.86,4.49c-0.12,0.96,0.07,2.2-1.9,4.61c2.68-1.32,6-5.4,6.03-6.24
					c0.79,1.11,2.84,2.85,1.59,7.67l2.74-0.62C104.29,183.83,105.39,178.29,98.7,173.93z"/>
				<path class="st2" d="M76.38,214.2c0.52,1.04,2.16,3.48,5.63,4.18c-2.08-2.34-2.26-5.72-2.26-5.72S77.51,214.08,76.38,214.2z"/>
				<path class="st2" d="M92.49,229.24c-0.79-0.63-2.58-2.48-2.56-5.54c1.62,2.19,4.47,2.98,4.47,2.98S93.65,228.72,92.49,229.24z"
					/>
				<path class="st3" d="M95.05,213.32l-1.68,3.53l0.1-3.82c0,0-1.82,1.12-1.82,5.48c0,2.64,0.77,4.48,2.88,5.41
					c1.87-0.65,3.69-4.47,3.69-4.47C95.58,217.7,95.05,213.32,95.05,213.32z"/>
				<path class="st3" d="M68.99,206.34l-0.79,1.39l1.6,2.28c0.97-0.81,0.98-1.82,1.12-3.68C70.92,206.33,70.32,206.27,68.99,206.34z
					"/>
				<g>
					<path class="st3" d="M104.94,197.09c-0.15,2.48-0.58,7.13,4.63,10.94c-1.97-1.97-3.66-10.29,0.07-14.55
						c1.9-2.17,3.25-8.55,6.16-11.47c0.14-0.14,0.27-0.4,0.27-0.4c-5.19,2.78-9.43,5.58-9.16,5.14c0.67-1.09,3.33-6.16,7.58-8.21
						c-1.52,0.03-10.78,3.16-15.69,7.89c0.08-0.6-0.08-1.91,0.4-2.91c-0.12,0.07-7.53,2.94-12.22,7.08
						c0.04-0.46,0.44-1.55,0.66-1.86c-5.26,1.8-9.87,8.57-9.87,8.57s0.28,0.9,0.3,1.24c-0.02,0.01-0.03,0.02-0.05,0.03
						c-0.2,0.12-0.53,0.35-0.53,0.35c-5.16,3.4-8.14,6.7-8.14,6.7l2.35-0.1l5.63-1.74c0.71-0.19,4.53-1.38,5.1-1.79
						c1.45,2.85,10.78,4.48,10.97,4.42c-2.54,1.02-5.54,1.11-5.85,1.09l-6.63,3.31c0,0,7.46-3.14,13.93,0.55
						c2.93,1.92,4.79,3.84,4.84,6.37l0.37-0.63c-0.29-3.16-1.38-5.72-7.46-8.8c0,0,4.6-0.1,8.91,1.35
						c-0.85-2.21-0.35-6.78,0.48-9.43c1.49-4.77,0.05-9.35-1.99-12.96C101.36,188.5,105.22,192.56,104.94,197.09z M87.33,200.69
						c-4.46-1.07-7.7-0.24-8.2-0.02l6.2-6.21l0.06,1.85c1.67-2.75,2.04-3.25,4.94-4.31C90.88,194.59,90.84,197.65,87.33,200.69z
						 M98.24,189.94c-1,1.11-2.13,3.99-1.82,5.22c-2.95,2.01-3.14,8.01-3.14,8.01c-0.83-2.32-0.53-7.86,0.03-9.07
						C93.87,192.9,99.24,188.82,98.24,189.94z"/>
				</g>
				<g>
					<path class="st2" d="M107.32,213.26c0,0,1.93-0.33,4.85,1.83c-0.93-1.14-1.66-5.85-1.66-5.85c-4.79,2.03-7.04-6.74-6.97-7.71
						c0,0-1.76,5.97,1.48,12.09c0.02,0.05-1.98-1.93-6.36-2.83c0,0,5.72,6.32,1.28,8c0,0,0,0.01,0.01,0.04
						c2.63,7.64-2.92,10.11-2.92,10.11l0.22-3.53c-0.7,0.77-0.81,3.67-4.35,4.67c-0.63,1.58,0.57,3.5,0.57,3.5l0.79-0.99
						c0,0,2.67,1.83,2.84,2.05c1.06-1.02,5.07-4.16,7.23-5.33c-0.04-1.09-0.11-4.55,0.32-6.73c1.15-4.07,3.76-5.06,5.53-4.84
						C109.86,216.65,109.35,214.41,107.32,213.26z"/>
				</g>
				<path class="st2" d="M79.11,200.69c0.2-3.18,2.7-6.87,6.99-9.13c-0.73,0.73-1.24,1.43-1.2,2.03c0,0,4.58-5.11,13.36-5.11
					c-9.39,2.77-12.9,7.85-12.9,7.85l-0.06-1.85L79.11,200.69z"/>
				<path class="st2" d="M79.11,200.69c0,0,2.14-1.52,8.22,0c0-0.05-3.69,0.84-3.69,0.84C83.03,200.97,80.75,200.46,79.11,200.69z"
					/>
				<path class="st2" d="M100.49,197.62l-4.07-2.46c-1.74,0.79-2.92,3.05-3.14,8.01C93.28,203.17,95.17,199.44,100.49,197.62z"/>
			</g>
			<path class="st2" d="M108.69,214.51c0,0,4.94,1.63,6.15,4.27c3.51,0.57,10.64,5.73,11.96,8.79c0,0,0.04-5.9-10.27-11.24
				c0,0-4.85-2.37-6.03-7.08c0,0-2.47,3.6-3.89,3.25c-0.63-0.15-3.06,3.65,1.09,4.57C107.43,216.25,109.9,215.37,108.69,214.51z"/>
		</g>
		<g>
			<g>
				<path class="st2" d="M192.27,176.08c0,0-1.1,3.22-0.87,5.85c0.22,2.56,2.37,5.24,2.37,5.24s-3.65-2.22-3.76-2.24
					c-0.12-0.02-0.52-4.57-0.6-4.69c-0.07-0.12,2.51-4.33,2.51-4.33L192.27,176.08z"/>
				<path class="st3" d="M205.25,197.11l1.44,0.46l1.15,1.05c0,0-2.02,0.73-3.26-0.77c-0.23-0.28-0.39-0.53-0.5-0.76"/>
				<path class="st2" d="M205.25,197.11l0.65-0.34l-1.79-1.12c0,0-0.5,0.46-0.02,1.44C204.09,197.09,204.58,197.33,205.25,197.11z"
					/>
				<path class="st2" d="M215.48,209.67c-0.8-0.4-4.94-4-4.63-3.81c0.32,0.19,5.1,1.79,4.81,1.67c-0.29-0.12-3.83-3.41-3.83-3.41
					l2.82-0.34l5.66,1.74c0.19,0.88-0.63,2.71,1.39,5.17c-0.74,1.33-3.44,2.17-3.44,2.17s-2.45,0.15-6.32-2.09
					c-0.34-0.79-0.86-1.58-1.64-2.3C211.03,208.89,216.28,210.07,215.48,209.67z"/>
				<path class="st3" d="M193.32,173.93c2.22,0.68,2.75,3.53,2.86,4.49c0.12,0.96-0.07,2.2,1.9,4.61c-2.68-1.32-6-5.4-6.03-6.24
					c-0.79,1.11-2.84,2.85-1.59,7.67l-2.74-0.62C187.73,183.83,186.63,178.29,193.32,173.93z"/>
				<path class="st2" d="M215.64,214.2c-0.52,1.04-2.16,3.48-5.63,4.18c2.08-2.34,2.26-5.72,2.26-5.72S214.51,214.08,215.64,214.2z"
					/>
				<path class="st2" d="M199.53,229.24c0.79-0.63,2.58-2.48,2.56-5.54c-1.62,2.19-4.47,2.98-4.47,2.98S198.37,228.72,199.53,229.24
					z"/>
				<path class="st3" d="M196.97,213.32l1.68,3.53l-0.1-3.82c0,0,1.82,1.12,1.82,5.48c0,2.64-0.77,4.48-2.88,5.41
					c-1.87-0.65-3.69-4.47-3.69-4.47C196.44,217.7,196.97,213.32,196.97,213.32z"/>
				<path class="st3" d="M223.03,206.34l0.79,1.39l-1.6,2.28c-0.97-0.81-0.98-1.82-1.12-3.68
					C221.1,206.33,221.7,206.27,223.03,206.34z"/>
				<g>
					<path class="st3" d="M187.08,197.09c0.15,2.48,0.58,7.13-4.63,10.94c1.97-1.97,3.66-10.29-0.07-14.55
						c-1.9-2.17-3.25-8.55-6.16-11.47c-0.14-0.14-0.27-0.4-0.27-0.4c5.19,2.78,9.43,5.58,9.16,5.14c-0.67-1.09-3.33-6.16-7.58-8.21
						c1.52,0.03,10.78,3.16,15.69,7.89c-0.08-0.6,0.08-1.91-0.4-2.91c0.12,0.07,7.53,2.94,12.22,7.08
						c-0.04-0.46-0.44-1.55-0.66-1.86c5.26,1.8,9.87,8.57,9.87,8.57s-0.27,0.9-0.3,1.24c0.02,0.01,0.03,0.02,0.05,0.03
						c0.2,0.12,0.53,0.35,0.53,0.35c5.16,3.4,8.14,6.7,8.14,6.7l-2.35-0.1l-5.63-1.74c-0.71-0.19-4.53-1.38-5.1-1.79
						c-1.45,2.85-10.78,4.48-10.97,4.42c2.54,1.02,5.54,1.11,5.85,1.09l6.63,3.31c0,0-7.46-3.14-13.93,0.55
						c-2.93,1.92-4.79,3.84-4.84,6.37l-0.37-0.63c0.29-3.16,1.38-5.72,7.46-8.8c0,0-4.6-0.1-8.91,1.35
						c0.85-2.21,0.35-6.78-0.48-9.43c-1.49-4.77-0.05-9.35,1.99-12.96C190.67,188.5,186.8,192.56,187.08,197.09z M204.69,200.69
						c4.46-1.07,7.7-0.24,8.2-0.02l-6.2-6.21l-0.06,1.85c-1.67-2.75-2.04-3.25-4.94-4.31C201.14,194.59,201.18,197.65,204.69,200.69
						z M193.78,189.94c1,1.11,2.13,3.99,1.82,5.22c2.95,2.01,3.14,8.01,3.14,8.01c0.83-2.32,0.53-7.86-0.03-9.07
						C198.15,192.9,192.78,188.82,193.78,189.94z"/>
				</g>
				<g>
					<path class="st2" d="M184.7,213.26c0,0-1.93-0.33-4.85,1.83c0.93-1.14,1.66-5.85,1.66-5.85c4.79,2.03,7.04-6.74,6.97-7.71
						c0,0,1.76,5.97-1.48,12.09c-0.02,0.05,1.98-1.93,6.36-2.83c0,0-5.72,6.32-1.28,8c0,0,0,0.01-0.01,0.04
						c-2.63,7.64,2.92,10.11,2.92,10.11l-0.22-3.53c0.7,0.77,0.81,3.67,4.35,4.67c0.63,1.58-0.57,3.5-0.57,3.5l-0.79-0.99
						c0,0-2.67,1.83-2.84,2.05c-1.06-1.02-5.07-4.16-7.23-5.33c0.04-1.09,0.11-4.55-0.32-6.73c-1.15-4.07-3.76-5.06-5.53-4.84
						C182.16,216.65,182.67,214.41,184.7,213.26z"/>
				</g>
				<path class="st2" d="M212.91,200.69c-0.2-3.18-2.7-6.87-6.99-9.13c0.73,0.73,1.24,1.43,1.2,2.03c0,0-4.58-5.11-13.36-5.11
					c9.39,2.77,12.9,7.85,12.9,7.85l0.06-1.85L212.91,200.69z"/>
				<path class="st2" d="M212.91,200.69c0,0-2.14-1.52-8.22,0c0-0.05,3.69,0.84,3.69,0.84
					C208.99,200.97,211.27,200.46,212.91,200.69z"/>
				<path class="st2" d="M191.53,197.62l4.07-2.46c1.74,0.79,2.92,3.05,3.14,8.01C198.74,203.17,196.85,199.44,191.53,197.62z"/>
			</g>
			<path class="st2" d="M183.33,214.51c0,0-4.94,1.63-6.15,4.27c-3.51,0.57-10.64,5.73-11.96,8.79c0,0-0.04-5.9,10.27-11.24
				c0,0,4.85-2.37,6.03-7.08c0,0,2.47,3.6,3.89,3.25c0.63-0.15,3.06,3.65-1.09,4.57C184.59,216.25,182.12,215.37,183.33,214.51z"/>
		</g>
	</g>
</g>
</svg>
