<?xml version="1.0" encoding="utf-8"?>
<!-- Generator: Adobe Illustrator 24.2.1, SVG Export Plug-In . SVG Version: 6.00 Build 0)  -->
<svg version="1.1" id="Layer_1" xmlns="http://www.w3.org/2000/svg" xmlns:xlink="http://www.w3.org/1999/xlink" x="0px" y="0px"
	 viewBox="0 0 195 300" style="enable-background:new 0 0 195 300;" xml:space="preserve">
<style type="text/css">
	.st0{fill:url(#SVGID_1_);}
	.st1{fill:#3A225D;}
	.st2{opacity:0.3;fill:url(#SVGID_2_);}
	.st3{opacity:0.3;fill:url(#SVGID_3_);}
	.st4{opacity:0.3;fill:url(#SVGID_4_);}
	.st5{fill:url(#SVGID_5_);}
	.st6{fill:url(#SVGID_6_);}
	.st7{fill:url(#SVGID_7_);}
	.st8{fill:url(#SVGID_8_);}
	.st9{fill:url(#SVGID_9_);}
	.st10{fill:#F2BF27;}
</style>
<g>
	<linearGradient id="SVGID_1_" gradientUnits="userSpaceOnUse" x1="-10.4451" y1="187.2572" x2="179.823" y2="106.4931">
		<stop  offset="6.748470e-02" style="stop-color:#F2BF27"/>
		<stop  offset="0.1095" style="stop-color:#F2C02A"/>
		<stop  offset="0.1463" style="stop-color:#F3C535"/>
		<stop  offset="0.181" style="stop-color:#F5CD47"/>
		<stop  offset="0.2145" style="stop-color:#F8D760"/>
		<stop  offset="0.2472" style="stop-color:#FBE581"/>
		<stop  offset="0.2787" style="stop-color:#FFF6A8"/>
		<stop  offset="0.2822" style="stop-color:#FFF8AD"/>
		<stop  offset="0.4032" style="stop-color:#FAE27A"/>
		<stop  offset="0.5252" style="stop-color:#F6CF4D"/>
		<stop  offset="0.6199" style="stop-color:#F3C331"/>
		<stop  offset="0.6748" style="stop-color:#F2BF27"/>
		<stop  offset="0.7039" style="stop-color:#F4C639"/>
		<stop  offset="0.7618" style="stop-color:#F8DA66"/>
		<stop  offset="0.8405" style="stop-color:#FFF8AD"/>
		<stop  offset="0.8583" style="stop-color:#FCED92"/>
		<stop  offset="0.8879" style="stop-color:#F9DC6C"/>
		<stop  offset="0.9174" style="stop-color:#F6CF4E"/>
		<stop  offset="0.9462" style="stop-color:#F4C638"/>
		<stop  offset="0.9741" style="stop-color:#F2C12B"/>
		<stop  offset="1" style="stop-color:#F2BF27"/>
	</linearGradient>
	<path class="st0" d="M192,135.1c0,0-14.5,1.5-15.4,1.7c0,0-0.1-0.1-0.1-0.1c-0.4-0.6-0.9-1.1-1.5-1.6l2.6-16l-6.4-2.4
		c-11.1-4.2-24.3-7.3-38.5-9l-1.1-2.5l-10-22.4l8.5-0.8l-17-24.2l-6.6-10.4c0,0-1.2-0.5-2-0.8c0.2-0.8,3.6-20.2-12.5-29.7
		c-3.4-2-6.8-3.3-9.9-4.2l0,0c0,0-1.9-0.6-5.4-1.1c-6.7-0.9-15,0.2-18.7,1c-2.6-1.9-7.3-9.5-7.3-9.5s-1.3,16.6,8.9,26
		c-4.3-1.8-7.1-3.9-10.2-6.4C47,21,44.5,19,41.2,17.2c-3.1-1.7-6.3-2.6-9.5-2.6c-7.1,0-13.9,6-13.9,6s9.1,0.9,13.7,3.8
		c-4.3,0.1-4.9,3.8-4.9,3.8l2.6,1.5c7.7,4.8,1.5,5.9-0.8,4.9L21.7,31c0,0,3.4,12.5,11.7,13.3l-1.9,1.8c0,0,14.4,2.5,18.9,7
		c3.2,3.1,4.9,6.2,2.6,7.3c-1.7,0.8-4-0.9-5.6-2.8c-1.8-2.2-3.2-6.5-3.2-6.5c-2.7,5.3-0.6,11-0.6,11s0,0,0,0
		c1.1,3.4,3.7,8.1,9.9,10.6c5.1,2.1,6.8,3.5,8,4.7c5.2,5.6,8,12.7,8,12.7l-6.4,17.2l-0.8,2.4c-14,2.6-26.9,6.4-37.9,11.3l-8.3,3.8
		l4.8,15c-5.5,3.4-11.7,8.7-13.4,15.9c-1.1,4.4-0.3,8.7,2.1,12.5c2.2,3.3,5.4,5.8,9.2,7l-2.7,14.5c-6.6,4.4-10.8,9.6-12.2,15
		c-1.1,4.3-0.3,8.6,2.1,12.4c2.1,3.2,5.1,5.5,8.7,6.8l-2.2,11.9l0.4,0.8c0.1,0.2,2.6,5.2,7.1,10.1c4.7,5.2,12.1,9.2,16,11.2
		c-0.6,1.5-1.5,3.9-1.1,16.9l0.5,20.8L51,281.6c0.1,0,5.3-4.7,13.7-10.9c2.7,2.9,8.2,8.6,14.1,13.3c8.3,6.6,17.7,10.9,18.8,11.4
		c4,1.8,4,1.8,4.6,1.8h0.9l0.7-0.5c5.8-4.3,18.3-15.6,18.9-16.1l11.7-11l7.1-7.2l7.8-8.4l8.3-9.6l6.6-8.6l-5-1.2l8.3-2.1l-0.5-4.7
		l2.3,0.4l3.7-5.5c2.2-3.2,7.3-12,9.5-18l1.4-3.7l-0.7-2l2.4-5.5c3.4-7.6,5.7-19.1,2-28.3l-2.2-5.7c2.9-3.4,3.7-7.9,4.4-11.7
		L192,135.1z M97.4,106.1c-6.3,0.2-12.6,0.6-18.7,1.3c5.7-2.8,9.6-6.4,11.7-8.7c4.7,3.4,9.8,5.7,14.6,7.3c-0.1,0-0.2,0-0.3,0
		C102.4,106,99.9,106,97.4,106.1z"/>
	<path class="st1" d="M39.9,256.7c-0.9,1-1.2,1.7-1.3,2c-0.5,1.1-1.3,3.1-1,15.9l0.4,15.1l11.2-10.1c0.1-0.1,6.2-5.5,15.8-12.5
		c1.2,1.4,7.9,8.8,15.4,14.7c8.2,6.6,17.8,10.8,18.2,11c0,0,3.6,1.6,3.6,1.6c5.7-4.3,18.7-15.9,18.7-15.9l-7.2-3.9l11.7-0.3l4-3.7
		l-7.4-2.7l11.2-1l4.2-4.3l-9.9-2.6l12.8-0.3l4.1-4.4l-11.1-3l14-0.2l5.3-6.1l-15.2-3l17.7,0l4.4-5.7l-11.3-2.8l16.3-4.1l-0.6-5.9
		l4.1,0.7l2.7-4.1c2.1-3,7.1-11.7,9.2-17.4l1-2.7l-1.2-2.6c-0.3-0.7-0.7-1.4-1-2l2.6-0.1l1.8-4c3.1-7.1,5.3-17.8,2-26.3l-2.8-7.2
		c3.3-2.9,4.1-7.4,4.9-11.5l1.7-9.2l-9.3,1c-1.4,0.1-2.8,0.4-4.1,0.6c-0.3-0.5-0.6-1-0.9-1.4c-0.6-0.8-1.4-1.5-2.3-2l2.5-15.4
		l-4.4-1.7c-17.9-6.8-41.2-10.5-65.5-10.5c-2.4,0-4.9,0-7.3,0.1c-27.1,0.8-52.6,6-72,14.7l-6.1,2.8l4.8,14.8c-0.1,0-0.1,0.1-0.2,0.1
		c-5.4,3.1-12.1,8.2-13.8,15.2c-0.9,3.7-0.3,7.3,1.8,10.4c2.3,3.5,5.8,5.7,10.1,6.4l-3.4,18c-4.9,3.1-10.5,7.8-12,14
		c-0.9,3.6-0.3,7.2,1.7,10.3c2.1,3.3,5.5,5.5,9.5,6.3l-2.5,13.4c0,0,2.3,4.8,6.7,9.5C28.4,251.8,39.9,256.7,39.9,256.7z"/>
	<path class="st1" d="M40,40.3c7.1-3.6,11-5.2,11.6-5.2c0.6,0-7.6-1.6-11.7-5.2c-4.4-4-9.1-3-9.4-2.5c0,0,7.1,4,5.2,7.9
		c-2.4,4.8-8.5,1.6-8.5,1.6S30.8,44.9,40,40.3"/>
	<path class="st1" d="M63.1,33.2c-11.8-3.4-14.6-8.9-23.2-13.7c-8.6-4.8-15.2-0.4-15.2-0.4c7.8,1.3,11.7,5.7,19.2,10.7
		C51.5,34.8,63.1,33.2,63.1,33.2"/>
	<path class="st1" d="M68.2,59.3c0,0,2.3-4.3,6.2-7c0,0-0.4-0.3-1-0.7c-2-1.3-6.6-4.2-11.7-5.7c0,0,7-0.9,17.1,2.1
		c0.3,0.1,0.5,0.1,0.8,0.2c0,0,2.1-1.8,10.3-2.5c5.8-0.5,10.6,1,10.6,1s-0.1-0.3-0.4-0.8c-1.5-3-8.2-14-24.2-13.2
		c0,0,5.4,1.6,7.2,7.4c0,0-7.2-5.1-22.8-4.2c-15.6,0.8-23.8,8.8-23.8,8.8s7.9,1.8,14,3.9c7.3,2.5,15.1,8.7,16.8,10.1
		c0.2,0.2,0.4,0.3,0.4,0.3L68.2,59.3z"/>
	<path class="st1" d="M68.4,34.2c0,0,2.7-3.1,10.7-3.2C84.2,31,90,33.6,90,33.6c-0.6-6.5-4.8-10.2-4.8-10.2
		c9.9,2.4,10.6,14,10.7,14.1c3.4,2.5,6,8.8,6,8.8s3.5-18.3-11.2-26.9c-12.7-7.4-24.6-5-24.6-5s5.4,0.8,9.3,4.4
		c3.9,3.5,2.6,9.4-4.7,7.5c-7.3-1.9-16.6-14.1-16.6-14.1C55.2,23.8,68.4,34.2,68.4,34.2"/>
	<path class="st1" d="M66.2,61.2c0-0.1,0.1-0.1,0.1-0.2c0.1-0.2,0.2-0.4,0.3-0.5l0,0c-0.1-0.1-7.1-7.2-14.7-9.2c0,0,6.1,5.5,4.8,9.2
		c-1.9,5.2-9.9,1.2-11.2-2.4c0,0,0.4,8.6,9.1,12.3c4.6,1.9,7.3,3.7,8.5,5.1c0.6,0.7,0.8,1.2,0.8,1.2S63.2,67.6,66.2,61.2"/>
	<path class="st1" d="M68.5,75.2c0-8.7,2.8-15.5,8.1-19.8c7.3-5.8,15.4-6.3,21-5.7c3.7,0.4,6.7,1.3,8.5,2l-1.4-2.2
		c0,0-15.3-6.5-28.2,2.8c-9.2,6.6-11.5,18.7-9.2,27.2l1.8,3.1C68.8,80.7,68.5,78.1,68.5,75.2"/>
	<path class="st1" d="M106.9,54.3c-1.5-0.6-5-1.8-9.4-2.3c-5.4-0.6-13.3-0.1-20.3,5.5c-6.4,5.1-7.7,13.2-7.7,19.1
		c0,4.1,0.6,7.8,1.1,9.9l1.7,2.9c0,0,6.9-3.6,10.6-11.3C89.4,64.2,97,61,103.4,59.9c4.6-0.8,6.5-0.9,6.5-0.9L106.9,54.3z"/>
	<path class="st1" d="M128,104.5c-6.2,0.1-23.4-0.6-38.2-12.6c-0.7,1-2.4,3.4-5.5,6.1c-3.5,3.1-9.4,6.9-17.4,8l-0.9,2.3
		c15.4-1.5,24.1-13.2,24.1-13.2c16.7,13.4,38.8,11.4,38.8,11.4L128,104.5z"/>
	<path class="st1" d="M114.9,74.2c0,0-2.4,3.6-7.9,2.7c-5.5-1-6.9-6.2-6.9-6.2c0.2,0,8.1-0.6,9.2-0.7c7.6-0.7,10,10.5,10,10.5l6-0.5
		l-13.6-19.4c-14.1,0-21,6.5-27.1,18.2c-5,9.7-12.7,12.7-12.7,12.7l-4.7,12.7c14.7-2.2,22-13.9,22.1-14.1l0.3-0.4l0.4,0.3
		c14.3,11.8,31.2,12.8,37.6,12.7L114.9,74.2z M99.1,67.1c0,0,8.9-0.8,9.9-0.8c1.4,0.1,3.4,0.6,4,2c0,0-1.2-0.8-3.6-0.7
		c-1.9,0.1-9.7,0.7-9.7,0.7L99.1,67.1z M124.1,101.4l-10.8-24.3c0,0,0.6-0.2,1.3-0.9l11.2,25.4C125.8,101.5,124.9,101.5,124.1,101.4
		z"/>
	<linearGradient id="SVGID_2_" gradientUnits="userSpaceOnUse" x1="75.4857" y1="67.2122" x2="102.1077" y2="57.3062">
		<stop  offset="0.15" style="stop-color:#3A225D"/>
		<stop  offset="0.236" style="stop-color:#76658E"/>
		<stop  offset="0.3287" style="stop-color:#B0A7BE"/>
		<stop  offset="0.4068" style="stop-color:#DBD6E1"/>
		<stop  offset="0.4662" style="stop-color:#F5F4F7"/>
		<stop  offset="0.5" style="stop-color:#FFFFFF"/>
		<stop  offset="0.5418" style="stop-color:#FBFAFC"/>
		<stop  offset="0.5887" style="stop-color:#EFEDF2"/>
		<stop  offset="0.6381" style="stop-color:#DBD6E1"/>
		<stop  offset="0.6892" style="stop-color:#BFB7CA"/>
		<stop  offset="0.7417" style="stop-color:#9B8EAC"/>
		<stop  offset="0.7953" style="stop-color:#6E5D88"/>
		<stop  offset="0.8489" style="stop-color:#3B235E"/>
		<stop  offset="0.85" style="stop-color:#3A225D"/>
	</linearGradient>
	<path class="st2" d="M89.5,52.1c-3.9,0.6-8.2,2.1-12.2,5.2l7.3,17.1c3.1-5.5,6.5-8.8,9.7-11L89.5,52.1z"/>
	<linearGradient id="SVGID_3_" gradientUnits="userSpaceOnUse" x1="83.8677" y1="89.7409" x2="110.4915" y2="79.8342">
		<stop  offset="0.15" style="stop-color:#3A225D"/>
		<stop  offset="0.236" style="stop-color:#76658E"/>
		<stop  offset="0.3287" style="stop-color:#B0A7BE"/>
		<stop  offset="0.4068" style="stop-color:#DBD6E1"/>
		<stop  offset="0.4662" style="stop-color:#F5F4F7"/>
		<stop  offset="0.5" style="stop-color:#FFFFFF"/>
		<stop  offset="0.5418" style="stop-color:#FBFAFC"/>
		<stop  offset="0.5887" style="stop-color:#EFEDF2"/>
		<stop  offset="0.6381" style="stop-color:#DBD6E1"/>
		<stop  offset="0.6892" style="stop-color:#BFB7CA"/>
		<stop  offset="0.7417" style="stop-color:#9B8EAC"/>
		<stop  offset="0.7953" style="stop-color:#6E5D88"/>
		<stop  offset="0.8489" style="stop-color:#3B235E"/>
		<stop  offset="0.85" style="stop-color:#3A225D"/>
	</linearGradient>
	<path class="st3" d="M91.9,91.5c6,4.5,12.4,7.2,18.1,8.8l-14.9-35c-3.8,2.7-6.7,6.6-9.5,11.5L91.9,91.5z"/>
	<linearGradient id="SVGID_4_" gradientUnits="userSpaceOnUse" x1="89.4401" y1="104.7156" x2="116.0639" y2="94.809">
		<stop  offset="0.15" style="stop-color:#3A225D"/>
		<stop  offset="0.236" style="stop-color:#76658E"/>
		<stop  offset="0.3287" style="stop-color:#B0A7BE"/>
		<stop  offset="0.4068" style="stop-color:#DBD6E1"/>
		<stop  offset="0.4662" style="stop-color:#F5F4F7"/>
		<stop  offset="0.5" style="stop-color:#FFFFFF"/>
		<stop  offset="0.5418" style="stop-color:#FBFAFC"/>
		<stop  offset="0.5887" style="stop-color:#EFEDF2"/>
		<stop  offset="0.6381" style="stop-color:#DBD6E1"/>
		<stop  offset="0.6892" style="stop-color:#BFB7CA"/>
		<stop  offset="0.7417" style="stop-color:#9B8EAC"/>
		<stop  offset="0.7953" style="stop-color:#6E5D88"/>
		<stop  offset="0.8489" style="stop-color:#3B235E"/>
		<stop  offset="0.85" style="stop-color:#3A225D"/>
	</linearGradient>
	<path class="st4" d="M94.9,98.5c5.8,3.5,11.8,5.5,17.2,6.7l-1.2-2.8c-5.6-1.5-11.8-3.9-17.8-8L94.9,98.5z"/>
	<linearGradient id="SVGID_5_" gradientUnits="userSpaceOnUse" x1="40.1376" y1="153.4627" x2="156.4215" y2="104.1031">
		<stop  offset="6.748470e-02" style="stop-color:#F2BF27"/>
		<stop  offset="0.1095" style="stop-color:#F2C02A"/>
		<stop  offset="0.1463" style="stop-color:#F3C535"/>
		<stop  offset="0.181" style="stop-color:#F5CD47"/>
		<stop  offset="0.2145" style="stop-color:#F8D760"/>
		<stop  offset="0.2472" style="stop-color:#FBE581"/>
		<stop  offset="0.2787" style="stop-color:#FFF6A8"/>
		<stop  offset="0.2822" style="stop-color:#FFF8AD"/>
		<stop  offset="0.3597" style="stop-color:#FAE27A"/>
		<stop  offset="0.4379" style="stop-color:#F6CF4D"/>
		<stop  offset="0.4985" style="stop-color:#F3C331"/>
		<stop  offset="0.5337" style="stop-color:#F2BF27"/>
		<stop  offset="0.7669" style="stop-color:#FFF8AD"/>
		<stop  offset="1" style="stop-color:#F2BF27"/>
	</linearGradient>
	<path class="st5" d="M40,129l1.3,4l-2.9,0.9l-1.1-3.2l-2.9,0.9l1.1,3.2l-2.9,0.9l-2.6-8l2.9-0.9L34,130l0.4-0.1l1.6-4.1l3.1-1
		l-1.7,4.1l1-0.3C39.1,128.4,39.9,128.5,40,129 M61.3,127.2c0.1,0.5-0.5,1-1.3,1.1l-6,1.3c-0.8,0.2-1.6,0-1.7-0.5l-1.4-6.6
		c-0.1-0.5,0.5-1,1.3-1.2l6-1.3c0.8-0.2,1.6,0,1.7,0.5L61.3,127.2z M58.2,127.1l-1.1-5l-3,0.6l1.1,5L58.2,127.1z M78.7,122.1
		l0.2,1.7l-3,0.4l-0.8-6.8l-3,0.4l1,8.4l9.1-1.1l-0.4-3.6L78.7,122.1z M99.1,115.6l-2.6,3.5l-0.4,0l-0.1-3.4l-3,0.1l0.3,8.5l3-0.1
		l-0.1-3.4l3-0.1l0.1,3.4l3-0.1l-0.1-4.2c0-0.5-0.7-0.8-1.5-0.8l-1.1,0l2.8-3.5L99.1,115.6z M123.5,117l-0.4,7.6l-3-0.2l0.2-3.4
		l-3-0.2l-0.2,3.4l-3-0.2l0.4-7.6c0-0.5,0.7-0.8,1.6-0.8l6.1,0.3C122.9,116.1,123.5,116.5,123.5,117 M120.4,117.6l-3-0.2l-0.1,1.7
		l3,0.2L120.4,117.6z M135.1,118.9l3,0.4l-1,6.7l3,0.4l1-6.7l3,0.4l0.2-1.6l-9-1.3L135.1,118.9z M164.7,124l-1.9,7.4l-2.9-0.8
		l0.9-3.3l-3-0.8l-0.8,3.3l-2.9-0.8l1.9-7.4c0.1-0.5,0.9-0.7,1.7-0.4l5.9,1.5C164.3,123,164.9,123.5,164.7,124 M161.6,124l-2.9-0.8
		l-0.4,1.7l3,0.8L161.6,124z"/>
	<linearGradient id="SVGID_6_" gradientUnits="userSpaceOnUse" x1="66.6049" y1="155.833" x2="152.7823" y2="119.2529">
		<stop  offset="6.748470e-02" style="stop-color:#F2BF27"/>
		<stop  offset="9.632584e-02" style="stop-color:#F2C02A"/>
		<stop  offset="0.1215" style="stop-color:#F3C535"/>
		<stop  offset="0.1453" style="stop-color:#F5CD47"/>
		<stop  offset="0.1683" style="stop-color:#F8D760"/>
		<stop  offset="0.1907" style="stop-color:#FBE581"/>
		<stop  offset="0.2123" style="stop-color:#FFF6A8"/>
		<stop  offset="0.2147" style="stop-color:#FFF8AD"/>
		<stop  offset="0.2771" style="stop-color:#FAE27A"/>
		<stop  offset="0.34" style="stop-color:#F6CF4D"/>
		<stop  offset="0.3888" style="stop-color:#F3C331"/>
		<stop  offset="0.4172" style="stop-color:#F2BF27"/>
		<stop  offset="0.5828" style="stop-color:#FFF8AD"/>
		<stop  offset="0.9202" style="stop-color:#F2BF27"/>
	</linearGradient>
	<path class="st6" d="M160.8,138.1c-17.8-6.7-38.8-9.5-61.8-8.6c-14,0.5-27.7,2.2-39.8,5.6l-0.4,2.3c12.4-2.9,25.8-4.9,40.1-5.2
		c24.4-0.6,43.9,2.6,61.5,7.7L160.8,138.1z"/>
	<linearGradient id="SVGID_7_" gradientUnits="userSpaceOnUse" x1="1.5426" y1="283.6474" x2="145.8418" y2="222.396">
		<stop  offset="6.748470e-02" style="stop-color:#F2BF27"/>
		<stop  offset="0.1095" style="stop-color:#F2C02A"/>
		<stop  offset="0.1463" style="stop-color:#F3C535"/>
		<stop  offset="0.181" style="stop-color:#F5CD47"/>
		<stop  offset="0.2145" style="stop-color:#F8D760"/>
		<stop  offset="0.2472" style="stop-color:#FBE581"/>
		<stop  offset="0.2787" style="stop-color:#FFF6A8"/>
		<stop  offset="0.2822" style="stop-color:#FFF8AD"/>
		<stop  offset="0.4335" style="stop-color:#FAE27A"/>
		<stop  offset="0.586" style="stop-color:#F6CF4D"/>
		<stop  offset="0.7043" style="stop-color:#F3C331"/>
		<stop  offset="0.773" style="stop-color:#F2BF27"/>
		<stop  offset="1" style="stop-color:#FFF8AD"/>
	</linearGradient>
	<path class="st7" d="M45.9,273.7c0,0-0.3-11.3,0.4-13.1c0.7-1.8,25-18.4,59.5-28.7c34.5-10.3,58-9.2,58-9.2s-41,2.1-79.8,24
		C61.9,259.3,45.9,273.7,45.9,273.7"/>
	<linearGradient id="SVGID_8_" gradientUnits="userSpaceOnUse" x1="63.3124" y1="280.8752" x2="175.3936" y2="233.2995">
		<stop  offset="6.748470e-02" style="stop-color:#F2BF27"/>
		<stop  offset="0.1095" style="stop-color:#F2C02A"/>
		<stop  offset="0.1463" style="stop-color:#F3C535"/>
		<stop  offset="0.181" style="stop-color:#F5CD47"/>
		<stop  offset="0.2145" style="stop-color:#F8D760"/>
		<stop  offset="0.2472" style="stop-color:#FBE581"/>
		<stop  offset="0.2787" style="stop-color:#FFF6A8"/>
		<stop  offset="0.2822" style="stop-color:#FFF8AD"/>
		<stop  offset="0.3597" style="stop-color:#FAE27A"/>
		<stop  offset="0.4379" style="stop-color:#F6CF4D"/>
		<stop  offset="0.4985" style="stop-color:#F3C331"/>
		<stop  offset="0.5337" style="stop-color:#F2BF27"/>
		<stop  offset="0.7669" style="stop-color:#FFF8AD"/>
		<stop  offset="1" style="stop-color:#F2BF27"/>
	</linearGradient>
	<path class="st8" d="M103.1,264.3c0,5.8-0.6,18.7-0.6,18.7s-7.4-5.2-12.2-10.2c-4.1-4.2-8.3-10.4-8.3-10.4s3.6-3.8,9.1-7.8
		c6-4.3,11.9-7.1,11.9-7.1S103.2,257.4,103.1,264.3 M148.6,229.6c0,0-12.3-0.5-39.6,10.3c-27.3,10.7-37.5,21.8-37.5,21.8
		s7,8,14.7,14.1c7.6,6.1,16.7,10.1,16.7,10.1s3.9-2.7,10.1-8.3c-0.4-0.3-0.9-0.5-1.4-0.8c-3.6-2-7-2.6-7-2.6s8.3-2.1,14.2-2.1
		l0.1-0.1c-0.6-0.3-1.1-0.5-1.8-0.8c-7.9-3.2-12.4-4.2-12.4-4.2s14.7-3.6,22.2-3.6c-4.3-1.1-5-1.1-7.7-1.6c-7-1.3-11.6-2.3-11.6-2.3
		s12.3-2.2,27-3.4c-2.1-0.7-5-1-8.6-1.5c-8.3-1-15.3-2.2-15.3-2.2s6.9-1.4,16.6-2.8c6-0.8,10.3-1.3,13.3-1.6c-2.2-0.5-5.2-1-8.4-1.4
		c-7-0.7-7-0.8-18.1-0.8c0,0,13.8-5.9,31.1-6l0,0c-2.1-0.6-7.8-1.6-14.4-1.5c-4.5,0.1-12,0.4-12,0.4S135.1,232,148.6,229.6z"/>
	<linearGradient id="SVGID_9_" gradientUnits="userSpaceOnUse" x1="16.52" y1="215.6021" x2="181.6372" y2="145.514">
		<stop  offset="6.748470e-02" style="stop-color:#F2BF27"/>
		<stop  offset="0.1095" style="stop-color:#F2C02A"/>
		<stop  offset="0.1463" style="stop-color:#F3C535"/>
		<stop  offset="0.181" style="stop-color:#F5CD47"/>
		<stop  offset="0.2145" style="stop-color:#F8D760"/>
		<stop  offset="0.2472" style="stop-color:#FBE581"/>
		<stop  offset="0.2787" style="stop-color:#FFF6A8"/>
		<stop  offset="0.2822" style="stop-color:#FFF8AD"/>
		<stop  offset="0.3692" style="stop-color:#FAE27A"/>
		<stop  offset="0.4569" style="stop-color:#F6CF4D"/>
		<stop  offset="0.5249" style="stop-color:#F3C331"/>
		<stop  offset="0.5644" style="stop-color:#F2BF27"/>
		<stop  offset="0.6994" style="stop-color:#FFF8AD"/>
		<stop  offset="0.9018" style="stop-color:#F2BF27"/>
	</linearGradient>
	<path class="st9" d="M78.4,159.1l-0.9,3.7c1.3-0.8,5.2-2.6,8.7-3.9c2.1-0.7,4.6,0.4,4,3.2l-4,18.9c-2.8,1-7.6,2.9-9.9,4l4.4-19.1
		c-1.8,0.6-3.4,1.3-4.4,1.8l-3.6,15.5c-1-1.2-5.7-8.4-6.7-10.6c1.5-7.7,0.3-6.9,0.3-6.9l0.4-1.6C69.8,163.3,75.7,160.7,78.4,159.1
		 M55.6,164.7c7.9-1.7,37.4-9.5,32.7-28.6c-6.2,0.5-12.1,1.2-17.9,2.2c1.9,1.2,3.6,4.2,1.2,9.8c-4.5,10.5-19.8,11.7-22.8,11.9
		l4.7-23.6c-5.6,1.7-17.9,6.1-24.7,10c-8.3,4.8-12.9,10.9-9.7,15.8c2.6,4,7.5,3.6,9.2,3.3l1.7-8.2c-0.6-0.1-1.9-0.6-1.5-2.4
		c0.7-3,6.6-6.2,12.5-8.8l-7.9,42.1c3.7-1.7,8.1-3.3,11.7-4.2l2.2-13.5c6.7,1.7,11.3,31.9,44.2,26.3
		C67.1,194.4,65.1,171.3,55.6,164.7z M105,154.3l1.3-5.5c1.4-5.2-6.3-2.5-9.1-0.5l-1.9,8C97.5,155.1,103.4,152.7,105,154.3
		 M92.4,162.2c0,0,0.8,2.5-0.3,7.3l-3.4,16.3c2.6-2.1,7.2-4.1,10.2-5.2l4.6-19.9c0.7-2.8-1.8-3.8-3.6-3.4c-2.5,0.6-5.9,2.5-7,3.2
		L92.4,162.2L92.4,162.2z M142.2,157.2l3.3-14c0.7-2.8-2.2-3.9-3.5-3.4c-0.2,0.1-0.3,0.1-0.5,0.2c-3,1.2-5.6,2.7-6.7,3.4l-0.4,1.7v0
		c0,0,0.8,2.5-0.3,7.3l-8.6,36.7l10-3.4l5.3-22.9c1.2-0.5,2.7-1.1,4.4-1.7l-5.4,23.1l9.4-3.3l5.4-23.3c0.7-2.8-2.1-3.8-3.8-3.4
		C149.4,154.5,146.5,155.4,142.2,157.2z M142.2,157.2l3.3-14c0.7-2.8-2.2-3.9-3.5-3.4c-0.2,0.1-0.3,0.1-0.5,0.2
		c-3,1.2-5.6,2.7-6.7,3.4l-0.4,1.7v0c0,0,0.8,2.5-0.3,7.3l-8.6,36.7l10-3.4l5.3-22.9c1.2-0.5,2.7-1.1,4.4-1.7l-5.4,23.1l9.4-3.3
		l5.4-23.3c0.7-2.8-2.1-3.8-3.8-3.4C149.4,154.5,146.5,155.4,142.2,157.2z M74.1,199.7c-1.9-0.3-3.8-0.6-5.5-1l-1.9,8
		c5.8-3.3,8.9-2.6,9.5-1.2l0.7-3C77.3,201.3,76.7,200.1,74.1,199.7z M63.8,213.4c0,0,1.1,0.5-0.3,7.3l-1.3,5.7
		c1.2,0.8,6.2,3.3,8.4,3.8l4.5-19.4c0.6-2.6-2-4-4.1-3.1c-3.7,1.6-5.1,2.9-6.7,3.9L63.8,213.4 M152.9,200.1l0.7-3.1l0.4-1.6l0.7-3.2
		c1.2-5.2-1.9-7.4-5.4-6c-2.7,1.1-5.7,4.3-7.2,6.1l0.9-3.6c-3.9,1.5-7.8,2.8-11.6,4l-0.4,1.7l0,0l0,0c0,0,1,0.9-0.3,7.3l-4.1,17.6
		c3.1-0.7,7.7-1.7,9.7-2.1l4.6-19.6c1.1-1,2.8-2.4,4.8-3.8l-2,8.4C145.6,201.6,149.7,200.7,152.9,200.1z M24,233.3
		c1,1.7,1,1.7,1.9,2.9l6-32.6c-0.8,0.6-2,1.3-2.8,2L24,233.3z M69.9,241.7c-19.4,1.5-24.4-12.2-29.4-12.2l-0.4,2.1
		C44.7,231.8,51.7,245.6,69.9,241.7z M153.3,179.3c1.7-0.5,3,0.6,3.5,1.2c6-3.2,13.8-8.8,18.6-12.6c-4.2,1.5-9.2,2.5-10.7,2.7
		l3.8-16.1c1.5-0.2,3.9-0.3,6.6-0.4c4.6-0.3,5.2-1.9,6.5-8.8c-4,0.4-7.9,1.5-11.5,2.4l0.7-3.1c0.7-2.8-1.5-4.1-3.5-3.5
		c-2.4,0.7-6.3,2.8-7.6,3.6l-0.4,1.6l0,0c0,0,1.1,0.6,0.3,4.6c-0.6,0.2-1,0.6-2.1,1.1l-1.3,5.8c1.1-0.4,1.8-0.7,2.5-0.9
		C157.8,160.5,154.3,175.1,153.3,179.3z M128.3,198.7l-2.7,11.6c-2.8-0.7-9.4-0.2-12.8,1l-1.3,5.8c6.1-2.1,12.6-3.5,13.9-3.4
		l-3.6,6.7c-2.5,0.6-15.4,4.5-17.7,5.2c-0.5-0.9-1.3-2.2-3.3-2.2l3.6-14.7c1.1-4.8,0.2-7.1,0.2-7.1l0.4-1.8c4.4-0.3,10.9-2.8,18-4.8
		C128,193.8,129,195.7,128.3,198.7z M119.6,200.4c-1.4,0.3-3.9,1.3-4.6,1.5l-1.2,5.2c1.2-0.5,3-1.1,4.6-1.5L119.6,200.4z
		 M177.9,188.8c-2.1,0.1-6.2,2.1-8.4,3.9c1.9,1.9,3.4,4.4,5.1,8c-1.9,5.1-6.5,13.2-8.3,15.8c-8.4-2.3-21.7-0.5-24.8,0l2.1-9.1
		c0.8-0.2,4-1.3,7.2-1.4c0.8-0.9,6.8-7,7.9-8.2l-1.8-1.6l1.4-6.3c0.8-3.7-0.9-4.8-0.9-4.8l0.2-1.7c5.4-2.7,17-10.3,22.2-15.5
		C182.1,173.6,181,181.9,177.9,188.8z M161.5,199.7c-3.4,3.4-4.7,4.8-6,6.3c4.7-0.2,8.5,2.7,9.5,1.1
		C166.3,204.7,162.5,200.8,161.5,199.7z M172.3,181.2c-1.8,1.5-2.4,1.9-3.6,2.7l-1.4,6.1c2.7-1.8,5.4-3.4,6.8-3.8
		C174.7,184,173.3,181.5,172.3,181.2z M48.8,220.5c14.8-3,15.3-15.4,16.6-21c-2.9-0.9-5.2-2.1-7-3.4c-5.2-4-8.1-7.2-10-10.3
		c-5.4,1.7-16.6,6-23.3,9.8c-8.2,4.7-12.6,10.7-9.5,15.5c2.6,4,7.4,3.5,9,3.2l1.6-8c-0.6-0.1-1.9-0.6-1.5-2.3
		c0.7-2.9,10.3-9,18.3-11.5c1.7,2.7,4.8,6.6,8,9.2c0.9,0.8,2,1.5,3.1,2.2c-0.6,2.7-1.3,5.2-2.5,7.3c-2,3.7-5.3,7.3-10.6,7.8
		l4.1-21.8c-3.7,1.6-7.2,3.3-10.4,5.2L27.9,238c2.9,3.6,5.2,5.8,8.2,7.3l3.4-19.3c7.7,0.6,13.4,17.6,38.2,13
		c5.9-1.1,11.3-4.8,15.7-8.6c-2.2,1.1-5.5,2.2-10.7,3C61.3,237.2,52.9,220.4,48.8,220.5z M26.9,191.2c1-0.5,2.1-1,3.1-1.5l7.2-38.2
		c-1.1,0.7-2.2,1.5-3.3,2.3L26.9,191.2z M51.3,157.4c15.7-1.7,22-11.9,17.6-17.3c2.3,2.9-1.5,12.9-17.2,15.3L51.3,157.4z M70.8,197
		c-14.4-4.6-18.6-18.9-23.1-23.2l-0.5,2.8C50.4,179.4,55.8,194.1,70.8,197z M46.1,199.8c0.6,2.4,3.1,5.4,3.6,6
		c-0.8,5.6-3.7,8.6-6.9,10.5l-0.3,1.6c4.2-1.5,7-4.9,8.3-9.1c0.3-1,0.6-2.1,0.9-3.2C49.9,203.9,47.3,201.3,46.1,199.8z M129.9,156.1
		l-6.9,29.1c-3.2,1.9-4.1,5.5-4.3,6.4c-21.2,6.6-34.4,1.6-41.1-3.9c1.9-1.1,5.1-2.5,7.9-3.4l-0.8,3.7c4.4,2.2,20.4,3.5,29.8-3.7
		l1.6-6c-2.6,0.7-5.7,1.7-6.7,2.1c-1.1-1.6-3.3-1.9-6.8-0.7l2.4-10.3c1.1-4.8,0.3-7.3,0.3-7.3l0.4-1.7c10.6-6,17.5-7.6,20.4-8
		C128.1,152,130.7,153,129.9,156.1z M120.7,158.7c-1.7,0.5-3.2,1.1-4.4,1.7l-3.3,14.1c1.3-0.4,3.3-1,4.3-1.2L120.7,158.7z
		 M106.4,186.4l-9,38.4c-1.2,0.6-2.8,2.6-3.6,4.2c-2.7,0.6-7.2,1.9-9.2,2.7c-1.5-1.7-6.8-5.4-9.8-6l2.4-10.2
		c1.4-6.5,0.3-7.4,0.3-7.4l0.4-1.8c3.2-1.6,8.9-3.8,11.3-4.1c0.9,0.7,1.9,1.6,3,2.7l2.1-9.4c1.5-6.5,0.3-7.3,0.3-7.3v0l0.4-1.9
		c2.4-1.3,5.2-2.5,7.9-3.3C104.2,182.7,107,183.6,106.4,186.4z M91.2,210.2c-1.2-1.2-2.6-2.5-3.6-3.2l-3.5,14.6
		c0.4,0.2,3,1.3,3.9,1.8L91.2,210.2z"/>
	<path class="st10" d="M49.7,40.1c3.5-1.1,7.2-1.9,10.9-2.1c3.7-0.3,7.5-0.1,11.1,0.6c3.7,0.7,7.7,1.6,11.1,3.2
		c-3.3-1.8-6.9-3.1-10.6-3.9c-3.7-0.8-7.5-1.1-11.3-0.9c-3.8,0.2-7.5,1-11.1,2.1c-3.6,1.1-7.1,2.7-10.3,4.7l-0.7,0.5l0.9,0.1
		c2.6,0.4,5.2,1,7.7,1.7c2.5,0.7,5,1.5,7.5,2.5c2.4,1,6.1,2.9,6.1,2.9s-1.9-1.5-5.9-3.4c-2.4-1.1-4.9-1.9-7.5-2.6
		c-2.3-0.6-4.6-1.1-6.9-1.6c1.2-0.7,2.3-1.3,3.7-1.9C46.2,41.4,47.9,40.7,49.7,40.1z"/>
	<path class="st10" d="M28.7,18.9c2.7,0.4,5.4,1.5,7.7,2.9c1.2,0.7,2.3,1.5,3.3,2.3c0.5,0.4,1,0.9,1.5,1.4c0.5,0.5,1,0.9,1.5,1.3
		c1,0.9,2,1.7,3.2,2.4c1.1,0.7,2.3,1.2,3.6,1.6c1.3,0.4,2.6,0.7,3.9,1c1.3,0.3,2.5,0.4,3.9,0.6c-1.3-0.1-2.7-0.2-4-0.4
		c-1.3-0.2-2.7-0.4-4-0.8c-1.3-0.4-2.6-0.9-3.8-1.6c-1.1-0.6-2.2-1.4-3.3-2.4c-0.5-0.4-1-0.9-1.5-1.4c-0.5-0.5-1-0.9-1.4-1.4
		c-1-0.9-2.1-1.7-3.2-2.4c-1.1-0.7-2.3-1.3-3.5-1.9C31.2,19.7,30,19.2,28.7,18.9"/>
	<path class="st10" d="M80.2,33.8c1.8,0.1,3.5,0.6,5.2,1.2c1.7,0.6,3.3,1.4,4.8,2.3c1.5,0.9,2.9,2.1,4.2,3.3
		c1.3,1.2,2.4,2.6,3.4,4.1c-1.2-1.3-2.4-2.6-3.8-3.7c-1.3-1.1-2.7-2.2-4.2-3.1c-1.5-0.9-3-1.7-4.7-2.4
		C83.6,34.8,81.9,34.2,80.2,33.8"/>
	<path class="st10" d="M72.2,15.4c3.6,0.1,7.2,0.8,10.6,1.9c3.4,1.1,6.7,2.8,9.5,5.2c1.4,1.2,2.7,2.5,3.8,3.9c1.1,1.5,2,3,2.7,4.7
		c0.7,1.7,1.2,3.4,1.5,5.2c0.3,1.8,0.5,3.6,0.4,5.4c-0.1-1.8-0.6-3-1-4.8c-0.4-1.7-1-3.4-1.7-5.1c-1.5-3.2-3.7-6.1-6.5-8.3
		c-2.7-2.3-5.9-3.9-9.2-5.2c-1.7-0.6-3.4-1.1-5.1-1.5C75.6,16.4,74.1,16.1,72.2,15.4"/>
	<path class="st10" d="M78.7,23.6c0.1,1.3-0.6,2.8-1.6,3.7c-1,0.9-2.3,1.3-3.6,1.5c-1.3,0.1-2.6,0-3.8-0.3c-1.2-0.3-2.4-0.8-3.6-1.4
		c-2.3-1.2-4.3-2.8-6-4.6c-1.8-1.8-3.1-4.1-4.3-6.3c1.5,2,3.1,3.9,4.9,5.7c1.8,1.7,3.8,3.2,6,4.4c1.1,0.6,2.2,1.1,3.4,1.4
		c1.2,0.3,2.4,0.5,3.6,0.4c1.2-0.1,2.4-0.4,3.4-1.2C78.1,26.1,78.6,24.9,78.7,23.6"/>
	<path class="st10" d="M32.9,27.9c3.7,0.2,5.8,2.5,7.2,4.3c2.3,3,6.1,3.3,7.5,3.1c-3.2,0.4-6.3-0.1-7.8-2C38,30.8,36.3,29,32.9,27.9
		"/>
	<path class="st10" d="M30.4,39c3.8,0.5,5.7-2,6-2.5c-0.1,0.6-0.6,1.7-1.1,2.2c-0.7,0.8-1.5,1.1-2.9,1C31.6,39.6,31,39.3,30.4,39"/>
	<path class="st10" d="M54.2,53.1c1.1,0.4,2.1,0.9,3.1,1.5c1,0.6,1.9,1.2,2.9,1.8c0.9,0.7,1.8,1.4,2.6,2.2c0.8,0.8,1.6,1.7,2.1,2.7
		c-0.8-0.8-1.6-1.5-2.5-2.2c-0.9-0.7-1.8-1.4-2.7-2C57.9,55.7,56,54.4,54.2,53.1"/>
	<path class="st10" d="M48.1,62.3c0.8,0.9,1.8,1.6,2.9,2.1c1.1,0.5,2.2,0.6,3.4,0.5c1.1-0.1,2.1-0.7,2.7-1.6c0.6-1,0.9-2.2,0.9-3.4
		c0.2,1.2,0.1,2.5-0.4,3.7c-0.3,0.6-0.7,1.1-1.3,1.5c-0.6,0.4-1.2,0.6-1.9,0.6c-1.3,0.1-2.6-0.1-3.7-0.7
		C49.6,64.3,48.7,63.4,48.1,62.3"/>
	<path class="st1" d="M75.3,263.2c18.7-16.4,41.7-25.3,41.7-25.3c-29.7,10-43.4,23.6-43.4,23.6L75.3,263.2z"/>
	<g>
		<path class="st1" d="M148.3,179.9l5.2-22.3c0.1-0.6,0.1-1.1-0.2-1.5c-0.4-0.5-1.2-0.8-1.7-0.8h0c0.6,0.6,0.9,1.4,0.6,2.6
			l-5.2,22.4L148.3,179.9z"/>
		<path class="st1" d="M75.7,202.2c0.2-0.8-0.4-1-1.1-1.1l-0.5,2.1c0.7-0.1,1,0.1,1.2,0.3L75.7,202.2z"/>
		<path class="st1" d="M166.1,184.4l-1.4,6.3c0.5-0.2,0.9-0.6,1.4-0.8l1.5-6.3L166.1,184.4z"/>
		<g>
			<path class="st1" d="M24.7,207.2c-1.5-0.7-1.6-2.1-1.3-3.2c0.6-2.4,3.8-5.1,9.9-8c-5.4,2.4-10.4,5.1-11.2,8.2
				c-0.5,1.9,0.1,3.8,2.4,4.3L24.7,207.2z"/>
		</g>
		<path class="st1" d="M119.2,220c0.5-0.1,1.4-0.4,1.6-0.4c0.7-1.7,1.7-3.2,2.3-4.4c-0.4,0.1-0.7,0.1-1.2,0.2
			C121,216.7,120,218.4,119.2,220z"/>
		<path class="st1" d="M111.3,207.9c0.4-0.2,0.8-0.3,1.3-0.5l1.2-5.1c-0.4,0.1-0.8,0.2-1.3,0.3L111.3,207.9z"/>
		<path class="st1" d="M125.5,195.8c-0.2,0-0.3,0-0.3,0c0,0-0.1,0-0.1,0c0.7,0.5,1.2,1.4,0.9,2.6l-2.3,10.1c0.4,0,0.8,0.1,1.2,0.1
			l2.6-10.9c0.1-0.5,0.1-0.9-0.2-1.3C126.8,196.1,126,195.8,125.5,195.8z"/>
		<path class="st1" d="M139.7,162.6c-0.5,0.2-1,0.4-1.4,0.6l-5.1,21.8l1.4-0.5L139.7,162.6z"/>
		<path class="st1" d="M102.3,160.8c0.4-1.9-1.3-2.6-2-2.3c0.6,0.4,0.9,1.4,0.6,2.6l-4.3,18.6c0.4-0.2,0.9-0.3,1.4-0.4L102.3,160.8z
			"/>
		<path class="st1" d="M108.9,218.1c0.4-0.1,0.8-0.3,1.3-0.5l1.4-6.1c-0.4,0.1-0.9,0.2-1.3,0.3L108.9,218.1z"/>
		<path class="st1" d="M142.5,141.1C142.5,141.1,142.5,141.1,142.5,141.1c0.4,0.6,0.7,1.4,0.5,2.5l-3.3,14.1c0.5-0.2,1-0.4,1.4-0.6
			l3.3-13.6c0.1-0.6,0.1-1.1-0.3-1.5C143.6,141.3,142.9,141.1,142.5,141.1z"/>
		<path class="st1" d="M105.2,148.5c0.3-1.4-0.5-1.6-1-1.5l-1.3,5.6c0.5-0.1,1,0,1.3,0.1L105.2,148.5z"/>
		<path class="st1" d="M150.7,199.2c0.4-0.1,0.9-0.2,1.3-0.2l1.5-6.7c0.4-1.7,0.4-5.6-2.9-5.1c1.9,0.4,2.2,2.6,1.5,5.7l-0.7,3.2
			L150.7,199.2z"/>
		<path class="st1" d="M134.1,216.5c0.3-0.1,0.8-0.2,1.3-0.3l4.1-17.7c-0.7,0.6-1.3,1.1-1.7,1.5L134.1,216.5z"/>
		<path class="st1" d="M139.5,193.1c0.5-0.6,1.1-1.3,1.7-1.9l0.1-0.5c-0.4,0.2-0.9,0.3-1.3,0.5L139.5,193.1z"/>
		<path class="st1" d="M75.2,167.5c-0.5,0.2-1,0.5-1.4,0.7l-2.5,9.7c0.3,0.4,0.6,0.9,0.9,1.3L75.2,167.5z"/>
		<path class="st1" d="M52,138.2c-0.5,0.1-0.9,0.3-1.4,0.5l-4.3,21.7c0.4,0,0.8-0.1,1.3-0.1L52,138.2z"/>
		<path class="st1" d="M57.2,215.2c4.3-3.3,5.3-9.5,6.6-14.9c-0.3-0.1-0.9-0.3-1.2-0.5C61.4,205.1,60.1,212.3,57.2,215.2z"/>
		<path class="st1" d="M76.7,161.4c-0.5,0.2-1,0.4-1.4,0.6l-0.4,1.8c0.3-0.2,1-0.4,1.4-0.6L76.7,161.4z"/>
		<path class="st1" d="M60.2,198.7c-4.4-2.3-10.4-8.2-12.5-11.6c-0.3,0.1-0.9,0.3-1.2,0.4C48.3,190.4,54,196.4,60.2,198.7z"/>
		<g>
			<path class="st1" d="M28.5,158.3c-1.5-0.7-1.6-2.2-1.3-3.3c0.6-2.5,3.9-5.2,10.1-8.1c-5.5,2.5-10.6,5.2-11.5,8.4
				c-0.5,2,0.1,3.9,2.4,4.4L28.5,158.3z"/>
		</g>
		<path class="st1" d="M71.9,208.8c-0.2,0-0.4,0-0.5,0.1c0.8,0.6,1.4,1.6,1.1,2.8l-3.6,15.5c0.3,0.2,1.1,0.4,1.1,0.4l3.8-16.7
			c0.1-0.5,0-1-0.3-1.4C73.2,209.1,72.5,208.8,71.9,208.8z"/>
		<path class="st1" d="M34.4,242.4c0.3,0.3,0.7,0.5,0.9,0.7l3.1-17c-0.3,0-0.7,0-1,0.1L34.4,242.4z"/>
		<path class="st1" d="M44.4,169.8l-2.3,13.8c0.5-0.1,0.8-0.2,1.3-0.4l2.2-13.2C45.3,169.9,44.9,169.8,44.4,169.8z"/>
		<path class="st1" d="M38.6,219.8c0.4,0,0.7-0.1,1.1-0.1l3.9-20.7c-0.4,0.2-0.8,0.4-1.2,0.6L38.6,219.8z"/>
		<path class="st1" d="M88.9,162.6c0.3-1.8-0.5-3-1.9-2.7c0.6,0.6,0.9,1.4,0.6,2.6l-3.8,17.9c0.5-0.2,0.9-0.4,1.4-0.5L88.9,162.6z"
			/>
		<path class="st1" d="M162.1,171c0.4-0.1,0.8-0.1,1.3-0.2l3.8-16.1c-0.4,0.1-0.9,0.1-1.3,0.2L162.1,171z"/>
		<path class="st1" d="M169.3,144.6c0.5-2.3-1.4-2.6-1.9-2.4c0.6,0.2,0.8,1.5,0.6,2.6l-0.8,3.5c0.5-0.1,0.9-0.2,1.4-0.3L169.3,144.6
			z"/>
		<path class="st1" d="M76.5,154.5c6.4-3.9,10.9-9.3,9.8-17.1l-1.4,0.1C85.2,140.2,85.5,148,76.5,154.5z"/>
		<path class="st1" d="M45.8,221.9c4.5,1,13,15.8,27.7,13.4c-14.9,0.6-22.8-14-26.4-13.9L45.8,221.9z"/>
		<g>
			<path class="st1" d="M53.8,165.1l-2,0.2c6.3,2.6,14.1,27.2,29.3,30.4C65.8,190.2,60.5,169.7,53.8,165.1z"/>
		</g>
		<path class="st1" d="M162.8,208.8c-8.5-2.8-15.7-1.2-17.7-0.6l-0.4,1.3C147.6,208.6,153.8,207.2,162.8,208.8z"/>
		<path class="st1" d="M82.7,222.5c0.5,0.2,1.8,0.7,2.8,1.2l-0.1,0.8c-1-0.5-3.4-1.5-3.9-1.8l4-17.2c0.3,0.2,0.7,0.5,1,0.8
			L82.7,222.5"/>
		<path class="st1" d="M103.2,184.2c-0.1,0-0.2,0-0.3,0c0,0,0,0,0,0c0.7,0.6,1.2,1.5,0.9,2.8l-8.7,37.3c0.4-0.4,0.9-0.7,1.4-0.9
			l8.7-37c0.1-0.6,0.1-1.1-0.2-1.5C104.5,184.4,103.7,184.2,103.2,184.2z"/>
		<path class="st1" d="M111.8,174.9l3.3-14.1c-0.4,0.1-0.9,0.4-1.4,0.6l-3.3,14C110.8,175.3,111.3,175.1,111.8,174.9z"/>
		<path class="st1" d="M87.7,203.9c0.6,0.5,1.2,1.1,1.9,1.8l0.3-1.1c-0.4-0.3-0.7-0.7-1.1-1C88.4,203.6,88.1,203.7,87.7,203.9z"/>
		<path class="st1" d="M128.7,156.2c0.2-0.8,0.1-1.4-0.3-1.8c-0.4-0.6-1.2-0.8-1.8-0.8c0.6,0.6,1,1.6,0.7,2.9l-6.9,28.9
			c-2.5,1.3-3.7,4.3-4.1,5.8c0.4-0.1,0.8-0.2,1.2-0.2c0.4-1.5,1.5-4.3,4.2-6.2L128.7,156.2z"/>
		<g>
			<path class="st1" d="M166.1,214.6c2.1-3.3,5.6-9.5,7.2-14c-1.2-2.4-3.3-6-4.8-7.7l-1.1,0.8c1.3,1.4,3.6,5.1,4.6,7.2
				C170.5,205.2,167.4,212.3,166.1,214.6z"/>
		</g>
		<path class="st1" d="M177.9,186.7c1.1-2.8,3.2-11.6,1.6-15.9l-1.3,1.2C179.2,173.1,179.4,181.2,177.9,186.7z"/>
		<path class="st1" d="M178.7,147.2l-1.3,4.8c0.4,0,1.5-0.5,2-2.5l0.6-2.6C179.6,147,178.9,147.1,178.7,147.2z"/>
	</g>
</g>
<g>
	<path class="st10" d="M64.1,277.8c2.9,0,5.2,2.4,5.2,5.3c0,3-2.3,5.3-5.2,5.3c-2.9,0-5.2-2.3-5.2-5.3
		C58.9,280.1,61.2,277.8,64.1,277.8L64.1,277.8z M64.1,278.6c-2.3,0-4.2,2-4.2,4.5c0,2.5,1.9,4.5,4.3,4.5c2.4,0,4.2-2,4.2-4.5
		S66.5,278.6,64.1,278.6L64.1,278.6z M63.1,286.1h-0.9v-5.9c0.5-0.1,1-0.1,1.7-0.1c0.9,0,1.5,0.2,1.8,0.4c0.4,0.3,0.5,0.7,0.5,1.2
		c0,0.8-0.5,1.2-1.2,1.4v0c0.5,0.1,0.9,0.6,1,1.4c0.1,0.9,0.3,1.3,0.4,1.5h-1c-0.1-0.2-0.3-0.7-0.4-1.5c-0.1-0.8-0.5-1-1.3-1h-0.7
		V286.1z M63.1,282.9h0.7c0.8,0,1.4-0.3,1.4-1c0-0.5-0.4-1-1.4-1c-0.3,0-0.5,0-0.7,0V282.9z"/>
</g>
</svg>
