<svg width="392" height="200" xmlns="http://www.w3.org/2000/svg" xmlns:xlink="http://www.w3.org/1999/xlink"><defs><path id="a" d="M.01.209h80.677v97.568H.01z"/><path id="c" d="M.002.17h89.436v96.585H.002z"/></defs><g fill="none" fill-rule="evenodd"><path d="M150.434 35.148c-.395 3.405-.66 6.789-.794 10.15a254.265 254.265 0 00-.206 10.21c0 3.4.06 6.789.173 10.15.125 3.362.395 6.746.827 10.151h-12.808c.47-3.362.752-6.74.849-10.124.097-3.383.15-6.777.15-10.177 0-3.443-.058-6.848-.177-10.21a112.49 112.49 0 00-.822-10.15h12.808zm15.629 0a303.213 303.213 0 0010.722 11.97 479.926 479.926 0 0011.251 11.499 325.12 325.12 0 00-.437-11.764 160.7 160.7 0 00-1.086-11.705h7.813a263.522 263.522 0 00-.794 9.066 135.39 135.39 0 00-.324 9.238c0 3.756.032 7.485.092 11.181.059 3.691.124 7.42.205 11.176h-5.874a839.862 839.862 0 00-11.786-12.908 425.278 425.278 0 00-12.133-12.497 58.847 58.847 0 00-.173 4.575c0 3.519.087 7.01.266 10.474a95.616 95.616 0 001.086 10.356h-7.642c.433-3.637.714-7.247.854-10.825.135-3.583.205-7.204.205-10.884 0-3.205-.06-6.368-.178-9.476a367.67 367.67 0 00-.47-9.476h8.403zm46.947 20.653c0 1.878.006 3.837.027 5.866.022 2.034.092 3.993.205 5.866.039.744.12 1.37.239 1.883.118.507.313.907.589 1.198.27.297.653.502 1.145.615.487.119 1.124.178 1.908.178 2.194 0 4.053-.48 5.582-1.435a11.654 11.654 0 003.73-3.729c.961-1.522 1.674-3.232 2.145-5.132.47-1.894.724-3.782.767-5.66a22.377 22.377 0 00-.502-5.72c-.411-1.862-1.109-3.513-2.087-4.96-.978-1.446-2.264-2.611-3.847-3.491-1.59-.88-3.497-1.317-5.729-1.317h-4.172v15.838zm5.172-20.651c1.838 0 3.67.049 5.49.146 1.822.097 3.616.4 5.378.912 4.112 1.17 7.165 3.173 9.165 6.011 2 2.838 3 6.368 3 10.587 0 3.913-.698 7.334-2.087 10.27-1.394 2.935-3.286 5.38-5.668 7.333-2.395 1.959-5.205 3.432-8.437 4.43-3.23.998-6.668 1.495-10.31 1.495-2.076 0-4.308-.054-6.696-.173-2.394-.118-4.583-.49-6.582-1.117a84.46 84.46 0 00.616-8.564 441.701 441.701 0 00-.06-19.977 115.06 115.06 0 00-.853-11.353h17.044zm39.954-.002c-.395 3.405-.66 6.789-.795 10.15a254.265 254.265 0 00-.206 10.21c0 3.4.06 6.789.18 10.15.118 3.362.389 6.746.82 10.151h-12.807c.465-3.362.751-6.74.849-10.124.097-3.383.15-6.777.15-10.177 0-3.443-.059-6.848-.177-10.21a113.93 113.93 0 00-.822-10.15h12.808zm16.215 23.997h9.458l-4.93-12.32-4.528 12.32zm12.224-23.997a417.135 417.135 0 005.02 13.145 474.09 474.09 0 005.437 12.962c1.097 2.466 2.232 4.9 3.405 7.306 1.178 2.407 2.356 4.824 3.529 7.247h-13.63a118.166 118.166 0 00-2.356-5.838 218.834 218.834 0 01-2.404-5.78h-12.754a614.626 614.626 0 01-2.146 5.753 65.385 65.385 0 00-1.907 5.865h-8.106a535.156 535.156 0 0010.046-21.471 960.577 960.577 0 004.053-9.509 160.132 160.132 0 003.702-9.68h8.111zm28.495 0a298.982 298.982 0 0010.722 11.97 479.305 479.305 0 0011.251 11.499c-.081-3.95-.227-7.873-.437-11.764a165.886 165.886 0 00-1.087-11.705h7.815a237.661 237.661 0 00-.795 9.066 131.64 131.64 0 00-.324 9.238c0 3.756.027 7.485.086 11.181.06 3.691.13 7.42.206 11.176h-5.874a841.297 841.297 0 00-11.781-12.908 425.29 425.29 0 00-12.133-12.497 59.004 59.004 0 00-.172 4.575c0 3.519.086 7.01.26 10.474.177 3.46.54 6.913 1.09 10.356h-7.641c.433-3.637.714-7.247.848-10.825.141-3.583.206-7.204.206-10.884 0-3.205-.054-6.368-.173-9.476a429.822 429.822 0 00-.47-9.476h8.403zm-177.443 92.124c.432-3.4.702-6.783.821-10.15a289.358 289.358 0 000-20.36 111.78 111.78 0 00-.82-10.145h17.157c1.756 0 3.437.146 5.02.438 1.59.29 2.978.82 4.172 1.586 1.195.76 2.135 1.797 2.821 3.108.687 1.311 1.027 2.984 1.027 5.013 0 2.035-.351 3.837-1.054 5.402-.708 1.565-1.675 2.865-2.907 3.901-1.238 1.036-2.686 1.819-4.35 2.348-1.665.523-3.475.788-5.437.788-.47 0-.94-.017-1.41-.054-.47-.043-.94-.097-1.41-.179l-1.292-2.525c1.291-.075 2.35-.378 3.172-.907a5.557 5.557 0 001.907-2.023c.454-.82.757-1.76.914-2.817.156-1.057.232-2.131.232-3.227 0-2.31-.438-3.901-1.318-4.78-.881-.886-2.422-1.323-4.616-1.323-.389 0-.664.022-.82.06v20.068c0 2.655.08 5.299.237 7.916.151 2.623.41 5.245.762 7.862h-12.808zm47.651-19.593c.119 0 .318.01.616.027.292.021.497.032.616.032 1.172 0 2.172-.275 2.994-.825a6.103 6.103 0 001.972-2.11 9.815 9.815 0 001.06-2.903c.21-1.08.323-2.121.323-3.141 0-1.953-.47-3.567-1.41-4.84-.945-1.269-2.453-1.905-4.528-1.905h-1.643v15.665zm12.424 3.108a30.425 30.425 0 011.675 2.17c.551.782 1.06 1.548 1.53 2.287.47.745.843 1.333 1.118 1.76 1.135 1.726 2.259 3.432 3.378 5.137 1.113 1.7 2.242 3.41 3.377 5.132h-14.278a171.941 171.941 0 00-4.88-8.856c-.431-.744-.87-1.5-1.318-2.26a16.492 16.492 0 00-1.497-2.143 5.587 5.587 0 00-.648-.734c-.195-.172-.492-.28-.881-.323.08 2.427.162 4.824.264 7.187a79.78 79.78 0 00.617 7.129h-12.813c.432-3.4.707-6.783.826-10.15.114-3.363.179-6.746.179-10.15 0-3.438-.065-6.843-.179-10.21a111.792 111.792 0 00-.826-10.146h18.395c1.643 0 3.248.173 4.815.524 1.567.356 2.972.939 4.204 1.765a9.244 9.244 0 012.967 3.221c.746 1.333 1.114 2.979 1.114 4.932 0 3.286-.833 5.898-2.497 7.83-1.665 1.937-4.086 3.319-7.252 4.139.194.075.378.146.556.205.173.06.34.124.497.205.47.232.99.685 1.557 1.35zm41.397 16.485a162.03 162.03 0 00-8.695-.35c-2.903-.038-5.783-.06-8.642-.06h-2.702c-.859 0-1.74.038-2.642.12a40.63 40.63 0 01-2.113.172c-.708.043-1.411.08-2.119.118.433-3.4.708-6.783.822-10.15a289.364 289.364 0 000-20.36c-.114-3.361-.39-6.745-.822-10.145 1.216 0 2.41.027 3.583.087a70.49 70.49 0 003.583.086c2.902 0 5.771-.005 8.614-.027a466.09 466.09 0 008.604-.146v6.33a36.363 36.363 0 00-5.729-1.144 53.078 53.078 0 00-5.847-.318c-.157 0-.314.01-.47.027a3.384 3.384 0 01-.47.032v12.557c.2.038.35.054.47.054h.53c1.642 0 3.399-.075 5.257-.232 1.86-.156 3.616-.33 5.264-.529v5.985a154.7 154.7 0 00-4.939-.502 61.095 61.095 0 00-4.994-.2c-.275 0-.54.005-.794.027a9.58 9.58 0 01-.794.027v5.574c0 1.258.021 2.488.06 3.702a28.41 28.41 0 00.35 3.632c1.098.275 2.232.41 3.41.41 2 0 3.967-.135 5.907-.41 1.94-.27 3.864-.545 5.788-.82l-.47 6.453zm17.389-40.657c2 4.657 3.999 9.293 5.993 13.906a182 182 0 006.582 13.61 308.849 308.849 0 006.345-13.583c2-4.554 3.82-9.2 5.463-13.933h9.403c.314 6.848.838 13.642 1.584 20.387a301.546 301.546 0 002.94 20.268h-12.69c0-4.138-.14-8.25-.41-12.32-.276-4.068-.648-8.17-1.119-12.319a298.075 298.075 0 00-5.701 12.206 246.007 246.007 0 00-5.053 12.433h-7.636c-1.8-4.138-3.605-8.25-5.404-12.32a343.544 343.544 0 00-5.701-12.2c-.32 3.405-.562 6.767-.735 10.09a188.616 188.616 0 00-.265 10.092v2.228c0 .707.022 1.409.06 2.11h-7.637a107.79 107.79 0 001.703-9.179c.432-3.07.8-6.146 1.113-9.238a537.79 537.79 0 001.059-11.09c.314-3.674.47-7.392.47-11.148h9.636zm56.172 0c-.395 3.405-.66 6.789-.794 10.15a253.671 253.671 0 00-.206 10.21c0 3.4.06 6.783.173 10.15.119 3.362.395 6.746.827 10.145h-12.808c.47-3.361.752-6.734.849-10.117.097-3.384.15-6.778.15-10.178 0-3.442-.058-6.847-.177-10.21a113.806 113.806 0 00-.822-10.15h12.808zm33.844 40.657a162.004 162.004 0 00-8.7-.35c-2.897-.038-5.772-.06-8.636-.06h-2.702c-.86 0-1.74.038-2.643.12-.708.075-1.41.134-2.118.172-.703.043-1.406.08-2.113.118.432-3.4.707-6.783.821-10.15a289.369 289.369 0 000-20.36 110.094 110.094 0 00-.821-10.145c1.216 0 2.41.027 3.583.087 1.177.06 2.372.086 3.588.086 2.897 0 5.766-.005 8.608-.027a465.65 465.65 0 008.604-.146v6.33a36.23 36.23 0 00-5.729-1.144 53.062 53.062 0 00-5.841-.318c-.162 0-.314.01-.476.027a3.377 3.377 0 01-.47.032v12.557c.2.038.357.054.47.054h.53c1.648 0 3.399-.075 5.263-.232 1.86-.156 3.61-.33 5.258-.529v5.985a153.033 153.033 0 00-4.939-.502 60.984 60.984 0 00-4.993-.2c-.276 0-.54.005-.794.027a9.582 9.582 0 01-.795.027v5.574c0 1.258.021 2.488.065 3.702.038 1.21.151 2.423.35 3.632 1.093.275 2.233.41 3.406.41 1.999 0 3.966-.135 5.906-.41 1.94-.27 3.87-.545 5.788-.82l-.47 6.453zm16.627-19.593c.114 0 .325.01.616.027.292.021.498.032.616.032 1.173 0 2.173-.275 3-.825a6.139 6.139 0 001.967-2.11c.492-.864.843-1.83 1.059-2.903.216-1.08.324-2.121.324-3.141 0-1.953-.47-3.567-1.416-4.84-.935-1.269-2.448-1.905-4.517-1.905h-1.649v15.665zm12.43 3.108a28.895 28.895 0 011.67 2.17 57.78 57.78 0 011.529 2.287c.47.745.843 1.333 1.119 1.76 1.134 1.726 2.258 3.432 3.377 5.137 1.113 1.7 2.242 3.41 3.378 5.132h-14.278a176.103 176.103 0 00-4.874-8.856c-.433-.744-.876-1.5-1.324-2.26a17.102 17.102 0 00-1.497-2.143 5.61 5.61 0 00-.649-.734c-.195-.172-.492-.28-.88-.323.08 2.427.161 4.824.264 7.187a79.9 79.9 0 00.616 7.129h-12.808c.433-3.4.708-6.783.822-10.15a288.609 288.609 0 000-20.36 109.637 109.637 0 00-.822-10.146h18.39c1.643 0 3.254.173 4.82.524 1.563.356 2.968.939 4.2 1.765 1.237.82 2.22 1.894 2.966 3.221.747 1.333 1.12 2.979 1.12 4.932 0 3.286-.838 5.898-2.497 7.83-1.67 1.937-4.086 3.319-7.258 4.139.194.075.379.146.557.205.173.06.34.124.497.205.476.232.989.685 1.562 1.35zM164.536 178.74a161.36 161.36 0 00-8.695-.35c-2.897-.039-5.777-.06-8.636-.06h-2.702c-.902 0-1.805.037-2.702.118-.708.076-1.405.135-2.092.173-.686.043-1.377.08-2.08.119.427-3.405.703-6.784.816-10.15a290.15 290.15 0 000-20.36 112.14 112.14 0 00-.816-10.15h12.808a135.05 135.05 0 00-.795 10.15 244.966 244.966 0 00-.178 13.614c.022 1.133.027 2.266.027 3.405 0 1.29.022 2.601.065 3.929a30.35 30.35 0 00.351 3.928c.584.2 1.151.313 1.702.356a24.82 24.82 0 001.703.054c2 0 3.966-.135 5.907-.41 1.94-.27 3.869-.545 5.787-.82l-.47 6.454zm31.552 0a161.136 161.136 0 00-8.695-.35c-2.902-.039-5.783-.06-8.641-.06h-2.702c-.86 0-1.74.037-2.643.118-.703.076-1.41.135-2.113.173-.708.043-1.41.08-2.119.119.433-3.405.708-6.784.827-10.15a300.764 300.764 0 000-20.36 111.729 111.729 0 00-.827-10.15c1.217 0 2.41.031 3.589.091 1.172.06 2.367.086 3.583.086 2.897 0 5.766-.01 8.603-.027 2.842-.021 5.712-.07 8.609-.15v6.334a36.273 36.273 0 00-5.729-1.144 52.988 52.988 0 00-5.841-.318c-.157 0-.314.01-.47.027a3.555 3.555 0 01-.47.032v12.552c.194.043.35.06.47.06h.524c1.648 0 3.399-.076 5.263-.233 1.86-.156 3.615-.334 5.259-.529v5.985a137.18 137.18 0 00-4.94-.497 58.795 58.795 0 00-4.993-.205c-.276 0-.54.005-.795.027a9.526 9.526 0 01-.789.027v5.574c0 1.252.017 2.488.054 3.697a28.53 28.53 0 00.357 3.637c1.092.275 2.232.41 3.404.41 2 0 3.967-.135 5.907-.41 1.94-.27 3.87-.545 5.788-.82l-.47 6.454zm15.687-16.663h9.463l-4.94-12.32-4.523 12.32zm12.219-23.997a430.982 430.982 0 005.026 13.145 462.391 462.391 0 005.436 12.968 225.467 225.467 0 003.41 7.3c1.173 2.407 2.35 4.825 3.523 7.247H227.76a123.688 123.688 0 00-2.35-5.838 204.765 204.765 0 01-2.41-5.78h-12.754a614.65 614.65 0 01-2.146 5.753 66.946 66.946 0 00-1.907 5.865h-8.106a531.677 531.677 0 0010.046-21.471 899.134 899.134 0 004.053-9.508 156.599 156.599 0 003.702-9.68h8.106zm54.88 21.885c-.27 2.034-.492 4.058-.649 6.076a80.928 80.928 0 00-.232 6.07c0 .902.027 1.765.086 2.602.06.836.19 1.7.384 2.59-1.06.383-2.275.723-3.642 1.015a51.304 51.304 0 01-4.26.696c-1.47.172-2.917.296-4.349.372a74.39 74.39 0 01-3.848.119c-2.977 0-5.799-.443-8.463-1.322-2.664-.88-4.993-2.17-6.993-3.875-1.994-1.7-3.572-3.772-4.728-6.216-1.157-2.445-1.73-5.25-1.73-8.424 0-3.631.682-6.842 2.054-9.616 1.373-2.779 3.21-5.1 5.523-6.956 2.308-1.856 4.993-3.264 8.052-4.225 3.054-.955 6.285-1.435 9.69-1.435 1.961 0 3.95.118 5.966.35a13.21 13.21 0 015.61 1.997l-1.94 7.922h-1.114c-1.14-1.84-2.497-3.216-4.085-4.139-1.584-.917-3.454-1.381-5.61-1.381-2.27 0-4.194.485-5.76 1.446a11.465 11.465 0 00-3.79 3.76c-.956 1.55-1.641 3.287-2.052 5.23a27.772 27.772 0 00-.617 5.85c0 1.802.184 3.663.552 5.579.378 1.927 1.01 3.675 1.913 5.267a11.767 11.767 0 003.556 3.907c1.47 1.02 3.28 1.527 5.436 1.527.583 0 1.162-.022 1.73-.06.572-.037 1.13-.119 1.675-.237.043-.47.06-.934.06-1.403v-1.468c0-1.953-.066-3.89-.207-5.812a83.896 83.896 0 00-.615-5.806h12.397zm18.977-21.885c-.551 4.03-.864 8.078-.94 12.147a653.543 653.543 0 00-.113 12.2c0 1.565.075 3.066.232 4.49.157 1.43.53 2.687 1.119 3.788.583 1.096 1.437 1.975 2.556 2.639 1.113.664 2.631.998 4.55.998 2.427 0 4.27-.502 5.523-1.5 1.254-.993 2.162-2.267 2.734-3.81.568-1.549.881-3.27.94-5.164.06-1.9.087-3.723.087-5.488 0-3.442-.119-6.842-.351-10.21a228.477 228.477 0 00-.94-10.09h7.755a275.047 275.047 0 00-.881 9.859 188.683 188.683 0 00-.325 7.333 301.653 301.653 0 00-.086 7.333c0 5.79-1.324 10.032-3.967 12.73-2.642 2.698-6.885 4.047-12.72 4.047-2.427 0-4.687-.2-6.756-.615-2.08-.41-3.88-1.144-5.41-2.196-1.529-1.058-2.723-2.477-3.583-4.258-.864-1.78-1.291-4.036-1.291-6.772 0-1.37.021-2.709.059-4.02.038-1.312.054-2.65.054-4.02 0-3.249-.075-6.481-.232-9.708a137.632 137.632 0 00-.822-9.713h12.808zm56.818 40.66a161.372 161.372 0 00-8.696-.35 657.01 657.01 0 00-8.635-.06h-2.702a29.6 29.6 0 00-2.648.118c-.703.076-1.405.135-2.113.173-.708.043-1.41.08-2.113.119.427-3.405.702-6.784.816-10.15a290.155 290.155 0 000-20.36c-.114-3.362-.39-6.746-.816-10.15 1.21 0 2.405.031 3.583.091 1.172.06 2.366.086 3.583.086 2.896 0 5.766-.01 8.608-.027a427.34 427.34 0 008.61-.15v6.334a36.399 36.399 0 00-5.73-1.144 53.157 53.157 0 00-5.847-.318c-.156 0-.313.01-.47.027a3.434 3.434 0 01-.47.032v12.552c.195.043.352.06.47.06h.524c1.649 0 3.4-.076 5.264-.233 1.86-.156 3.61-.334 5.258-.529v5.985a138.43 138.43 0 00-4.94-.497 58.79 58.79 0 00-4.992-.205 9.16 9.16 0 00-.79.027 9.326 9.326 0 01-.794.027v5.574c0 1.252.022 2.488.06 3.697.038 1.214.15 2.428.35 3.637 1.098.275 2.233.41 3.41.41 1.995 0 3.962-.135 5.902-.41 1.94-.27 3.87-.545 5.793-.82l-.475 6.454z" fill="#FFF"/><g transform="translate(45.145 101.331)"><mask id="b" fill="#fff"><use xlink:href="#a"/></mask><path d="M79.31 38.862c-.33.313-.33.345-.66.674-.572.61-.405.61-1.15 1.187-.357.357-.568.486-1.19 1.02-.707.659-1.188.907-2.08 1.62-.843.695-1.492 1.294-2.443 2.071-.313.238-1.286.853-3.064 1.755-.74.452-1.664.922-2.67.695.854-.815 1.676-1.905 2.914-2.919 1.766-1.43 4.636-1.878 4.512-4.409-.06-1.273-.52-2.401-.995-3.545.303-.2.649-.4.881-.577.54-.416 1.254-.761 1.854-1.074.854-.427 1.724-.502 2.68-.308.946.189 1.492 1.085 1.93 1.9.194.367.335.728.243.992-.422.373-.54.6-.762.918m-29.74 4.884c-2.301-.81-5.127-2.035-8.45-1.312-.034.07-.093.092-.093.19.21-.25 2.53.015 1.875.09-1.826.103-3.863.195-5.269.648 2.675-2.568 8.555-2.007 11.673-.275.503.254.578.292 1.005.545.32.685-.08.329-.74.114M34.78 82.625c-.092.885.097 1.463-.924 1.306-1.61-.254-1.648-1.511-2.307-2.477-.763-1.106-1.173-1.894-1.173-1.894.373-.944.589-.588 1.518-.777.887-.194 1.876-.594 2.324-.594.46 0 .238-.318.535 1.474.26 1.51.14 1.996.027 2.962M12.785 94.491c-.697.729-1.859.702-4.534.583-2.664-.124-2.49-.216-4.015-.874-1.275-.54-1.691-.345-1.4-3.702.309-3.54 3.08-2.887 6.091-1.937 3.059.955 3.08 1.268 3.22 1.91.152.642.757 2.542.757 2.542s.34.993-.119 1.478m67.854-56.65c-.043-.517-.33-1.262-.535-1.58-.497-.724-1.205-1.306-2.064-1.527-2.032-.54-4.086.793-5.631 2.083-.308-.734-.61-1.484-.816-2.278L70.09 31.35c-.567-1.376-1.68-2.207-1.972-3.853-3.037-4.457-4.459-10.506-9.041-13.436-.935-1.155-1.913-2.277-3.091-3.195-1.238-2.104-3.702-2.892-4.426-5.353-.168-.55 0-1.306-.281-1.872-.184-.378-.703-.502-1.232-.95-.411-.345-.779-.869-1.114-1.122-.691-.497-1.518-.902-2.188-1.36-7.382 8.056-15.677 14.607-24.28 19.464.178.243.345.464.496.68.79 1.176 1.865 2.19 2.038 3.664.075.647.389 1.22.47 1.845.054.519.265.928.476 1.393.237.56.178 1.138.227 1.732.032.48.254.885.367 1.343.049.21-.065.438 0 .642.043.146.205.19.26.319.14.335.07.863.167 1.23.13.664.351 1.339.297 2.035-.092 1.424.216 2.903.33 4.317.194 2.142.254 4.279.194 6.421a60.844 60.844 0 01-.232 3.313 57.587 57.587 0 01-.195 1.673c-.054.34-.032 1.393-.26 1.64-1.188 1.307-1.615 3.033-2.728 4.317-.827.961-2.086 1.717-3.102 2.532-.605.501-1.21 1.003-1.827 1.5-.465.383-1.075.696-1.416 1.208-.248.378-.4.853-.6 1.268-.459.988-.983 1.965-1.48 2.947-.352.685-.6 1.403-.935 2.088-.308.604-.719 1.106-1.092 1.657-.443.663-.573 1.457-1.172 2.045-.438.442-.897.977-1.184 1.37-.87 1.123-1.254 1.56-2.053 2.737-.795 1.187-1.519 2.584-2.449 3.572-.815.874-1.977 1.575-2.912 2.342-.984.804-1.897 1.354-2.897 2.385-.637 1.268-.492 2.757-.773 4.107-.118.56-.47.987-.47 1.597 0 .669.33 1.419.47 2.147.265 1.36-.059 3.276 1.086 4.28 1.352 1.176 3.562 1.759 5.259 1.759 2.837-.27 4.972-.475 7.868-.686.746-.334.568-1.813.54-2.056-.032-.442-.28-.696.017-1.133 3.82-4.705 6.928-10.107 11.662-13.895.659.939 1.475 1.802 2.253 2.812.703.884 1.394 2.25 2.264 2.816 1.022.686 2.14 1.236 3.567 1.317 1.573-.831.81-7.398 2.362-9.956 1.145-.221 2.01-.75 3.107-1.025 7.004-7.043 14.867-14.22 22.378-21.045 1.092-.988 2.216-2.246 3.297-2.91 1.989-1.224 4.367-1.65 6.398-2.724 3.308-3.89 8.712-10.107 8.101-11.451" fill="#FFF" mask="url(#b)"/></g><path d="M20.537 36.713C14.65 44.888 10.264 53.49 7.313 62.043a87.911 87.911 0 0111.18-19.577 88.594 88.594 0 015.156-6.217 92 92 0 01-3.112.464m83.389-29.188c-21.277-16.027-57.17-4.42-80.89 25.848 1.028-.07 2.303-.156 3.59-.259C47.905 11.772 76.493 5.064 94.5 18.642c20.416 15.378 19.498 50.977-2.049 79.523-11.089 14.678-25.485 24.612-39.622 28.725 16.563-3.864 34.018-15.455 47.345-33.095 23.686-31.363 25.367-69.984 3.75-86.27" fill="#FFF"/><g transform="translate(0 23.236)"><mask id="d" fill="#fff"><use xlink:href="#c"/></mask><path d="M52.5 42.594a25.57 25.57 0 01.541 3.108c1.108-.291 2.162-.842 3.113-1.236.022-.016.043-.032.07-.037.27-.184.454-.33.605-.389a15.737 15.737 0 00-.313-3.151c-.086 0-.173.016-.26.038-1.172.695-2.604 1.187-3.766 1.559 0 .032.01.065.01.108m-.658-.545c-.163-.76-.33-1.765-.725-2.434-.016-.016-.021-.043-.037-.054-.757.243-1.524.497-2.286.723-.492.168-1 .34-1.519.48-.275.805-.562 1.609-.821 2.418-.033.087-.038.157-.054.238.42-.06.842-.125 1.302-.216a34.075 34.075 0 003.518-.934c.216-.06.41-.146.622-.221m3.804-3.918a.4.4 0 00-.335-.016.787.787 0 00-.092.033.14.14 0 01-.097.037c-.73.286-1.47.518-2.091.745-.363.124-.735.232-1.092.35-.076.033-.135.055-.206.082.017.21.038.399.06.588.178.653.357 1.295.524 1.937a37.86 37.86 0 003.275-1.295c.27-.124.519-.27.767-.416a23.4 23.4 0 00-.254-.917 8.772 8.772 0 00-.46-1.128m31.847 36.651c-.086-.356-.172-.717-.194-1.133-2.189-3.157-4.08-6.47-6.118-9.67-.675-1.074-1.324-2.315-2.064-3.286-.686-.89-1.762-1.662-2.638-2.542-2.636-2.644-5.441-5.008-8.186-7.42 2.07-4.052 3.988-8.44 6.209-12.303.751-1.29 1.74-2.66 2.258-3.95.406-.993.563-2.256.854-3.378.865-3.464 1.594-6.691 2.53-10.145.545-.432 1.064-.885 1.037-1.883-.783-.092-1.156-.594-1.691-.934-1.46.686-4.35.4-4.61-.939-.346-1.813 2.232-1.958 2.443-3.194-.66.021-1.854.599-2.157.097.611-.453 1.395-.74 1.973-1.225-1.156-.977-2.815-1.44-4.231-2.159-.195-1.478-.914-2.406-.849-4.133.179-.48.444-.734.584-1.382.092-.259.092-.383-.086-.809-.449-.016-.811.07-1.06-.065-.497-.474.011-1.43-.378-2.067-.205.675-.265 1.495-.654 1.976-.032-.508-.194-.88-.384-1.225.103 1.408.552 2.466.854 3.664-1.048-.168-1.437.313-2.34.286 0 .286-.102.48-.302.56-2.119.724-4.686 1.005-6.588 1.97-.854-.884-1.07-2.428-1.864-3.378.35 1.425 1.162 2.537 1.588 4.14 2.783-.767 5.01-2.084 7.993-2.64.287-.312.978-.512 1.513-.28.065.513.443 1.139.184 1.69-1.08-.157-.432-.017-1.119.193-.232-.124-.28.19-.691.249-.47.156-.714.156-1.157.437-.464.205-.384.248-.848.312-.406.19.07 0-.406.19-.454.08-.497.13-.94.28-.68.195-.432.124-1.01.28-.882.243-.347.092-1.27.34-1.346.287-.14-.032-1.4.351-.584-.793-1.157-1.597-1.88-2.255-.293.259-.39-.459-.47-1.122-.785-.265-1.017-1.047-1.044-2.073-.26-.043-.654.594-1.124.659-.73-.292-1.254-1.274-2.253-1.403-.811-.124-2.081.312-3.097.464-.789.118-1.562.14-2.194.318-4.945.475-21.979 3.232-25.097 3.718 3.264-.286 21.72-2.493 25.8-3.41 1.805-.146 3.68-.664 5.339-.626.167.237.324.49.27.939-2.55.858-5.215 1.111-7.89 1.51-1.546.222-6.426 1.22-7.34 1.404-3.95.782-8.43 1.608-12.79 2.347-1.276.221-2.594.426-3.853.658-7.54 1.37-15.532 1.954-23.427 1.031-.633-.092-.876.043-1 .162.081-.335.335-.664.6-.81.972-.458 2.15-.906 3.307-1.138h.562c.227-.195-.351-.081-.562-.092-.973-.027-2.588.022-3.29 0-.19.254-.53.62-.6 1.036-.028.054-.239 1.074-.244 1.128v.097c.324 1.549.551 3.19 1.405 4.225 2.74.038 5.248.81 7.814.842 2.086.027 4.178-.286 6.215-.377 1.675-.076 3.361-.05 5.075-.184 2.983-.243 6.041-1.015 9.03-1.506 9.214-1.5 18.298-3.157 26.907-4.98.832-.869 1.448-2.137 3.285-1.5.681 1.451 1.233 3.032 1.795 4.603 1.383.42 2.405 1.505 4.134.847-.767-3.556 2.534-3.87 4.701-4.981-.113.356.081.486.103.75 1.924.038 1.675 2.266 2.53 3.384-1.876-.686-3.778.08-4.978.75-.46.248-1.4.75-1.502 1.127-.211.734.308 2.283.46 3.384.178 1.187.545 2.504.48 3.47-.087 1.165-.816 2.417-1.135 3.383a48.593 48.593 0 00-1.027 3.567c-2.54 2.299-4.685 4.975-7.436 7.053-.113-.39-.167-.847-.26-1.263-.307.286-.67.534-1.08.756a.358.358 0 00-.065.037c-.08.038-.156.08-.243.124.087.21.151.438.195.67.2.453.367.911.491 1.392.065-.043.12-.076.168-.114.194-.178.394-.35.589-.54.14-.22.276-.442.486-.598.21.545-.027.847-.35 1.128-.217.259-.46.501-.747.728.308 1.317.416 2.693.384 3.977-3.615 2.677-8.684 3.616-13.094 3.88-1.297.07-2.562-1.014-3.578-1.716a70.315 70.315 0 01-2.556-1.873c-.016-.005-.027-.027-.038-.037-1.124-.804-2.156-1.808-2.378-3.27-.005-.022-.005-.038-.016-.06 0 .011.011.011.011 0a4.417 4.417 0 01.06-1.538c.075.4.108.826.14 1.263.087.216.206.432.27.701.357 1.166 1.368 1.77 2.28 2.456 1.368 1.036 2.74 2.061 4.205 2.946.562.324.968.567 1.584.535v-.006l.01.006c.395-1.156.795-2.37 1.2-3.54-.249.021-.497.064-.735.075-1.675.097-3.42.815-4.755-.313-.411-.2-.703-.502-.806-.928.627.043.946.4 1.297.712.206.07.411.124.562.162.146.038.308.049.46.07.962 0 1.853-.064 2.734-.145a.48.48 0 01.12-.017c.464-.086.896-.134 1.318-.2.248-.755.513-1.527.778-2.293.032-.08.043-.15.07-.22-.594.14-1.189.264-1.778.393-1.756.47-3.518.912-5.29 1.327-.357.076-.67.076-.973.017a.156.156 0 01-.049.01l-.027-.016c-.41-.108-.767-.35-1.07-.815a3.633 3.633 0 01-.178-.512c-.373-.61-.568-1.355-.324-2.32-.065 1.5.95 2.924 1.94 3.156.416.006.886-.167 1.226-.243.254-.054.508-.118.752-.183.016 0 .021-.006.032-.006 0 0 .01-.005.022-.005 1.821-.442 3.604-.906 5.404-1.408 2.47-.691 4.944-1.414 7.36-2.31.27-.102.546-.216.827-.324a18.817 18.817 0 001.464-.637c.017-.021.027-.021.038-.032.27-.146.481-.259.724-.383.173-.113.362-.216.535-.345.076-.065.146-.114.195-.14.027-.584-.005-.46-.19-.934-.329.08-.842.399-1.172.459-1.059.232-.789.205-1.67.323-.232-.944-.783-1.586-1.021-2.525 1.28-.76 2.95-1.122 3.004-3.103-1.685-.55-2.561-1.279-4.112-1.959-.27-.35-.962-1.457-1.33-2.185-.637-1.026-.448-.567-1.329-1.679-.686-.879-1.562-1.748-2.291-2.11-.66-.323-1.735-.674-2.605-.9-.87-.233-1.745-.648-2.632-.659-.605-.01-1.388.243-2.07.378-1.956.388-2.534.658-3.772 1.602-.534.41-1.259.88-1.588 1.312-.146.188-.54.642-.665.842-.27.464-.524.647-.751 1.063-.41.76-.395.852-.66 1.381-.637 1.3-1.226 2.65-1.48 4.269.032 4.565 2.67 6.378 3.556 10.096.06-.502-.287-1.09 0-1.495.302.464.194 1.37.28 2.067.703.799 1.914 1.095 2.265 2.25-.886-.162-1.6-1.51-2.297-1.554 1.108.939 2.119 1.98 3.33 2.59.178.086.453 0 .658.092 1.022.47 1.795 1.7 2.719 1.975.432.124.535-.06.854.4-2.124.36-2.751-2.488-4.032-1.9-.951.432-1.167.291-2.28.47-.173.879.95 2.18 1.113 3.01.735 1.052.021 1.57.66 2.725.664.588 1.058.745 1.62 1.117.325 2.224.109 4.587.843 6.767.832 1.619 2.735 2.698 4.054 4.123 1.432 1.57 3.388 3.238 4.507 4.333 3.874 3.756 7.592 6.896 11.58 10.512 1.006.917 3.432 2.639 3.94 3.761.454.971.627 2.283.935 3.475.33 1.17.837 2.445.95 3.475.217 1.862-.469 3.638 0 5.634.082.318.277.67.53 1.03 7.69-4.959 14.965-11.407 21.25-19.204.459-.578.897-1.155 1.34-1.738-.52-.507-1.113-.906-1.946-1.03M46.011 44.46c-.017.027-.022.065-.038.097-.281.831-.562 1.657-.843 2.493-.082.238-.125.416-.168.524 1.784-.146 3.55-.4 5.28-.815.33-.081.638-.178.956-.276.433-.177.94-.404 1.287-.534-.028-.27-.038-.545-.044-.636a23.482 23.482 0 00-.47-2.672c-.119.044-.248.081-.367.12-.995.323-1.994.609-3.01.841-.811.21-1.627.4-2.405.464-.065.135-.119.265-.178.394M61.893 2.64c-.157-1.005.557-1.118 1.119-1.398.194-.011.394-.022.61-.043.481.07.735.642 1 .879.054-.47.308-.723.535-.998.368-.038.751-.086 1.124-.13.579.092.535.804.984 1.031-.07-1.176 1.632-1.457 2.345-.75-.005-.34-.14-.545-.189-.853l-8.165.848c-.47-.011-.876.005-1.054.102 1.01-.016 1.161.837 1.691 1.311M72.139.444A6.083 6.083 0 0173.69.58c.065.016.152.016.206.027.2.086.216.362.513.345.324-.22.87-.205 1.405-.189.4.206.551.653.86.934.199-.772 1.323-.982 1.972-.561.432.286.2.766.654.944-.103-.653.308-.793.702-.933.357.054.422.162.584.329.027.032.19.426.19.426.172.599.318 1.214.534 1.802.157.427.21.945.346 1.193l-.006-.006v.475c-.308.162-.708.227-1.124.286.114.351.395.535.465.934-.762.588-1.789-.308-2.54 0 .027.664.61.771.756 1.317-.491.896-1.528.129-2.35.097-.379-.022-.686.253-1.043.183-.351-.075-.66-.712-.935-.377-.081.35 1.027.54.849 1.03 1.437-.08 2.405 1.204 3.76 1.322.341.022.779-.156 1.125-.097 1.054.178 2.037 1.959 2.145 4.695 0-.626.492-4.252.492-4.889.649-.254 1.08-.74 1.697-1.03.086-1.129.162-2.289.276-3.373-1.054-.184-2.173-.324-3.221-.519-.281-.917-.746-3.399-1.8-3.88a.08.08 0 01.044-.02c-.876-.489-2.292-.51-3.243-.564a24.66 24.66 0 00-1.989-.027c-.302.01-.918.151-1.205.043-.654-.254-1.054-.389-1.75-.302-.223.108-.287.194-.303.243-.14.145-.33.345-.076.415.043-.237.254-.302.46-.41" fill="#FFF" mask="url(#d)"/></g><path d="M381.643 34.7c.075 0 .156.005.237.016.081.005.162.016.244.016.637 0 1.177-.135 1.631-.404.444-.27.67-.761.67-1.479 0-.356-.06-.631-.178-.826a1.082 1.082 0 00-.48-.415c-.2-.092-.428-.14-.693-.146-.254-.01-.524-.016-.805-.016h-.626V34.7zm-1.762 4.241c.097-.696.151-1.408.162-2.137a142.757 142.757 0 000-4.268 17.272 17.272 0 00-.162-2.137h3.193c.422 0 .827.027 1.2.076.378.048.713.15 1.005.313.287.162.52.388.703.69.179.297.27.697.27 1.193 0 .815-.27 1.451-.81 1.91-.536.459-1.19.707-1.946.745.362.043.664.151.913.33.249.177.487.42.703.717l.956 1.257c.325.416.628.853.93 1.311h-2.243a91.35 91.35 0 00-.778-1.284 8.464 8.464 0 00-.903-1.198 56.23 56.23 0 00-.459-.502c-.151-.162-.357-.242-.61-.242h-.362c.02.54.032 1.079.043 1.613.01.54.054 1.08.135 1.613h-1.94zm.28-10.247a7.221 7.221 0 00-2.274 1.479 6.842 6.842 0 00-1.524 2.223 6.68 6.68 0 00-.557 2.725c0 1.02.178 1.959.524 2.811a6.584 6.584 0 001.464 2.202 6.466 6.466 0 002.265 1.435c.875.34 1.843.507 2.902.507 1.016 0 1.951-.177 2.81-.55a6.86 6.86 0 002.226-1.505 6.887 6.887 0 001.47-2.234 7.178 7.178 0 00.52-2.726c0-1.009-.174-1.926-.52-2.768a6.585 6.585 0 00-1.453-2.18 6.692 6.692 0 00-2.216-1.43c-.859-.35-1.8-.523-2.837-.523-1 0-1.934.178-2.8.534zm6.55-1.117a8.007 8.007 0 012.757 1.646 7.4 7.4 0 011.794 2.563c.427.998.643 2.12.643 3.362 0 1.225-.254 2.342-.762 3.351a8.075 8.075 0 01-2.037 2.58c-.844.706-1.827 1.251-2.945 1.645a10.713 10.713 0 01-3.503.577c-1.253 0-2.42-.194-3.501-.577-1.076-.394-2-.939-2.783-1.646a7.592 7.592 0 01-1.822-2.563c-.437-1.004-.659-2.12-.659-3.367 0-1.241.26-2.364.778-3.362a8.151 8.151 0 012.064-2.563 9.458 9.458 0 012.978-1.646 10.7 10.7 0 013.513-.583c1.259 0 2.42.194 3.485.583z" fill="#FFF"/></g></svg>