<svg height="512pt" viewBox="0 0 512 512" width="512pt" xmlns="http://www.w3.org/2000/svg"><path d="m512 256c0 141.386719-114.613281 256-256 256s-256-114.613281-256-256 114.613281-256 256-256 256 114.613281 256 256zm0 0" fill="#8cb4eb"/><path d="m479.351562 223.351562c0 123.351563-100 223.347657-223.351562 223.347657s-223.351562-99.996094-223.351562-223.347657c0-123.355468 100-223.351562 223.351562-223.351562s223.351562 99.996094 223.351562 223.351562zm0 0" fill="#a5cdff"/><path d="m379.335938 361h-246.671876c-34.96875 0-65.730468 19.480469-81.480468 48.59375 46.707031 62.183594 121.0625 102.40625 204.816406 102.40625s158.109375-40.222656 204.816406-102.40625c-15.75-29.113281-46.511718-48.59375-81.480468-48.59375zm0 0" fill="#edebed"/><path d="m124 475.382812c38.542969 23.242188 83.710938 36.617188 132 36.617188s93.457031-13.375 132-36.617188v-113.96875c-2.855469-.265624-5.742188-.414062-8.664062-.414062h-246.671876c-2.921874 0-5.808593.148438-8.664062.414062zm0 0" fill="#fff"/><path d="m191.605469 350.378906-13.046875 11.21875c-12.597656 10.835938-14.390625 29.691406-4.058594 42.707032l48.003906 60.464843c2.476563 3.125 7.171875 3.257813 9.828125.28125l23.667969-26.550781-43.628906-84.109375c-4.007813-7.722656-14.171875-9.6875-20.765625-4.011719zm0 0" fill="#8cb4eb"/><path d="m320.394531 350.378906 13.046875 11.21875c12.597656 10.835938 14.390625 29.691406 4.058594 42.707032l-48.003906 60.464843c-2.476563 3.125-7.171875 3.257813-9.828125.28125l-23.667969-26.550781 43.628906-84.109375c4.007813-7.722656 14.171875-9.6875 20.765625-4.011719zm0 0" fill="#8cb4eb"/><path d="m204.523438 245.980469v118.789062c0 28.429688 51.476562 73.730469 51.476562 73.730469s51.476562-45.300781 51.476562-73.730469v-118.789062zm0 0" fill="#f7d291"/><path d="m204.523438 360.96875c15.96875 6.230469 33.328124 9.660156 51.476562 9.660156s35.507812-3.429687 51.476562-9.660156v-114.988281h-102.953124zm0 0" fill="#f0c382"/><path d="m388.5 257.84375h-30.5v-89.0625h40.304688c10.875 0 19.695312 8.820312 19.695312 19.699219v39.863281c0 16.292969-13.207031 29.5-29.5 29.5zm0 0" fill="#f7d291"/><path d="m123.5 257.84375h30.5v-89.0625h-40.304688c-10.875 0-19.695312 8.820312-19.695312 19.699219v39.863281c0 16.292969 13.207031 29.5 29.5 29.5zm0 0" fill="#f0c382"/><path d="m256 350.628906c-67.378906 0-122-54.621094-122-122v-91.628906c0-67.378906 54.621094-122 122-122s122 54.621094 122 122v91.628906c0 67.378906-54.621094 122-122 122zm0 0" fill="#ffe1a0"/><path d="m184 228.628906v-91.628906c0-58.808594 41.613281-107.894531 97-119.429688-8.070312-1.683593-16.429688-2.570312-25-2.570312-67.378906 0-122 54.621094-122 122v91.628906c0 67.378906 54.621094 122 122 122 8.570312 0 16.929688-.890625 25-2.570312-55.386719-11.535156-97-60.621094-97-119.429688zm0 0" fill="#f7d291"/><path d="m387.550781 154.683594c0-4.144532-3.359375-7.5-7.5-7.5-4.144531 0-7.5 3.355468-7.5 7.5v115.441406h-233.101562v-115.441406c0-4.144532-3.355469-7.5-7.5-7.5-4.140625 0-7.5 3.355468-7.5 7.5v118.925781c0 1.308594.035156 2.613281.089843 3.910156 0 .035157-.007812.070313-.007812.105469 0 .261719.015625.515625.039062.769531.605469 12.109375 3.492188 23.628907 8.234376 34.132813.144531.382812.3125.746094.511718 1.09375 15.121094 32.382812 47.996094 54.878906 86.027344 54.878906h73.3125c38.035156 0 70.910156-22.496094 86.03125-54.878906.199219-.347656.367188-.714844.507812-1.09375 4.75-10.515625 7.636719-22.050782 8.234376-34.171875.023437-.242188.039062-.484375.039062-.730469 0-.035156-.003906-.066406-.003906-.101562.050781-1.300782.085937-2.605469.085937-3.917969zm-20.398437 147.730468h-66.996094v-17.289062h71.550781c-.871093 6.007812-2.421875 11.789062-4.554687 17.289062zm-81.996094 51.085938h-58.3125v-36.085938h58.3125zm-58.3125-51.085938v-17.289062h58.3125v17.289062zm-86.550781-17.289062h71.550781v17.289062h-66.996094c-2.132812-5.5-3.683594-11.28125-4.554687-17.289062zm12.285156 32.289062h59.265625v35.722657c-24.761719-2.316407-46.265625-15.980469-59.265625-35.722657zm147.578125 35.722657v-35.722657h59.261719c-12.996094 19.742188-34.5 33.40625-59.261719 35.722657zm0 0" fill="#5a4650"/><path d="m393 168.785156v-31.785156c0-75.542969-61.457031-137-137-137s-137 61.457031-137 137v31.785156h15l122-16.785156 122 16.785156zm0 0" fill="#64505a"/><path d="m169 137c0-67.003906 48.355469-122.921875 112-134.707031-8.109375-1.5-16.464844-2.292969-25-2.292969-75.542969 0-137 61.457031-137 137v31.785156h15l35-4.816406zm0 0" fill="#5a4650"/><path d="m256 119.988281c-50.457031 0-122.242188 21.285157-122.242188 36.808594v19.832031c0 2.984375 2.902344 5.121094 5.75 4.214844 13.71875-4.371094 52.121094-14.359375 116.492188-14.359375s102.773438 9.988281 116.492188 14.359375c2.847656.90625 5.75-1.230469 5.75-4.214844v-19.832031c0-15.523437-71.785157-36.808594-122.242188-36.808594zm0 0" fill="#6e5a64"/><path d="m183.757812 130.363281c-28.105468 7.53125-50 17.859375-50 26.433594v19.832031c0 2.984375 2.902344 5.121094 5.75 4.214844 7.429688-2.367188 22.125-6.382812 44.25-9.566406zm0 0" fill="#64505a"/></svg>