<?xml version="1.0" encoding="iso-8859-1"?>
<!-- Generator: Adobe Illustrator 19.0.0, SVG Export Plug-In . SVG Version: 6.00 Build 0)  -->
<svg version="1.1" id="Capa_1" xmlns="http://www.w3.org/2000/svg" xmlns:xlink="http://www.w3.org/1999/xlink" x="0px" y="0px"
	 viewBox="0 0 512 512" style="enable-background:new 0 0 512 512;" xml:space="preserve">
<g>
	<path style="fill:#BDC3C7;" d="M494.345,256c0.01,41.843-11.013,82.948-31.956,119.172
		c-30.11,51.858-78.546,90.562-135.768,108.491v19.509c-0.015,4.869-3.958,8.813-8.828,8.828H194.207
		c-4.869-0.015-8.813-3.958-8.828-8.828v-19.509C85.762,452.586,17.918,360.352,17.918,256S85.762,59.414,185.379,28.337V8.828
		c0.015-4.869,3.958-8.813,8.828-8.828h123.586c4.869,0.015,8.813,3.958,8.828,8.828v19.509
		C426.37,59.28,494.355,151.561,494.345,256L494.345,256z"/>
	<path style="fill:#CC4B4C;" d="M450.207,256c0.032,11.309-0.972,22.596-3.001,33.721c-3.844,22.331-11.647,43.795-23.04,63.382
		c-11.292,19.633-25.965,37.116-43.343,51.641v0.088c-72.193,60.571-177.452,60.571-249.644,0v-0.088
		c-17.378-14.525-32.052-32.008-43.343-51.641c-11.421-19.574-19.225-41.043-23.04-63.382c-4.002-22.303-4.002-45.14,0-67.443
		c3.815-22.339,11.619-43.808,23.04-63.382c11.292-19.634,25.965-37.116,43.343-51.641v-0.088
		c72.193-60.571,177.452-60.571,249.644,0v0.088c17.378,14.525,32.052,32.008,43.343,51.641
		c11.421,19.574,19.225,41.043,23.04,63.382C449.235,233.404,450.239,244.691,450.207,256L450.207,256z"/>
	<path style="fill:#4FBA6F;" d="M256,414.897c-87.756,0-158.897-71.14-158.897-158.897S168.244,97.103,256,97.103
		S414.896,168.244,414.896,256C414.798,343.715,343.715,414.798,256,414.897z"/>
	<path style="fill:#E6E7E8;" d="M247.564,384c-2.438,0-4.414-1.976-4.414-4.414c0-2.438,1.976-4.414,4.414-4.414h17.263
		c2.492-0.022,4.558,1.925,4.685,4.414c0.06,1.141-0.349,2.257-1.132,3.09c-0.783,0.833-1.872,1.309-3.015,1.319v-4.414L264.935,384
		H247.564z M222.22,379.466c-0.533,0-1.062-0.096-1.56-0.284c-5.728-2.166-11.168-5.026-16.199-8.517
		c-2.002-1.39-2.498-4.14-1.108-6.142c1.39-2.002,4.14-2.498,6.142-1.108c4.436,3.078,9.234,5.6,14.284,7.509
		c1.995,0.753,3.166,2.825,2.783,4.922C226.179,377.942,224.352,379.466,222.22,379.466L222.22,379.466z M290.642,379.134
		c-2.12-0.001-3.94-1.51-4.334-3.593c-0.394-2.083,0.749-4.152,2.722-4.928c5.024-1.975,9.787-4.559,14.181-7.694
		c1.283-0.94,2.973-1.117,4.424-0.463c1.45,0.654,2.436,2.038,2.58,3.623c0.144,1.584-0.575,3.124-1.883,4.029
		c-4.982,3.554-10.382,6.482-16.078,8.72C291.741,379.029,291.194,379.133,290.642,379.134L290.642,379.134z M188.841,353.189
		c-1.459,0.003-2.825-0.717-3.647-1.922c-3.456-5.05-6.278-10.506-8.401-16.246c-0.845-2.285,0.322-4.823,2.608-5.668
		c2.285-0.845,4.823,0.322,5.668,2.608c1.876,5.059,4.364,9.869,7.41,14.323c0.924,1.351,1.024,3.101,0.262,4.549
		C191.977,352.281,190.477,353.188,188.841,353.189L188.841,353.189z M323.672,352.431c-1.626-0.001-3.12-0.896-3.888-2.33
		c-0.768-1.434-0.685-3.173,0.216-4.528c2.991-4.497,5.418-9.343,7.228-14.431c0.528-1.486,1.809-2.577,3.36-2.863
		c1.551-0.286,3.137,0.278,4.159,1.479c1.023,1.201,1.327,2.855,0.799,4.341c-2.051,5.769-4.803,11.264-8.194,16.362
		C326.535,351.694,325.152,352.434,323.672,352.431z M176.552,312.535c-1.171,0.001-2.294-0.464-3.122-1.292
		c-0.828-0.828-1.293-1.951-1.292-3.122v-17.263c0-2.438,1.976-4.414,4.414-4.414s4.414,1.976,4.414,4.414v17.263
		c0.001,1.171-0.464,2.294-1.292,3.122C178.845,312.07,177.722,312.535,176.552,312.535L176.552,312.535z M335.448,311.603
		c-1.171,0.001-2.294-0.464-3.122-1.292c-0.828-0.828-1.293-1.951-1.292-3.122v-17.263c0-2.438,1.976-4.414,4.414-4.414
		c2.438,0,4.414,1.976,4.414,4.414v17.263c0.001,1.171-0.464,2.294-1.292,3.122C337.742,311.139,336.619,311.604,335.448,311.603z
		 M176.552,269.375c-1.171,0.001-2.294-0.464-3.122-1.292c-0.828-0.828-1.293-1.951-1.292-3.122v-17.263
		c0-2.438,1.976-4.414,4.414-4.414s4.414,1.976,4.414,4.414v17.263c0.001,1.171-0.464,2.294-1.292,3.122
		C178.845,268.911,177.722,269.376,176.552,269.375z M335.448,268.444c-1.171,0.001-2.294-0.464-3.122-1.292
		c-0.828-0.828-1.293-1.951-1.292-3.122v-17.263c0-2.438,1.976-4.414,4.414-4.414c2.438,0,4.414,1.976,4.414,4.414v17.263
		c0.001,1.171-0.464,2.294-1.292,3.122C337.742,267.98,336.619,268.445,335.448,268.444z M176.552,226.22
		c-1.171,0.001-2.294-0.464-3.122-1.292c-0.828-0.828-1.293-1.951-1.292-3.122v-17.263c0-2.438,1.976-4.414,4.414-4.414
		s4.414,1.976,4.414,4.414v17.263c0.001,1.171-0.464,2.294-1.292,3.122C178.845,225.756,177.722,226.22,176.552,226.22
		L176.552,226.22z M335.448,225.289c-1.171,0.001-2.294-0.464-3.122-1.292c-0.828-0.828-1.293-1.951-1.292-3.122v-17.263
		c0-2.438,1.976-4.414,4.414-4.414c2.438,0,4.414,1.976,4.414,4.414v17.263c0.001,1.171-0.464,2.294-1.292,3.122
		C337.742,224.825,336.619,225.29,335.448,225.289z M180.702,183.539c-1.439,0.002-2.788-0.697-3.615-1.874
		c-0.827-1.177-1.029-2.683-0.54-4.036c2.075-5.762,4.85-11.247,8.263-16.332c1.365-2.009,4.096-2.538,6.112-1.184
		c2.016,1.354,2.559,4.083,1.215,6.106c-3.01,4.482-5.455,9.319-7.28,14.401C184.225,182.371,182.563,183.538,180.702,183.539z
		 M330.974,182.672c-1.841,0-3.488-1.143-4.134-2.866c-1.894-5.052-4.4-9.854-7.461-14.297c-1.383-2.007-0.878-4.755,1.129-6.138
		c2.007-1.383,4.755-0.877,6.138,1.129c3.474,5.037,6.315,10.481,8.461,16.211c0.507,1.355,0.318,2.873-0.507,4.062
		C333.776,181.963,332.421,182.672,330.974,182.672L330.974,182.672z M206.452,149.746c-1.923,0.001-3.625-1.243-4.209-3.075
		c-0.583-1.832,0.087-3.832,1.657-4.942c4.997-3.53,10.406-6.437,16.108-8.655c2.271-0.883,4.828,0.242,5.711,2.513
		c0.883,2.271-0.242,4.828-2.513,5.711c-5.029,1.96-9.802,4.525-14.211,7.638C208.252,149.462,207.364,149.746,206.452,149.746
		L206.452,149.746z M304.797,149.22c-0.891,0.001-1.762-0.269-2.496-0.776c-4.448-3.063-9.256-5.567-14.315-7.457
		c-2.271-0.86-3.42-3.394-2.571-5.669c0.849-2.275,3.378-3.436,5.657-2.598c5.735,2.14,11.186,4.978,16.228,8.448
		c1.594,1.095,2.29,3.102,1.715,4.949C308.442,147.964,306.732,149.222,304.797,149.22L304.797,149.22z M264.168,136.828h-16.996
		c-2.464,0.01-4.484-1.951-4.547-4.414c0.12-2.524,2.241-4.486,4.767-4.409L264.168,128c2.438,0,4.414,1.976,4.414,4.414
		S266.606,136.828,264.168,136.828z"/>
	<g>
		<path style="fill:#527F72;" d="M282.483,308.966v26.483c-0.015,4.869-3.958,8.813-8.828,8.828h-35.31
			c-4.869-0.015-8.813-3.958-8.828-8.828v-26.483H282.483z"/>
		<path style="fill:#527F72;" d="M282.483,176.552v26.483h-52.966v-26.483c0.015-4.869,3.958-8.813,8.828-8.828h35.31
			C278.524,167.739,282.468,171.682,282.483,176.552L282.483,176.552z"/>
	</g>
	<rect x="229.517" y="203.034" style="fill:#CBB292;" width="52.966" height="105.931"/>
	<path style="fill:#7F8C8D;" d="M185.379,28.337v46.698c-19.698,7.684-38.007,18.538-54.201,32.132l-28.337-33.633
		C127.075,53.13,155.135,37.764,185.379,28.337L185.379,28.337z"/>
	<path style="fill:#95A5A5;" d="M131.178,107.167v0.088c-17.378,14.525-32.052,32.008-43.343,51.641l-38.223-22.069
		c13.946-24.02,31.957-45.436,53.23-63.294L131.178,107.167z"/>
	<path style="fill:#7F8C8D;" d="M87.834,158.897c-11.421,19.574-19.225,41.043-23.04,63.382h-0.088l-43.432-7.68
		c4.794-27.39,14.387-53.718,28.337-77.771L87.834,158.897z"/>
	<path style="fill:#95A5A5;" d="M61.793,256c-0.032,11.309,0.972,22.596,3.001,33.721h-0.088l-43.432,7.68
		c-4.825-27.39-4.825-55.413,0-82.803l43.432,7.68h0.088C62.765,233.404,61.76,244.691,61.793,256L61.793,256z"/>
	<path style="fill:#7F8C8D;" d="M87.834,353.103l-38.223,22.069c-13.95-24.054-23.543-50.381-28.337-77.771l43.432-7.68h0.088
		C68.609,312.06,76.413,333.53,87.834,353.103L87.834,353.103z"/>
	<path style="fill:#95A5A5;" d="M131.178,404.745v0.088l-28.337,33.633c-21.273-17.858-39.284-39.274-53.23-63.294l38.223-22.069
		C99.126,372.737,113.8,390.22,131.178,404.745L131.178,404.745z"/>
	<g>
		<path style="fill:#7F8C8D;" d="M185.379,436.966v46.698c-30.244-9.428-58.304-24.793-82.538-45.197l28.337-33.633
			C147.372,418.428,165.681,429.282,185.379,436.966L185.379,436.966z"/>
		<path style="fill:#7F8C8D;" d="M409.158,438.466c-24.234,20.404-52.294,35.77-82.538,45.197v-46.698
			c19.698-7.684,38.007-18.538,54.201-32.132L409.158,438.466z"/>
	</g>
	<path style="fill:#95A5A5;" d="M462.389,375.172c-13.946,24.02-31.957,45.436-53.23,63.294l-28.337-33.633v-0.088
		c17.378-14.525,32.052-32.008,43.343-51.641L462.389,375.172z"/>
	<path style="fill:#7F8C8D;" d="M490.725,297.401c-4.794,27.39-14.387,53.718-28.337,77.771l-38.223-22.069
		c11.393-19.587,19.196-41.051,23.04-63.382h0.088L490.725,297.401z"/>
	<path style="fill:#95A5A5;" d="M494.345,256c0.009,13.88-1.202,27.734-3.619,41.401l-43.432-7.68h-0.088
		c4.002-22.303,4.002-45.14,0-67.443h0.088l43.432-7.68C493.143,228.266,494.354,242.12,494.345,256L494.345,256z"/>
	<path style="fill:#7F8C8D;" d="M490.725,214.599l-43.432,7.68h-0.088c-3.815-22.339-11.619-43.808-23.04-63.382l38.223-22.069
		C476.339,160.881,485.932,187.209,490.725,214.599L490.725,214.599z"/>
	<path style="fill:#95A5A5;" d="M462.389,136.828l-38.223,22.069c-11.292-19.634-25.965-37.116-43.343-51.641v-0.088l28.337-33.633
		C430.432,91.392,448.443,112.808,462.389,136.828L462.389,136.828z"/>
	<path style="fill:#7F8C8D;" d="M409.158,73.534l-28.337,33.633c-16.194-13.595-34.503-24.449-54.201-32.132V28.337
		C356.865,37.764,384.925,53.13,409.158,73.534L409.158,73.534z"/>
	<g>
		<path style="fill:#FFFFFF;" d="M233.931,448.883V512h-8.828v-64.265C228.016,448.265,230.93,448.618,233.931,448.883z"/>
		<path style="fill:#FFFFFF;" d="M286.896,447.735V512h-8.828v-63.117C281.07,448.618,283.983,448.265,286.896,447.735z"/>
	</g>
</g>
<g>
</g>
<g>
</g>
<g>
</g>
<g>
</g>
<g>
</g>
<g>
</g>
<g>
</g>
<g>
</g>
<g>
</g>
<g>
</g>
<g>
</g>
<g>
</g>
<g>
</g>
<g>
</g>
<g>
</g>
</svg>
